<svg xmlns="http://www.w3.org/2000/svg" viewBox="0 0 503.15 206.57"><defs><style>.a0ae7f64-7245-448a-9319-a18398b771b1,.b1359149-3447-4ad4-bd28-9fc2aadf3bc5,.b6581f7f-81f5-4ba9-9b3e-410910767467,.f1d30a94-e4d7-4a07-8cbb-d1dea38f352b{fill:none;stroke-miterlimit:10;}.a0ae7f64-7245-448a-9319-a18398b771b1,.b6581f7f-81f5-4ba9-9b3e-410910767467{stroke:#231f20;}.a0ae7f64-7245-448a-9319-a18398b771b1,.b1359149-3447-4ad4-bd28-9fc2aadf3bc5,.b6581f7f-81f5-4ba9-9b3e-410910767467{stroke-linecap:round;}.b6581f7f-81f5-4ba9-9b3e-410910767467{stroke-width:3px;}.a9a234bc-9075-4a24-ade0-c84da67b3a2c{fill:#f15f52;}.a42ccec6-391c-48db-92ab-22cf8822000e{fill:#f8d6af;}.bcd01b16-3fd9-44b7-ad93-88185906f947{fill:#f8d662;}.b1359149-3447-4ad4-bd28-9fc2aadf3bc5{stroke:#ef7622;stroke-width:2px;}.aedccc11-63f0-4228-a036-6044ce8116f8{fill:#fac2c1;}.bf497f8b-5e15-4141-866e-7b04b27b3991{fill:#f47821;opacity:0.52;}.a4fc1e8f-138d-48ce-b4ae-22fb18343a7f{fill:#cbcad1;opacity:0.47;}.bd6ae2ba-c91f-406c-a00c-b11be7f05080{fill:#231f20;}.f2e99ad5-8544-4c86-9d43-2cea9ec47a7e{fill:#fff;}.f1d30a94-e4d7-4a07-8cbb-d1dea38f352b{stroke:#4dbfa4;}</style></defs><g id="b13f6689-837e-4c1b-837a-2982367aef0c" data-name="Layer 2"><g id="b9f9ad05-855c-45a6-8b65-c205abd0ee64" data-name="Layer 1"><line class="b6581f7f-81f5-4ba9-9b3e-410910767467" x1="16.87" y1="36.47" x2="17.44" y2="41.1"></line><circle class="a9a234bc-9075-4a24-ade0-c84da67b3a2c" cx="59.86" cy="77.5" r="1.35"></circle><path class="a0ae7f64-7245-448a-9319-a18398b771b1" d="M476.05.5s1.41,4.22-3.5,4"></path><circle class="a42ccec6-391c-48db-92ab-22cf8822000e" cx="466.6" cy="50.39" r="2.78"></circle><circle class="bcd01b16-3fd9-44b7-ad93-88185906f947" cx="288.52" cy="60.77" r="2.78"></circle><line class="b1359149-3447-4ad4-bd28-9fc2aadf3bc5" x1="409.37" y1="48.86" x2="412.91" y2="51.92"></line><path class="aedccc11-63f0-4228-a036-6044ce8116f8" d="M503.15,169.9a2.39,2.39,0,0,1-2.39,2.39c-1.33,0-4-2-4-3.3s2.7-.3,4-.3S503.15,168.58,503.15,169.9Z"></path><path class="b6581f7f-81f5-4ba9-9b3e-410910767467" d="M42,193.4s4.11,12.27-10.2,11.65"></path><path class="a42ccec6-391c-48db-92ab-22cf8822000e" d="M0,142.89c0,3.25,2.55,7.33,5.8,7.33s6.31-3.81,6.63-7.05c.35-3.54,2.42-15.22-6.55-6.16C3.16,139.76,0,139.64,0,142.89Z"></path><polygon class="bf497f8b-5e15-4141-866e-7b04b27b3991" points="455.43 129.14 455.9 129.6 454.24 130.67 455.43 129.14"></polygon><path class="a4fc1e8f-138d-48ce-b4ae-22fb18343a7f" d="M456,121.51c-.06,0-5.39-1.44-3.78-3.33S456,121.51,456,121.51Z"></path><path class="a4fc1e8f-138d-48ce-b4ae-22fb18343a7f" d="M456.66,121.37l-2-3.76s2.34-3.12,3,1.22A3.12,3.12,0,0,1,456.66,121.37Z"></path><path class="bf497f8b-5e15-4141-866e-7b04b27b3991" d="M459.34,128.5a4.27,4.27,0,0,1-4.22-4.31,4.48,4.48,0,0,1,.22-1.38,4.33,4.33,0,0,0-1.21,3,4.21,4.21,0,0,0,8.22,1.37A4.15,4.15,0,0,1,459.34,128.5Z"></path><path class="bf497f8b-5e15-4141-866e-7b04b27b3991" d="M457.65,121.76v-.18a4.09,4.09,0,0,0-1.48.56,4.15,4.15,0,0,0-.15,1.12,4.27,4.27,0,0,0,4.22,4.32,4.12,4.12,0,0,0,2.19-.63,4.84,4.84,0,0,0,.14-.94,4,4,0,0,1-.7.06A4.27,4.27,0,0,1,457.65,121.76Z"></path><path class="bd6ae2ba-c91f-406c-a00c-b11be7f05080" d="M466.46,118.15a.13.13,0,0,0-.11.12,4.17,4.17,0,0,0-3.11,1.86,2.44,2.44,0,0,0-1.7-.89c.38-1.3,2.44-2,2.9-2.12a.13.13,0,0,0,.13.1.12.12,0,0,0,.11-.14.11.11,0,0,0-.13-.11.14.14,0,0,0-.12.13,4.16,4.16,0,0,0-3.26,2.12,2.61,2.61,0,1,0,2.25,1.13,5.27,5.27,0,0,1,2.93-2.06.11.11,0,0,0,.13.11.13.13,0,0,0,.12-.14A.12.12,0,0,0,466.46,118.15Z"></path><circle class="f2e99ad5-8544-4c86-9d43-2cea9ec47a7e" cx="460.66" cy="120.56" r="0.47"></circle><polygon class="bf497f8b-5e15-4141-866e-7b04b27b3991" points="126.44 113.75 126.75 114.12 125.46 114.76 126.44 113.75"></polygon><path class="a4fc1e8f-138d-48ce-b4ae-22fb18343a7f" d="M127.49,108.27s-3.79-1.49-2.48-2.72S127.49,108.27,127.49,108.27Z"></path><path class="a4fc1e8f-138d-48ce-b4ae-22fb18343a7f" d="M128,108.22l-1.15-2.89s1.95-2.07,2,1.12A2.27,2.27,0,0,1,128,108.22Z"></path><path class="bf497f8b-5e15-4141-866e-7b04b27b3991" d="M129.33,113.6a3.11,3.11,0,0,1-2.71-3.47,3.24,3.24,0,0,1,.27-1,3.23,3.23,0,0,0-1.12,2.09,3.07,3.07,0,0,0,5.85,1.67A3,3,0,0,1,129.33,113.6Z"></path><path class="bf497f8b-5e15-4141-866e-7b04b27b3991" d="M128.65,108.58a.69.69,0,0,0,0-.13,2.9,2.9,0,0,0-1.12.29,3,3,0,0,0-.2.8,3.12,3.12,0,0,0,2.71,3.47,3,3,0,0,0,1.63-.28,2.55,2.55,0,0,0,.18-.67,2.9,2.9,0,0,1-.51,0A3.11,3.11,0,0,1,128.65,108.58Z"></path><path class="bd6ae2ba-c91f-406c-a00c-b11be7f05080" d="M135.33,106.68a.09.09,0,0,0-.09.08,3,3,0,0,0-2.4,1.09,1.8,1.8,0,0,0-1.16-.78c.38-.91,1.93-1.25,2.27-1.3a.09.09,0,0,0,.09.08.09.09,0,1,0-.09-.09,3,3,0,0,0-2.54,1.27,1.9,1.9,0,0,0-2,1.68A1.91,1.91,0,1,0,133,108a3.84,3.84,0,0,1,2.29-1.26.09.09,0,1,0,.09-.09Z"></path><circle class="f2e99ad5-8544-4c86-9d43-2cea9ec47a7e" cx="130.94" cy="107.95" r="0.34"></circle><circle class="f1d30a94-e4d7-4a07-8cbb-d1dea38f352b" cx="195.78" cy="139.86" r="2.07"></circle></g></g></svg>