<svg xmlns="http://www.w3.org/2000/svg" viewBox="0 0 62.46 59.77"><defs><style>.clafev-1{fill:#fcd0ad;}.clafev-2{fill:#fbbc8d;}.clafev-3{fill:#323232;}</style></defs><g id="Layer_2" data-name="Layer 2"><g id="Layer_1-2" data-name="Layer 1"><rect class="clafev-1" x="3.72" y="8.2" width="47.85" height="47.85" rx="5.27" transform="translate(7.93 -5.4) rotate(13)"></rect><rect class="clafev-2" x="10.88" y="3.72" width="47.85" height="47.85" rx="5.27" transform="translate(7.11 -7.12) rotate(13)"></rect><path class="clafev-3" d="M23.12,41.92q-4.23,3.73-6.63,3.74a3.37,3.37,0,0,1-3.33-2.48,4.39,4.39,0,0,1-.34-1.61,12.27,12.27,0,0,1,.63-3.91c.42-1.26.84-2.43,1.25-3.53l2.73-7a49.51,49.51,0,0,0,1.92-6,3.19,3.19,0,0,0-.09-2.31,5.3,5.3,0,0,0-1-1.05q-.57-.45-1.08-.81a1.06,1.06,0,0,1-.51-.9,1.52,1.52,0,0,1,.45-1,4,4,0,0,1,1.19-.87,7,7,0,0,1,3.08-.71,7.69,7.69,0,0,1,2.51.32,4.84,4.84,0,0,1,1.5.82A3.17,3.17,0,0,1,26.54,17a12.64,12.64,0,0,1-.48,3.23c-.32,1.2-.72,2.47-1.21,3.81s-1,2.74-1.63,4.19l-1.7,4.27a44.49,44.49,0,0,0-2.45,7.75q2.91-1,7.72-7.13A79.48,79.48,0,0,0,36.05,17.8a2.51,2.51,0,0,1,1.15-1.39A6,6,0,0,1,40,16c1.79.06,2.72.62,2.78,1.67a4.14,4.14,0,0,1-.51,2.12l-.94,1.94-1.21,2.48q-3.63,7.34-3.63,11.92,0,3.2,1.74,4.37a2.52,2.52,0,0,0,1.52.37,5.4,5.4,0,0,0,2.41-.72,11.36,11.36,0,0,0,2.67-2,18.3,18.3,0,0,0,2.37-3,22.52,22.52,0,0,0,1.9-3.61,18.89,18.89,0,0,0,1.71-7.19q0-5.35-2-7.9c-.45-.54-.32-1.16.41-1.89a4.91,4.91,0,0,1,3.59-1.14c2,0,3.37,1.12,4.09,3.37a12.58,12.58,0,0,1,.43,3.81,20.91,20.91,0,0,1-.89,5.66,30.41,30.41,0,0,1-2.44,6,34.05,34.05,0,0,1-3.53,5.34,30.21,30.21,0,0,1-4.2,4.31q-4.71,3.9-8.73,3.9-6.91,0-6.91-8.92a21.11,21.11,0,0,1,.37-4A49,49,0,0,1,23.12,41.92Z"></path></g></g></svg>