<svg xmlns="http://www.w3.org/2000/svg" xmlns:xlink="http://www.w3.org/1999/xlink" viewBox="0 0 589.18 461.43"><defs><style>.clsgdgn-1{isolation:isolate;}.clsgdgn-2,.clsgdgn-3{fill:#e8e8e8;}.clsgdgn-3{opacity:0.5;}.clsgdgn-4{fill:#999b9e;}.clsgdgn-5{fill:#433048;}.clsgdgn-6{fill:#fdd93b;}.clsgdgn-7{fill:#52416d;}.clsgdgn-11,.clsgdgn-8{fill:#331e38;}.clsgdgn-12,.clsgdgn-24,.clsgdgn-39,.clsgdgn-8{mix-blend-mode:multiply;opacity:0.2;}.clsgdgn-28,.clsgdgn-9{fill:#a1bcce;}.clsgdgn-47,.clsgdgn-48,.clsgdgn-9{opacity:0.4;}.clsgdgn-10{fill:#d0e9ea;}.clsgdgn-12{fill:#df1d39;}.clsgdgn-13{fill:#ffef00;}.clsgdgn-14{fill:#00aeef;}.clsgdgn-15{fill:#3d9bd6;}.clsgdgn-16{fill:#54c2bc;}.clsgdgn-17{fill:#eb008c;}.clsgdgn-18{fill:#d0d0da;}.clsgdgn-19{fill:#66b8e7;}.clsgdgn-20{fill:#ed3b86;}.clsgdgn-21{fill:#00c796;}.clsgdgn-22{fill:#00a696;}.clsgdgn-23{fill:#00aae4;}.clsgdgn-24{fill:#230e2d;}.clsgdgn-25,.clsgdgn-47{fill:#fff;}.clsgdgn-26{fill:#daebf9;}.clsgdgn-27{fill:#c5d3df;}.clsgdgn-29{fill:#605fa9;}.clsgdgn-30{fill:#4a52a2;}.clsgdgn-31{fill:#4e3b93;}.clsgdgn-32{fill:#3f2d79;}.clsgdgn-33{fill:#4ba7ba;}.clsgdgn-34{fill:#338bb8;}.clsgdgn-35{fill:#32709f;}.clsgdgn-36{fill:#dc3481;}.clsgdgn-37{fill:#b02c71;}.clsgdgn-38{fill:#832760;}.clsgdgn-39{fill:#521e38;}.clsgdgn-40{fill:#5f94ce;}.clsgdgn-41{fill:#6b6c6f;}.clsgdgn-42{fill:#bcbdc6;}.clsgdgn-43{fill:aqua;}.clsgdgn-44{fill:#eae4e5;}.clsgdgn-45{fill:#181e3c;}.clsgdgn-46{fill:url(#linear-gradient);}.clsgdgn-48{mix-blend-mode:darken;}.clsgdgn-49{fill:#d0d2d3;}.clsgdgn-50{fill:#00d000;}.clsgdgn-51{fill:none;stroke:aqua;stroke-miterlimit:10;stroke-width:0.5px;}</style><linearGradient id="linear-gradient" x1="275.92" y1="33.46" x2="309.99" y2="33.46" gradientUnits="userSpaceOnUse"><stop offset="0" stop-color="#f89420"></stop><stop offset="1" stop-color="#f04f36"></stop></linearGradient></defs><g class="clsgdgn-1"><g id="Layer_2" data-name="Layer 2"><g id="Layer_1-2" data-name="Layer 1"><path class="clsgdgn-2" d="M525.43,105.81c-16.51-33.27-73.66-10.49-73.66-10.49s-28.07,69.53-39.5,73.33,12.39-64.14,12.39-64.14c-23.15,2.31-75.49,41.65-75.49,41.65s17.93,71.06,5.92,71.92-12.66-63.73-12.66-63.73c-20.67,11-36.09,40.67-36.09,40.67-17.34,46.85,43.71,66.7,43.71,66.7s5.68,24.76-4,56.39h0a86.58,86.58,0,0,0-4.17,15.63l6-1.19c.17-1.7.4-3.36.7-5,0,0,0,0,0,0v-.07c.23-1,.56-2.45,1-4.2h0c1.12-3.95,1.83-6.84,2.23-8.91v0C355,302,360,285.78,364.67,281.66a11.79,11.79,0,0,1-1.83-2.49c.59.79,1.19,1.62,1.83,2.49,14.62,19.94,66.63,13.42,94,1.88s13.35-17.12-4.63-27.14S404.54,256.23,394,253s2.36-11.13,21.7-13.45,32.64,14.84,64,11.66S523,185.49,523,185.49c-19.93,10.81-60.35,6.66-63.27-.38s53.63-17.5,62-21.45S541.94,139.08,525.43,105.81Z"></path><path class="clsgdgn-2" d="M.39,304.77c-5-27.21,39.24-39.13,39.24-39.13s47.77,28.94,56.27,26.1S59.9,259,59.9,259c14.83-8.95,63.59-8.85,63.59-8.85s21,50.37,28.57,45.52S131.17,252,131.17,252c17.21-2.69,39.67,8.15,39.67,8.15,31.24,20.19,3.7,59.28,3.7,59.28s7.66,17.29,27.56,31.82h0a64.24,64.24,0,0,1,9.46,7.46l-4.1,2c-.87-.94-1.75-1.83-2.64-2.65l0,0,0,0c-.58-.5-1.42-1.21-2.45-2.07h0c-2.43-1.85-4.14-3.26-5.3-4.31h0c-7.45-5.91-17.66-13.35-22.28-13.73a8.77,8.77,0,0,0,0-2.3c0,.73,0,1.5,0,2.3.18,18.41-33.74,37.73-55.23,43.08s-15.6-4.25-9.35-18.25,29.46-22.2,34.3-28.84-6.37-5.58-18.94,1.67S112.66,359,92.55,371s-55.14-19.86-55.14-19.86c16.71-2.44,39-23,37.56-28.46s-39.79,13.5-46.53,14.87S5.4,332,.39,304.77Z"></path><path class="clsgdgn-2" d="M576.6,445.14c30.94-24.25-4.93-78.6-4.93-78.6s-78.1-14.16-84.48-25.19,69.13-.93,69.13-.93C549,316.93,497,271.12,497,271.12S427.15,305,423.68,292.69,487,265.89,487,265.89c-15.8-19.07-49.9-28.67-49.9-28.67-52.28-7.92-59.75,59.62-59.75,59.62s-24.44,11.2-59.31,7.92h0a91.23,91.23,0,0,0-17.09-1l2.52,5.95c1.8-.19,3.57-.31,5.3-.34,0,0,0,0,0,0h.08c1.09,0,2.65,0,4.55.11h0c4.33.31,7.48.42,9.71.4h0c13.48.72,31.37,2.41,36.64,6.35a12.67,12.67,0,0,1,2.19-2.43l-2.19,2.43c-17.53,19.43.4,71.93,18.24,97.86s20.61,10.16,27.13-10.63-10.45-51.37-9.36-63,12,.06,18.6,19.6-8.37,37,1.65,68.83,77.4,30.76,77.4,30.76C478,441.37,473.64,398.58,480.31,394s29.65,51.83,35.53,59.64S545.67,469.39,576.6,445.14Z"></path><path class="clsgdgn-3" d="M299.58,172.53s5-99.33,51.4-161.6c6.17-8.28,19.36-4.19,19.85,6.12,0,.18,0,.35,0,.53C371.41,35.19,320,113.22,299.58,172.53Z"></path><path class="clsgdgn-3" d="M295.38,201.15s41.82-126.6,124-187a11.7,11.7,0,0,1,16.05,1.91c2.52,3.17,3.9,8.3,1.9,16.6C432,54.81,341.17,134.31,295.38,201.15Z"></path><path class="clsgdgn-3" d="M170.66,169.13S129,96.44,70.32,67.41c-7.79-3.86-16.13,4.24-12.56,12.18l.18.4C64.25,93.43,132.67,132.39,170.66,169.13Z"></path><path class="clsgdgn-3" d="M184.74,189S105,109.92,20.2,96a9.86,9.86,0,0,0-11.33,7.56c-.68,3.34.24,7.73,4.91,13.19C26.26,131.3,124.83,156.32,184.74,189Z"></path><rect class="clsgdgn-4" x="297.96" y="100.86" width="68.24" height="92.69" transform="translate(-19.53 56) rotate(-9.36)"></rect><rect class="clsgdgn-5" x="348.81" y="97.48" width="7.44" height="92.69" transform="translate(-18.71 59.28) rotate(-9.37)"></rect><rect class="clsgdgn-6" x="305.08" y="118.25" width="35.89" height="19.66" rx="3.64" transform="translate(-16.54 54.27) rotate(-9.36)"></rect><path class="clsgdgn-7" d="M529.66,121.53a6,6,0,1,1-5.42-6.45A6,6,0,0,1,529.66,121.53Z"></path><rect class="clsgdgn-7" x="432.22" y="108.78" width="100.2" height="69.17" rx="8.24" transform="translate(82.76 -162.47) rotate(20.88)"></rect><path class="clsgdgn-8" d="M438.19,143.35h0a4,4,0,0,1-2.31-5.16l10.6-27.8a4,4,0,0,1,5.15-2.3h0a4,4,0,0,1,2.31,5.15L443.34,141A4,4,0,0,1,438.19,143.35Z"></path><path class="clsgdgn-8" d="M515.55,172.85h0a4,4,0,0,1-2.31-5.15l10.61-27.8a4,4,0,0,1,5.15-2.31h0a4,4,0,0,1,2.3,5.15l-10.6,27.81A4,4,0,0,1,515.55,172.85Z"></path><rect class="clsgdgn-9" x="453.56" y="113.76" width="60.93" height="50.95" rx="3.6" transform="translate(81.4 -163.35) rotate(20.88)"></rect><rect class="clsgdgn-4" x="490.14" y="177.38" width="8" height="2.5" transform="translate(96.1 -164.37) rotate(20.88)"></rect><path class="clsgdgn-7" d="M425.81,284.27c-1.69,0-3.42,0-5.18-.08-22-.7-43.74-5.24-64.79-9.62l.41-2c21,4.37,42.64,8.88,64.44,9.58,14.6.47,26.48-1,36.32-4.52,12.18-4.35,21.38-12.1,25.26-21.27,2-4.76,2.66-10,3.28-15.07a66,66,0,0,1,2.72-13.77c4.14-11.84,15.35-22.24,31.58-29.29,2.24-1,4.56-1.89,6.81-2.77,6.08-2.39,12.36-4.86,17.36-8.67,12.93-9.84,15-26.68,14.43-39.07-.32-7.27-1.49-16.51-7.73-23.47-5.59-6.24-16.8-10-24.59-5.55l-1-1.74c8.63-4.88,21-.86,27.07,6,6.66,7.44,7.9,17.12,8.24,24.72.58,12.87-1.6,30.39-15.21,40.75-5.23,4-11.64,6.5-17.85,8.94-2.23.88-4.54,1.79-6.75,2.74-15.7,6.83-26.53,16.81-30.48,28.12a64,64,0,0,0-2.62,13.36c-.65,5.2-1.31,10.59-3.43,15.6-4.1,9.68-13.73,17.84-26.43,22.37C448.8,282.72,438.34,284.27,425.81,284.27Z"></path><path class="clsgdgn-10" d="M82.42,154.06c1.34,15.09,9.26,30.16,22.65,37.25,7.67,4.06,16.57,5.29,25.24,5,17.78-.53,37-8.86,43.46-25.42,2.45-6.27,2.87-13.12,4.31-19.7A64.81,64.81,0,0,1,193.92,121c3.56-3.83,7.69-7.36,9.82-12.14,3.52-7.91.48-17.63-5.57-23.84s-14.53-9.43-23-11.34c-20.05-4.54-46.29-1.79-63.59,10.41C91.7,98.11,80.34,130.61,82.42,154.06Z"></path><path class="clsgdgn-11" d="M181.18,111.52c4,1.87,9.14.12,11.57-3.54,4.67-7-1.39-20.31-10.72-16.32C174.45,94.9,173.42,107.85,181.18,111.52Z"></path><path class="clsgdgn-12" d="M100.18,171.58a12.83,12.83,0,0,0,6.45-.14,4.84,4.84,0,0,0,2-.77A4.91,4.91,0,0,0,110,168.6a11.79,11.79,0,0,0,1.24-5.83,8.74,8.74,0,0,0-3.68-6c-2.22-1.62-6-2.51-8.58-1.3s-4.15,5-4.1,7.77C94.93,166.48,97,170.61,100.18,171.58Z"></path><path class="clsgdgn-13" d="M98.9,169.72a13.06,13.06,0,0,0,6.45-.14,5.14,5.14,0,0,0,2-.77,4.91,4.91,0,0,0,1.38-2.07,11.81,11.81,0,0,0,1.24-5.83,8.73,8.73,0,0,0-3.67-5.95c-2.23-1.63-6-2.51-8.59-1.31s-4.14,5-4.1,7.77C93.65,164.62,95.69,168.74,98.9,169.72Z"></path><path class="clsgdgn-12" d="M95.24,141.16a7.24,7.24,0,0,0,5.41,2.71,8.06,8.06,0,0,0,5.69-2.15,8.44,8.44,0,0,0,2.3-8.75,7.91,7.91,0,0,0-7.28-5.25C94.85,127.76,91.39,136.2,95.24,141.16Z"></path><path class="clsgdgn-14" d="M94.35,139.13a7.27,7.27,0,0,0,5.41,2.72,8.15,8.15,0,0,0,5.7-2.15,8.45,8.45,0,0,0,2.29-8.76,7.88,7.88,0,0,0-7.28-5.24C94,125.74,90.51,134.18,94.35,139.13Z"></path><path class="clsgdgn-12" d="M124.37,93a7.26,7.26,0,0,0,3.17,6.58,8.3,8.3,0,0,0,12.55-5.15,7.44,7.44,0,0,0-2.65-7.34C132.82,83.58,125,87.32,124.37,93Z"></path><path class="clsgdgn-15" d="M124.1,90.76a7.25,7.25,0,0,0,3.17,6.58,8.21,8.21,0,0,0,7.35.78,8.32,8.32,0,0,0,5.2-5.93,7.46,7.46,0,0,0-2.65-7.34C132.55,81.34,124.68,85.07,124.1,90.76Z"></path><path class="clsgdgn-12" d="M151.15,92.55a7.77,7.77,0,0,0,8.09-.3,7.33,7.33,0,0,0,2.95-7.48c-1.18-5.06-7.29-6.5-11.44-4C146.18,83.41,146.77,90.05,151.15,92.55Z"></path><path class="clsgdgn-16" d="M150.78,90.77a7.81,7.81,0,0,0,8.1-.29,7.35,7.35,0,0,0,3-7.48c-1.18-5.07-7.29-6.51-11.45-4.06C145.82,81.63,146.4,88.27,150.78,90.77Z"></path><path class="clsgdgn-12" d="M107.14,116.46a7.79,7.79,0,0,0,8.09-.29,7.31,7.31,0,0,0,3-7.48c-1.17-5.07-7.29-6.51-11.44-4.06C102.17,107.32,102.76,114,107.14,116.46Z"></path><path class="clsgdgn-17" d="M107.17,114.19a7.81,7.81,0,0,0,8.1-.29,7.35,7.35,0,0,0,3-7.48c-1.18-5.07-7.29-6.51-11.45-4.06C102.21,105.05,102.8,111.69,107.17,114.19Z"></path><path class="clsgdgn-12" d="M118.84,145.4c-.5,5.51-.09,11-.32,16.57-.12,2.87-.41,5.78.28,8.57a13.75,13.75,0,0,0,11.93,9.92,15.85,15.85,0,0,0,14.14-7c1.86-2.76,2.87-6,4.23-9A40.85,40.85,0,0,1,157.8,152c2.62-2.56,5.61-4.81,7.65-7.85a23.88,23.88,0,0,0,3.42-9.72c1.61-10.4-1.6-28.71-14.5-30.82-11.24-1.85-23.53,12.54-28.58,20.94A49.65,49.65,0,0,0,118.84,145.4Z"></path><path class="clsgdgn-4" d="M136.37,287.29c-1.4,10.44-4.92,39.31-4.92,39.31H119.89l8.87-41.45a9.51,9.51,0,0,1,4.72-.33A4,4,0,0,1,136.37,287.29Z"></path><path class="clsgdgn-8" d="M136.37,287.29c-1.4,10.44-4.92,39.31-4.92,39.31h-4.27l6.3-41.78A4,4,0,0,1,136.37,287.29Z"></path><polygon class="clsgdgn-18" points="136.37 287.3 128.76 285.15 133.79 277.06 135.69 273.99 135.88 277.64 136.37 287.3"></polygon><polygon class="clsgdgn-4" points="135.88 277.64 133.79 277.06 135.69 273.99 135.88 277.64"></polygon><path class="clsgdgn-19" d="M101.23,296.94c2,10.34,7.83,38.84,7.83,38.84l-11,3.67-4.76-42.12a9.47,9.47,0,0,1,4.37-1.81A4,4,0,0,1,101.23,296.94Z"></path><path class="clsgdgn-8" d="M101.23,296.94c2,10.34,7.83,38.84,7.83,38.84l-4,1.35-7.3-41.61A4,4,0,0,1,101.23,296.94Z"></path><polygon class="clsgdgn-18" points="101.23 296.94 93.33 297.33 95.53 288.06 96.36 284.53 97.7 287.95 101.23 296.94"></polygon><polygon class="clsgdgn-19" points="97.7 287.95 95.53 288.06 96.36 284.53 97.7 287.95"></polygon><path class="clsgdgn-20" d="M115.76,283.71c3.52,12.92,13.67,48.49,13.67,48.49l-13.54,5.72-10.11-53a12.21,12.21,0,0,1,5.37-2.72A5,5,0,0,1,115.76,283.71Z"></path><path class="clsgdgn-8" d="M115.76,283.71c3.52,12.92,13.67,48.49,13.67,48.49l-5,2.11-13.28-52.07A5,5,0,0,1,115.76,283.71Z"></path><polygon class="clsgdgn-18" points="115.76 283.71 105.78 284.96 107.68 273 108.39 268.44 110.41 272.64 115.76 283.71"></polygon><polygon class="clsgdgn-20" points="110.41 272.64 107.68 273 108.39 268.44 110.41 272.64"></polygon><path class="clsgdgn-4" d="M99.81,342.71s-8.41-13.87-21.14-5.91-1.59,48.78,25.91,36.32c-.68-4.95,0-7.23,0-7.23s-11.82,8.19-22-3.18,1.82-28.41,15-15"></path><path class="clsgdgn-21" d="M93.27,325.61l10,62.78h38.58l6.54-68.26S117.88,313,93.27,325.61Z"></path><path class="clsgdgn-22" d="M143.45,337.93l-3,33.42H113.22l-3-32.73S128.9,331.19,143.45,337.93Z"></path><rect class="clsgdgn-15" x="260.96" y="337.79" width="54.12" height="44.53"></rect><path class="clsgdgn-23" d="M421.31,181.47V332.9a19.1,19.1,0,0,1-16.89,19,17.85,17.85,0,0,1-2.21.13H173.83a19.11,19.11,0,0,1-19.1-19.11V181.47a19.11,19.11,0,0,1,19.1-19.11H402.21A19.11,19.11,0,0,1,421.31,181.47Z"></path><circle class="clsgdgn-24" cx="288.02" cy="329.33" r="11.85"></circle><circle class="clsgdgn-18" cx="288.02" cy="329.33" r="4.77"></circle><path class="clsgdgn-8" d="M404.42,351.88a17.85,17.85,0,0,1-2.21.13H387.9l12.24-26.41Z"></path><rect class="clsgdgn-25" x="161.27" y="167.17" width="253.5" height="143.55" rx="13.82"></rect><path class="clsgdgn-19" d="M357.08,385.52H219a10,10,0,0,1,10-10H347.09a10,10,0,0,1,10,10Z"></path><rect class="clsgdgn-24" x="260.96" y="352.01" width="54.12" height="6.24"></rect><polygon class="clsgdgn-26" points="371.07 211.84 365.26 232.89 353.9 274.12 325.43 266.27 301.15 259.57 318.33 197.29 371.07 211.84"></polygon><polygon class="clsgdgn-8" points="318.27 225.76 317.65 228.52 339.24 234.62 339.88 231.76 318.27 225.76"></polygon><polygon class="clsgdgn-8" points="316.56 231.94 315.94 234.7 337.53 240.8 338.17 237.94 316.56 231.94"></polygon><polygon class="clsgdgn-8" points="314.85 238.11 314.23 240.87 335.81 246.97 336.46 244.11 314.85 238.11"></polygon><polygon class="clsgdgn-8" points="313.13 244.29 312.51 247.05 334.1 253.15 334.75 250.29 313.13 244.29"></polygon><polygon class="clsgdgn-8" points="311.42 250.47 310.8 253.23 332.39 259.33 333.03 256.47 311.42 250.47"></polygon><polygon class="clsgdgn-6" points="357.97 232.61 318.98 221.86 323.66 206.69 361.67 217.18 357.97 232.61"></polygon><polygon class="clsgdgn-8" points="365.26 232.89 353.9 274.12 325.43 266.27 329.72 231.19 365.26 232.89"></polygon><rect class="clsgdgn-26" x="333.76" y="236.55" width="54.72" height="64.61" transform="translate(5.52 -7.26) rotate(1.16)"></rect><polygon class="clsgdgn-19" points="381.19 259.95 341.77 259.15 341.91 243.8 381.33 244.6 381.19 259.95"></polygon><polygon class="clsgdgn-8" points="341.58 263 364.08 263.24 364.24 267.22 341.55 266.45 341.58 263"></polygon><polygon class="clsgdgn-8" points="341.9 270.12 364.41 270.35 364.56 274.33 341.88 273.56 341.9 270.12"></polygon><polygon class="clsgdgn-8" points="342.23 277.23 364.73 277.46 364.89 281.45 342.21 280.68 342.23 277.23"></polygon><polygon class="clsgdgn-8" points="369.67 290.99 380.77 291.29 380.93 295.27 369.64 294.43 369.67 290.99"></polygon><rect class="clsgdgn-26" x="260.41" y="220.01" width="54.72" height="64.61" transform="translate(-46.27 65.52) rotate(-12.03)"></rect><polygon class="clsgdgn-20" points="305.71 241.08 267.15 249.29 263.35 232.3 301.91 224.08 305.71 241.08"></polygon><polygon class="clsgdgn-8" points="284.53 250.16 306.54 245.44 307.56 249.29 285.26 253.52 284.53 250.16"></polygon><polygon class="clsgdgn-8" points="286.41 257.02 308.42 252.31 309.44 256.16 287.14 260.39 286.41 257.02"></polygon><polygon class="clsgdgn-8" points="288.29 263.89 310.3 259.18 311.32 263.03 289.02 267.26 288.29 263.89"></polygon><polygon class="clsgdgn-8" points="290.17 270.76 312.18 266.05 313.2 269.9 290.9 274.13 290.17 270.76"></polygon><rect class="clsgdgn-27" x="169.13" y="224.47" width="7.54" height="75.37"></rect><rect class="clsgdgn-28" x="170.78" y="226.39" width="4.22" height="4.23"></rect><rect class="clsgdgn-28" x="170.78" y="233.05" width="4.22" height="4.23"></rect><rect class="clsgdgn-28" x="170.78" y="239.7" width="4.22" height="4.22"></rect><rect class="clsgdgn-28" x="170.78" y="246.36" width="4.22" height="4.22"></rect><rect class="clsgdgn-28" x="170.78" y="253.02" width="4.22" height="4.23"></rect><rect class="clsgdgn-28" x="170.78" y="259.67" width="4.22" height="4.22"></rect><rect class="clsgdgn-28" x="170.78" y="266.33" width="4.22" height="4.23"></rect><rect class="clsgdgn-28" x="170.78" y="272.99" width="4.22" height="4.22"></rect><rect class="clsgdgn-28" x="170.78" y="279.64" width="4.22" height="4.23"></rect><path class="clsgdgn-28" d="M175,288.41a2.11,2.11,0,1,0-2.11,2.11A2.11,2.11,0,0,0,175,288.41Z"></path><circle class="clsgdgn-28" cx="172.89" cy="295.07" r="2.11"></circle><path class="clsgdgn-20" d="M376.16,195.84s-7.38-12.87-17.28-5.3C346,200.37,374,220,374,220s28.11-13.51,20.87-25.77C389.3,184.84,376.16,195.84,376.16,195.84Z"></path><path class="clsgdgn-11" d="M361.07,189.72a1.46,1.46,0,1,0-1.27,1.62A1.46,1.46,0,0,0,361.07,189.72Z"></path><rect class="clsgdgn-11" x="341.89" y="189.52" width="34.61" height="0.83" transform="translate(-45.18 229.67) rotate(-33.48)"></rect><path class="clsgdgn-11" d="M346.09,199.31a1.34,1.34,0,1,0-1.16,1.49A1.34,1.34,0,0,0,346.09,199.31Z"></path><path class="clsgdgn-11" d="M375.45,180.16a1.34,1.34,0,0,0-2.65.33,1.34,1.34,0,0,0,2.65-.33Z"></path><polygon class="clsgdgn-6" points="360.68 324.56 400.14 325.61 400.14 362.35 357.07 360.05 360.68 324.56"></polygon><path class="clsgdgn-11" d="M374.62,336.72a1.84,1.84,0,0,0,.41-.55,1.74,1.74,0,0,0-.22-1.74c-1.12-1.53-3.92-1.15-4,.93S373.32,338,374.62,336.72Z"></path><path class="clsgdgn-11" d="M388.3,337.14a1.92,1.92,0,0,0,.42-.56,1.76,1.76,0,0,0-.22-1.74c-1.12-1.53-3.93-1.14-4,.93S387,338.37,388.3,337.14Z"></path><path class="clsgdgn-11" d="M379.45,345.62A16.86,16.86,0,0,1,367,340a.51.51,0,0,1,0-.71.51.51,0,0,1,.71,0,15.65,15.65,0,0,0,23.77-.38.52.52,0,0,1,.71-.07.51.51,0,0,1,.06.71,16.83,16.83,0,0,1-12.55,6Z"></path><rect class="clsgdgn-7" x="188.91" y="299.84" width="7.64" height="73.61" rx="3.07"></rect><polygon class="clsgdgn-6" points="209.24 383.77 175.33 383.77 181.28 371.02 182.54 368.32 203.35 368.32 206 375.26 209.24 383.77"></polygon><rect class="clsgdgn-28" x="192.74" y="312.64" width="2.17" height="13.91" rx="0.87"></rect><rect class="clsgdgn-27" x="188.91" y="330.77" width="7.64" height="3.42"></rect><path class="clsgdgn-8" d="M209.23,383.77h-33.9L181.28,371a22.06,22.06,0,0,0,6.68,4.72c4.51,1.9,9.69,1.49,14.48.42,1.2-.26,2.38-.57,3.56-.9Z"></path><polygon class="clsgdgn-27" points="429.18 274.99 493.34 389.29 458.19 397.6 394.5 291.1 429.18 274.99"></polygon><polygon class="clsgdgn-29" points="399.81 293.22 408.87 308.41 436.32 296.48 427.58 279.96 399.81 293.22"></polygon><polygon class="clsgdgn-30" points="413.9 314.69 423.47 331.83 448.3 318.98 439.61 302.51 413.9 314.69"></polygon><polygon class="clsgdgn-31" points="427.71 338.78 437.21 355.64 461.73 342.18 452.46 326.01 427.71 338.78"></polygon><polygon class="clsgdgn-32" points="440.98 362.16 450.88 380.14 475.4 366.68 465.19 349 440.98 362.16"></polygon><polygon class="clsgdgn-27" points="446.97 265.92 494.81 387.94 458.85 391.35 410.41 277.11 446.97 265.92"></polygon><polygon class="clsgdgn-16" points="415.37 279.94 422.26 296.23 451.09 288.18 444.71 270.62 415.37 279.94"></polygon><polygon class="clsgdgn-33" points="426.38 303.13 433.5 321.43 459.86 312.12 453.52 294.61 426.38 303.13"></polygon><polygon class="clsgdgn-34" points="436.75 328.89 443.84 346.9 469.98 336.94 463.02 319.65 436.75 328.89"></polygon><polygon class="clsgdgn-35" points="446.68 353.88 454.01 373.05 480.14 363.09 472.47 344.18 446.68 353.88"></polygon><polygon class="clsgdgn-26" points="473.78 260.79 495.3 390.08 459.42 385.96 435.69 264.16 473.78 260.79"></polygon><polygon class="clsgdgn-20" points="439.96 267.96 443.33 285.32 473.2 283.42 470.59 264.92 439.96 267.96"></polygon><polygon class="clsgdgn-36" points="445.93 292.93 449.1 312.31 476.82 308.65 474.24 290.21 445.93 292.93"></polygon><polygon class="clsgdgn-37" points="450.74 320.28 453.94 339.37 481.58 335.03 478.35 316.68 450.74 320.28"></polygon><polygon class="clsgdgn-38" points="455.27 346.79 458.47 367.06 486.11 362.72 482.52 342.63 455.27 346.79"></polygon><path class="clsgdgn-11" d="M463,375.16a2.62,2.62,0,1,0,2.9-2.3A2.61,2.61,0,0,0,463,375.16Z"></path><path class="clsgdgn-4" d="M236.61,87.85a11.84,11.84,0,0,1,3.6-3.62c3.87-2.64,8.55-3.86,12.53-6.34,1.09-.68,2.13-1.45,3.28-2a2.42,2.42,0,0,1,2.6-.13,2,2,0,0,1,.59,1.13,7.38,7.38,0,0,1,0,2.48,36.87,36.87,0,0,1-2.75,9.76C255,92.35,253,95.5,250,97.45a12.64,12.64,0,0,1-9.27,1.73c-1.25-.24-2.73-.59-3.53-1.67a10.21,10.21,0,0,1-1.59-4.16A8.3,8.3,0,0,1,236.61,87.85Z"></path><path class="clsgdgn-12" d="M237.86,97.14a25.06,25.06,0,0,1,1.6-8.29,1.46,1.46,0,0,1,.51-.77,1,1,0,0,1,1.39.57,2.71,2.71,0,0,1,0,1.69,23.56,23.56,0,0,1-.92,3.18,27.32,27.32,0,0,1,3.15-3.39c.6-.55,1.43-1.1,2.17-.74a17,17,0,0,1-2.8,4.26c1.41-1.19,3-2.43,4.79-2.57.46,0,1.06.11,1.11.57a1,1,0,0,1-.13.53,11.28,11.28,0,0,1-4.43,4.8c-1.69,1-3.64,1.53-5.24,2.67"></path><path class="clsgdgn-20" d="M214.12,150c-1.29-.7.31-7.34.48-8.46a85.42,85.42,0,0,1,6.59-22.57,84.09,84.09,0,0,1,6.42-11.7c2.41-3.7,5.24-7.29,9-9.57.22-.14.44-.27.67-.39.6-.32,1.43-.59,1.89-.08a1.41,1.41,0,0,1,.31.73,11,11,0,0,1-.82,5.38c-4.72,14-11.7,27.07-18.65,40.09-.16.32-.52,1-1,1.78C217.76,147.41,215.58,150.72,214.12,150Z"></path><path class="clsgdgn-39" d="M214.12,150c-1.29-.7.31-7.34.48-8.46a85.42,85.42,0,0,1,6.59-22.57,84.09,84.09,0,0,1,6.42-11.7c2.41-3.7,5.24-7.29,9-9.57l-.89,1.92c-7.91,12.77-14.81,26.63-16.38,41.57-.14,1.34-.24,2.67-.3,4C217.76,147.41,215.58,150.72,214.12,150Z"></path><path class="clsgdgn-19" d="M233.3,98.72a1.75,1.75,0,0,0-.52,1.21,1.85,1.85,0,0,0,.91,1.19,28.52,28.52,0,0,0,3.53,2.2,2.64,2.64,0,0,0,2.3.36,2.69,2.69,0,0,0,1.1-1.59l.81-2.17a3.48,3.48,0,0,0,.31-1.29c0-1.68-2.55-3.37-4.14-3.23S234.21,97.61,233.3,98.72Z"></path><path class="clsgdgn-18" d="M89,240.19l.54-9.59,3.81-2.23,8.89,5,.28,15.83-3-6.41a1.83,1.83,0,1,0-1.19.47l3.65,6.23Z"></path><path class="clsgdgn-40" d="M58.91,179.28c-.11-1,.1-2.12.9-2.4,1.19-.41,2.59.48,3.91,1.77a39.67,39.67,0,0,1,4.1,5.17c2.5,3.36,4.64,6.94,7,10.39,3.63,5.3,7.49,10.34,10.88,15.83,2.34,3.79,4.56,7.67,6.63,11.6.49.92,1.13,1.94,1.66,3a6.76,6.76,0,0,1,.86,4.39,4.43,4.43,0,0,1-1.23,2l-.32.34a3.6,3.6,0,0,1-2.67,1.25c-1.44-.09-2.79-1.38-3.89-2.65-5.4-6.22-9-14.46-12.87-21.68l-13-24.13A14.36,14.36,0,0,1,58.91,179.28Z"></path><path class="clsgdgn-8" d="M58.91,179.28c-.11-1,.1-2.12.9-2.4,1.19-.41,2.59.48,3.91,1.77.37,3.61,2.12,6.95,3.83,10.17q11.51,21.69,23,43.37l2.72-.81a3.6,3.6,0,0,1-2.67,1.25c-1.44-.09-2.79-1.38-3.89-2.65-5.4-6.22-9-14.46-12.87-21.68l-13-24.13A14.36,14.36,0,0,1,58.91,179.28Z"></path><path class="clsgdgn-19" d="M95.64,227.13a2.48,2.48,0,0,0-1.34.12,18.79,18.79,0,0,0-3.49,1.23,6.49,6.49,0,0,0-2.73,2.43A2.5,2.5,0,0,0,87.7,232a2.84,2.84,0,0,0,.19,1.19,2,2,0,0,0,1,1.3,2.25,2.25,0,0,0,1.86-.34,22.67,22.67,0,0,0,5.05-3.47,2.28,2.28,0,0,0,.92-1.5A1.77,1.77,0,0,0,95.64,227.13Z"></path><path class="clsgdgn-4" d="M514.31,397.29a14.07,14.07,0,0,1-.39,3.27,13.58,13.58,0,0,1-3.57,6.29,13.44,13.44,0,0,1-9.56,4H73.45a13.52,13.52,0,0,1,0-27H500.79A13.52,13.52,0,0,1,514.31,397.29Z"></path><path class="clsgdgn-8" d="M513.92,400.56a13.58,13.58,0,0,1-3.57,6.29,13.44,13.44,0,0,1-9.56,4H73.45a13.51,13.51,0,0,1-13.11-10.25Z"></path><rect class="clsgdgn-41" x="106.88" y="410.81" width="362.27" height="43.88"></rect><rect class="clsgdgn-4" x="106.88" y="410.81" width="362.27" height="13.31"></rect><circle class="clsgdgn-4" cx="288.02" cy="436.16" r="7.6"></circle><rect class="clsgdgn-42" x="471.54" y="211.95" width="3.11" height="17.01" rx="1.56"></rect><path class="clsgdgn-42" d="M464.59,220.45h0a1.55,1.55,0,0,1,1.55-1.55H480a1.56,1.56,0,0,1,1.56,1.55h0A1.56,1.56,0,0,1,480,222h-13.9A1.55,1.55,0,0,1,464.59,220.45Z"></path><rect class="clsgdgn-42" x="65.83" y="50.2" width="3.11" height="17.01" rx="1.56"></rect><path class="clsgdgn-42" d="M58.88,58.7h0a1.56,1.56,0,0,1,1.56-1.55h13.9A1.56,1.56,0,0,1,75.9,58.7h0a1.56,1.56,0,0,1-1.56,1.56H60.44A1.56,1.56,0,0,1,58.88,58.7Z"></path><path class="clsgdgn-42" d="M243,127h0a1.19,1.19,0,0,1-1.2-1.19V115.14A1.2,1.2,0,0,1,243,114h0a1.2,1.2,0,0,1,1.19,1.19v10.67A1.19,1.19,0,0,1,243,127Z"></path><path class="clsgdgn-42" d="M236.46,120.48h0a1.2,1.2,0,0,1,1.19-1.2h10.67a1.19,1.19,0,0,1,1.19,1.2h0a1.19,1.19,0,0,1-1.19,1.19H237.65A1.19,1.19,0,0,1,236.46,120.48Z"></path><rect class="clsgdgn-42" x="471.9" y="39.08" width="2.39" height="13.05" rx="1.19"></rect><path class="clsgdgn-42" d="M466.57,45.6h0a1.19,1.19,0,0,1,1.19-1.19h10.67a1.19,1.19,0,0,1,1.19,1.19h0a1.19,1.19,0,0,1-1.19,1.19H467.76A1.19,1.19,0,0,1,466.57,45.6Z"></path><path class="clsgdgn-42" d="M121.09,229.59h0a1.19,1.19,0,0,1-1.19-1.19V217.73a1.19,1.19,0,0,1,1.19-1.19h0a1.19,1.19,0,0,1,1.19,1.19V228.4A1.19,1.19,0,0,1,121.09,229.59Z"></path><path class="clsgdgn-42" d="M114.57,223.06h0a1.19,1.19,0,0,1,1.19-1.19h10.66a1.2,1.2,0,0,1,1.2,1.19h0a1.2,1.2,0,0,1-1.2,1.2H115.76A1.19,1.19,0,0,1,114.57,223.06Z"></path><path class="clsgdgn-42" d="M291.14,90.2h0a.69.69,0,0,1-.69-.68V83.39a.69.69,0,0,1,.69-.69h0a.68.68,0,0,1,.68.69v6.13A.68.68,0,0,1,291.14,90.2Z"></path><path class="clsgdgn-42" d="M287.39,86.45h0a.69.69,0,0,1,.68-.69h6.13a.69.69,0,0,1,.69.69h0a.69.69,0,0,1-.69.69h-6.13A.69.69,0,0,1,287.39,86.45Z"></path><path class="clsgdgn-42" d="M445.07,26.89h0a.69.69,0,0,1-.68-.69V20.07a.69.69,0,0,1,.68-.68h0a.69.69,0,0,1,.69.68V26.2A.69.69,0,0,1,445.07,26.89Z"></path><path class="clsgdgn-42" d="M441.32,23.14h0a.69.69,0,0,1,.69-.69h6.13a.68.68,0,0,1,.68.69h0a.67.67,0,0,1-.68.68H442A.68.68,0,0,1,441.32,23.14Z"></path><path class="clsgdgn-42" d="M102.82,39.5h0a.69.69,0,0,1-.68-.69V32.68a.69.69,0,0,1,.68-.68h0a.69.69,0,0,1,.69.68v6.13A.69.69,0,0,1,102.82,39.5Z"></path><path class="clsgdgn-42" d="M99.07,35.75h0a.69.69,0,0,1,.69-.69h6.13a.68.68,0,0,1,.68.69h0a.67.67,0,0,1-.68.68H99.76A.68.68,0,0,1,99.07,35.75Z"></path><path class="clsgdgn-43" d="M203.24,276.62l2.14-.65,7.72,9.26-2.43.73L209,283.89l-4.46,1.34-.25,2.66-2.37.71Zm4.31,5.47-2.43-3-.37,3.84Z"></path><path class="clsgdgn-43" d="M213.3,282.64v0c-.53-1.76.56-3,2.47-3.56a6.25,6.25,0,0,1,2.08-.26l0-.14c-.29-.95-1-1.3-2.18-.95a6.12,6.12,0,0,0-2.1,1.11l-1.1-1.58a7.4,7.4,0,0,1,2.94-1.59,3.88,3.88,0,0,1,3,.08A3.7,3.7,0,0,1,220,278l1.41,4.68-2.21.67-.27-.88a3.2,3.2,0,0,1-2.13,1.76A2.61,2.61,0,0,1,213.3,282.64Zm5.1-2.11-.12-.41a3.72,3.72,0,0,0-1.55.14c-1,.29-1.46.87-1.25,1.59v0c.19.62.81.83,1.55.6C218.11,282.16,218.65,281.36,218.4,280.53Z"></path><path class="clsgdgn-43" d="M229.09,285.62l-30.44,9.17-6.18-20.51,30.44-9.17Zm-30.25,8.82,29.9-9-6-20-29.9,9Z"></path><rect class="clsgdgn-43" x="191.85" y="273.68" width="1.61" height="1.61" transform="translate(-70.98 67.24) rotate(-16.76)"></rect><rect class="clsgdgn-43" x="197.83" y="293.53" width="1.61" height="1.61" transform="translate(-76.44 69.79) rotate(-16.76)"></rect><rect class="clsgdgn-43" x="206.87" y="269.16" width="1.61" height="1.61" transform="translate(-69.05 71.39) rotate(-16.77)"></rect><rect class="clsgdgn-43" x="212.85" y="289.01" width="1.61" height="1.61" transform="translate(-74.51 73.95) rotate(-16.77)"></rect><rect class="clsgdgn-43" x="221.89" y="264.63" width="1.61" height="1.61" transform="matrix(0.96, -0.29, 0.29, 0.96, -67.1, 75.51)"></rect><rect class="clsgdgn-43" x="227.87" y="284.48" width="1.61" height="1.61" transform="translate(-72.57 78.09) rotate(-16.77)"></rect><path class="clsgdgn-44" d="M331.83,39.05A39.05,39.05,0,1,0,278,75.18c.3,3.9-.84,8.52-6.57,11.52,0,0,15.58,7.11,21.57-8.61A39,39,0,0,0,331.83,39.05Z"></path><path class="clsgdgn-45" d="M297.19,58.11A4.23,4.23,0,1,1,293,53.88,4.24,4.24,0,0,1,297.19,58.11Z"></path><rect class="clsgdgn-45" x="286.9" y="49.6" width="12.11" height="10.77" rx="0.33"></rect><path class="clsgdgn-25" d="M297.63,54.55a.34.34,0,0,1-.33.34h-8.77a.34.34,0,0,1-.33-.34h0a.33.33,0,0,1,.33-.33h8.77a.33.33,0,0,1,.33.33Z"></path><path class="clsgdgn-25" d="M297.63,56.22a.34.34,0,0,1-.33.34h-8.77a.34.34,0,0,1-.33-.34h0a.33.33,0,0,1,.33-.33h8.77a.33.33,0,0,1,.33.33Z"></path><path class="clsgdgn-25" d="M297.63,57.89a.34.34,0,0,1-.33.34h-8.77a.34.34,0,0,1-.33-.34h0a.33.33,0,0,1,.33-.33h8.77a.33.33,0,0,1,.33.33Z"></path><path class="clsgdgn-46" d="M310,31a17,17,0,1,0-25.16,15v2.28a4.67,4.67,0,0,0,4.67,4.68h6.91a4.67,4.67,0,0,0,4.67-4.68V46A17,17,0,0,0,310,31Z"></path><path class="clsgdgn-47" d="M281,40.8S272.21,25.66,286.05,17C286.05,17,275.9,29.31,281,40.8Z"></path><path class="clsgdgn-25" d="M299.26,33.36a1.67,1.67,0,0,0-1.93-.63c-1.21.46-2.08,2.45-2.41,4a6.69,6.69,0,0,1-.68-.22l-.87-.5a3.33,3.33,0,0,0,.92-2.57c0-1.62-.7-2.84-1.64-2.84S291,31.82,291,33.44a3.28,3.28,0,0,0,1,2.61l-1,.45a4.65,4.65,0,0,1-.69.23c-.33-1.55-1.2-3.54-2.41-4a1.67,1.67,0,0,0-1.93.63,2,2,0,0,0,0,2.63,4.19,4.19,0,0,0,3.78,1.56c0,.13,0,.24,0,.34v15h.72v-15a3.77,3.77,0,0,0,0-.45,4.74,4.74,0,0,0,.86-.27h0l1.44-.68,1.15.67,0,0a5,5,0,0,0,.86.27c0,.16,0,.32,0,.45v15h.72v-15c0-.1,0-.21,0-.34A4.16,4.16,0,0,0,299.29,36,2,2,0,0,0,299.26,33.36Zm-12.73,2.21a1.33,1.33,0,0,1,0-1.72,1.21,1.21,0,0,1,.87-.5.71.71,0,0,1,.27,0c.88.34,1.64,2.08,2,3.44A3.41,3.41,0,0,1,286.53,35.57Zm6.12,0c-.43,0-.91-.91-.91-2.12s.48-2.12.91-2.12.92.9.92,2.12S293.08,35.56,292.65,35.56Zm6.05,0a3.41,3.41,0,0,1-3.06,1.27c.3-1.36,1.07-3.1,1.95-3.44.13,0,.55-.21,1.13.45A1.32,1.32,0,0,1,298.7,35.57Z"></path><g class="clsgdgn-48"><path class="clsgdgn-49" d="M282.83,43.48a17.21,17.21,0,0,1-4.13-3.14,17.3,17.3,0,0,0,4.13,4.36Z"></path><path class="clsgdgn-49" d="M305.2,19.17a17.05,17.05,0,0,1-6.12,24.31v2.28a4.67,4.67,0,0,1-4.68,4.67h-6.9a4.67,4.67,0,0,1-2.43-.67,4.68,4.68,0,0,0,4.43,3.18h6.91a4.67,4.67,0,0,0,4.67-4.68V46a17,17,0,0,0,4.12-26.81Z"></path></g><path class="clsgdgn-50" d="M182.78,205.62V186.78l6.06-.47V200h6.44L194,205.62Z"></path><path class="clsgdgn-50" d="M205.46,186.07a10.66,10.66,0,0,1,3.89.7,9.6,9.6,0,0,1,3.21,2,9,9,0,0,1,2.2,3.21,11,11,0,0,1,.74,4.07,10.69,10.69,0,0,1-.74,4.07,9.15,9.15,0,0,1-2.2,3.23,9.78,9.78,0,0,1-3.23,2,10.59,10.59,0,0,1-3.87.7,10.48,10.48,0,0,1-3.85-.7,9.74,9.74,0,0,1-3.22-2,9.29,9.29,0,0,1-2.2-3.23,11.51,11.51,0,0,1,0-8.12,9.2,9.2,0,0,1,2.2-3.23,9.61,9.61,0,0,1,3.22-2A10.69,10.69,0,0,1,205.46,186.07Zm0,14.38a3.67,3.67,0,0,0,2.87-1.18,5.33,5.33,0,0,0,0-6.38,3.67,3.67,0,0,0-2.87-1.18,3.63,3.63,0,0,0-2.84,1.17,5.36,5.36,0,0,0,0,6.4A3.63,3.63,0,0,0,205.46,200.45Z"></path><path class="clsgdgn-50" d="M233.24,204.44a18.83,18.83,0,0,1-3.44,1.24,13.94,13.94,0,0,1-3.27.41,10.52,10.52,0,0,1-3.85-.7,9.84,9.84,0,0,1-3.22-2,9.29,9.29,0,0,1-2.2-3.23,11.51,11.51,0,0,1,0-8.12,9.2,9.2,0,0,1,2.2-3.23,9.71,9.71,0,0,1,3.22-2,10.73,10.73,0,0,1,3.85-.69,10.61,10.61,0,0,1,3.52.55,9.76,9.76,0,0,1,3,1.7L229.91,193a5.4,5.4,0,0,0-1.59-1,5,5,0,0,0-1.79-.31,3.73,3.73,0,0,0-2.89,1.19,4.48,4.48,0,0,0-1.1,3.17,4.55,4.55,0,0,0,1.1,3.15,3.42,3.42,0,0,0,2.7,1.26,5.13,5.13,0,0,0,.52,0,4.54,4.54,0,0,0,.53-.12v-1.76h-2.81l1.08-4.38h7.58Z"></path><path class="clsgdgn-50" d="M244.8,186.07a10.66,10.66,0,0,1,3.89.7,9.6,9.6,0,0,1,3.21,2,9,9,0,0,1,2.2,3.21,11,11,0,0,1,.74,4.07,10.69,10.69,0,0,1-.74,4.07,9.15,9.15,0,0,1-2.2,3.23,9.78,9.78,0,0,1-3.23,2,10.59,10.59,0,0,1-3.87.7,10.45,10.45,0,0,1-3.85-.7,9.74,9.74,0,0,1-3.22-2,9.15,9.15,0,0,1-2.2-3.23,11.51,11.51,0,0,1,0-8.12,9.07,9.07,0,0,1,2.2-3.23,9.61,9.61,0,0,1,3.22-2A10.65,10.65,0,0,1,244.8,186.07Zm0,14.38a3.67,3.67,0,0,0,2.87-1.18,5.33,5.33,0,0,0,0-6.38,4.07,4.07,0,0,0-5.72,0,5.4,5.4,0,0,0,0,6.4A3.65,3.65,0,0,0,244.8,200.45Z"></path><rect class="clsgdgn-51" x="179.17" y="183.75" width="79.29" height="24.65"></rect><rect class="clsgdgn-43" x="178.21" y="182.79" width="1.93" height="1.93"></rect><rect class="clsgdgn-43" x="178.21" y="207.44" width="1.93" height="1.93"></rect><rect class="clsgdgn-43" x="257.49" y="182.79" width="1.93" height="1.93"></rect><rect class="clsgdgn-43" x="257.49" y="207.44" width="1.93" height="1.93"></rect><rect class="clsgdgn-43" x="217.85" y="182.79" width="1.93" height="1.93"></rect><rect class="clsgdgn-43" x="217.85" y="207.44" width="1.93" height="1.93"></rect></g></g></g></svg>