<svg xmlns="http://www.w3.org/2000/svg" xmlns:xlink="http://www.w3.org/1999/xlink" id="Layer_1" x="0px" y="0px" viewBox="0 0 575.1 112.7" style="enable-background:new 0 0 575.1 112.7;" xml:space="preserve"><style type="text/css">	.st0{opacity:0.6;fill:#FFD076;}	.st1{opacity:0.8;fill:#FFC855;}	.st2{opacity:0.8;fill:#D0DC27;}	.st3{fill:#FEC65F;}	.st4{opacity:0.5;fill:#F27C21;}	.st5{fill:#C9D4EB;}	.st6{opacity:0.9;fill:#B182BA;}	.st7{opacity:0.5;fill:#FFC855;}	.st8{fill:#D3EDF0;}	.st9{opacity:0.9;fill:#D0DC27;}	.st10{fill:#F3D6E6;}	.st11{opacity:0.6;fill:#FBB36F;}	.st12{opacity:0.44;fill:#FBBD99;}</style><path class="st0" d="M201.3,0.3c0,9.8,7.9,17.7,17.7,17.7c9.8,0,17.7-7.9,17.7-17.7H201.3z"></path><path class="st1" d="M170,50.7c-3.2,0-5.8-2.6-5.8-5.8s2.6-5.8,5.8-5.8s5.8,2.6,5.8,5.8S173.3,50.7,170,50.7z M174.5,44.8 c0-2.5-2-4.5-4.5-4.5s-4.5,2-4.5,4.5s2,4.5,4.5,4.5S174.5,47.3,174.5,44.8z"></path><path class="st2" d="M79,43.9c-2,0-3.5-1.6-3.5-3.5c0-2,1.6-3.5,3.5-3.5s3.5,1.6,3.5,3.5C82.5,42.3,80.9,43.9,79,43.9z M81,40.4 c0-1.1-0.9-2-2-2s-2,0.9-2,2s0.9,2,2,2S81,41.5,81,40.4z"></path><circle class="st3" cx="35.9" cy="49.7" r="8.5"></circle><path class="st4" d="M504.3,44.8l1.7-1.7c0.7-0.7,0.7-2,0-2.7c-0.7-0.7-2-0.7-2.7,0l-1.7,1.7l-1.7-1.7c-0.7-0.7-2-0.7-2.7,0 c-0.7,0.7-0.7,2,0,2.7l1.7,1.7l-1.7,1.7c-0.7,0.7-0.7,2,0,2.7c0.7,0.7,2,0.7,2.7,0l1.7-1.7l1.7,1.7c0.7,0.7,2,0.7,2.7,0 c0.7-0.7,0.7-2,0-2.7L504.3,44.8z"></path><path class="st5" d="M75.9,84l1.7-1.7c0.7-0.7,0.7-2,0-2.7c-0.7-0.7-2-0.7-2.7,0l-1.7,1.7l-1.7-1.7c-0.7-0.7-2-0.7-2.7,0 c-0.7,0.7-0.7,2,0,2.7l1.7,1.7l-1.7,1.7c-0.7,0.7-0.7,2,0,2.7c0.7,0.7,2,0.7,2.7,0l1.7-1.7l1.7,1.7c0.7,0.7,2,0.7,2.7,0 c0.7-0.7,0.7-2,0-2.7L75.9,84z"></path><polygon class="st6" points="263.9,24.1 263.9,37.5 269.9,26.7 "></polygon><polygon class="st7" points="127.8,61.8 125.7,74.4 135.5,70.4 "></polygon><polygon class="st8" points="248.8,88.9 237.8,102.1 252.5,94 "></polygon><polygon class="st9" points="285,30.9 271.1,39.6 290.4,44.1 "></polygon><polygon class="st10" points="403.7,26.9 397.6,41.2 407.7,37.9 "></polygon><path class="st11" d="M572.3,47c-12.8,0-23.1,10.4-23.1,23.1c0,12.8,10.4,23.1,23.1,23.1c0.9,0,1.8-0.1,2.6-0.2v-46 C574.1,47,573.2,47,572.3,47z"></path><circle class="st12" cx="453.7" cy="50.8" r="14.3"></circle></svg>