<svg xmlns="http://www.w3.org/2000/svg" xmlns:xlink="http://www.w3.org/1999/xlink" viewBox="0 0 440.89 270.98"><defs><style>.clsdigimar-1{isolation:isolate;}.clsdigimar-2{opacity:0.31;}.clsdigimar-3{fill:#aec6b0;}.clsdigimar-4{fill:url(#linear-gradient);}.clsdigimar-5{fill:#0e0092;opacity:0.18;}.clsdigimar-23,.clsdigimar-26,.clsdigimar-29,.clsdigimar-31,.clsdigimar-33,.clsdigimar-38,.clsdigimar-41,.clsdigimar-43,.clsdigimar-5,.clsdigimar-50{mix-blend-mode:multiply;}.clsdigimar-6{fill:url(#linear-gradient-2);}.clsdigimar-7{fill:#def2fb;}.clsdigimar-8,.clsdigimar-82{fill:#fff;}.clsdigimar-9{fill:url(#linear-gradient-3);}.clsdigimar-10{fill:#43ffd9;}.clsdigimar-11{fill:#ff6570;}.clsdigimar-12,.clsdigimar-14,.clsdigimar-15,.clsdigimar-16{fill:#00d1ff;}.clsdigimar-13{fill:#ffe000;}.clsdigimar-14{opacity:0.75;}.clsdigimar-15,.clsdigimar-50{opacity:0.22;}.clsdigimar-16{opacity:0.48;}.clsdigimar-17{fill:#ffd2d2;}.clsdigimar-18{fill:#ffdede;}.clsdigimar-19{fill:#fccaca;}.clsdigimar-20{fill:#f8b024;}.clsdigimar-21{fill:url(#linear-gradient-4);}.clsdigimar-22,.clsdigimar-25,.clsdigimar-28,.clsdigimar-37{mix-blend-mode:screen;}.clsdigimar-22,.clsdigimar-25{opacity:0.44;}.clsdigimar-22{fill:url(#linear-gradient-5);}.clsdigimar-23,.clsdigimar-26{opacity:0.42;}.clsdigimar-23{fill:url(#linear-gradient-6);}.clsdigimar-24{fill:url(#linear-gradient-7);}.clsdigimar-25{fill:url(#linear-gradient-8);}.clsdigimar-26{fill:url(#linear-gradient-9);}.clsdigimar-27{fill:url(#linear-gradient-10);}.clsdigimar-28{fill:url(#linear-gradient-11);}.clsdigimar-29,.clsdigimar-31{opacity:0.3;}.clsdigimar-29{fill:url(#linear-gradient-12);}.clsdigimar-30{fill:url(#linear-gradient-13);}.clsdigimar-31{fill:url(#linear-gradient-14);}.clsdigimar-32{fill:url(#linear-gradient-15);}.clsdigimar-33,.clsdigimar-38{opacity:0.5;}.clsdigimar-34{fill:url(#linear-gradient-16);}.clsdigimar-35{fill:url(#linear-gradient-17);}.clsdigimar-36{fill:url(#linear-gradient-18);}.clsdigimar-37{fill:url(#linear-gradient-19);}.clsdigimar-38{fill:url(#linear-gradient-20);}.clsdigimar-39{fill:url(#linear-gradient-21);}.clsdigimar-40{fill:url(#linear-gradient-22);}.clsdigimar-41{opacity:0.8;fill:url(#linear-gradient-23);}.clsdigimar-42{fill:url(#linear-gradient-24);}.clsdigimar-43{fill:#e6f4ff;}.clsdigimar-44{fill:url(#linear-gradient-25);}.clsdigimar-45{fill:#ededee;}.clsdigimar-46{fill:#53beff;}.clsdigimar-47{fill:#0bf;}.clsdigimar-48{fill:#7fd4ff;}.clsdigimar-49,.clsdigimar-50{fill:#fc0;}.clsdigimar-51{fill:#ffda00;}.clsdigimar-52{fill:#ffe356;}.clsdigimar-53{fill:#3052e9;}.clsdigimar-54{fill:#030478;}.clsdigimar-55{fill:url(#linear-gradient-26);}.clsdigimar-56{fill:#f8c3c7;}.clsdigimar-57{fill:#fcc;}.clsdigimar-58{fill:#241d9e;}.clsdigimar-59{fill:url(#linear-gradient-27);}.clsdigimar-60{fill:url(#linear-gradient-28);}.clsdigimar-61{fill:#ff9a25;}.clsdigimar-62{fill:url(#linear-gradient-29);}.clsdigimar-63,.clsdigimar-66{opacity:0.55;}.clsdigimar-64,.clsdigimar-65,.clsdigimar-66{fill:#c2eeff;}.clsdigimar-64{opacity:0.69;}.clsdigimar-67{fill:url(#linear-gradient-30);}.clsdigimar-68{fill:url(#linear-gradient-31);}.clsdigimar-69{fill:url(#linear-gradient-32);}.clsdigimar-70{fill:url(#linear-gradient-33);}.clsdigimar-71{fill:url(#linear-gradient-34);}.clsdigimar-72{fill:url(#linear-gradient-35);}.clsdigimar-73{fill:#fdb42c;}.clsdigimar-74{fill:url(#linear-gradient-36);}.clsdigimar-75{fill:url(#linear-gradient-37);}.clsdigimar-76{fill:#d9d9db;}.clsdigimar-77{fill:#68c0f8;}.clsdigimar-78{fill:#5eddf4;}.clsdigimar-79{fill:none;stroke:#bcbec0;stroke-miterlimit:10;stroke-width:0.62px;}.clsdigimar-80{fill:#ebebeb;}.clsdigimar-81{fill:#00b028;}.clsdigimar-82{fill-rule:evenodd;}.clsdigimar-83{fill:#ff725e;}.clsdigimar-84{fill:#455a64;}.clsdigimar-85{fill:#0078ff;}</style><linearGradient id="linear-gradient" x1="212.23" y1="273.35" x2="212.23" y2="241.24" gradientUnits="userSpaceOnUse"><stop offset="0" stop-color="#085eff"></stop><stop offset="1" stop-color="#0e0092"></stop></linearGradient><linearGradient id="linear-gradient-2" x1="212.23" y1="73.83" x2="212.23" y2="291.63" gradientUnits="userSpaceOnUse"><stop offset="0" stop-color="#28e8ff"></stop><stop offset="1" stop-color="#0129ff"></stop></linearGradient><linearGradient id="linear-gradient-3" x1="212.23" y1="238.36" x2="212.23" y2="282.2" xlink:href="#linear-gradient"></linearGradient><linearGradient id="linear-gradient-4" x1="195.54" y1="156.15" x2="210.87" y2="147.76" gradientTransform="translate(99.67 -79.71) rotate(29.13)" gradientUnits="userSpaceOnUse"><stop offset="0" stop-color="#00d1ff"></stop><stop offset="1" stop-color="#0162ff"></stop></linearGradient><linearGradient id="linear-gradient-5" x1="188.64" y1="160.38" x2="206.9" y2="150" gradientTransform="matrix(1, 0, 0, 1, 0, 0)" xlink:href="#linear-gradient-4"></linearGradient><linearGradient id="linear-gradient-6" x1="206.88" y1="152.93" x2="191.46" y2="162.79" gradientTransform="matrix(1, 0, 0, 1, 0, 0)" xlink:href="#linear-gradient-4"></linearGradient><linearGradient id="linear-gradient-7" x1="201.72" y1="152.84" x2="217.71" y2="143.85" gradientTransform="translate(98.18 -85.47) rotate(29.13)" xlink:href="#linear-gradient-4"></linearGradient><linearGradient id="linear-gradient-8" x1="199.05" y1="152.69" x2="219.36" y2="141.95" gradientTransform="matrix(1, 0, 0, 1, 0, 0)" xlink:href="#linear-gradient-4"></linearGradient><linearGradient id="linear-gradient-9" x1="219.05" y1="145.46" x2="200.64" y2="156.49" gradientTransform="matrix(1, 0, 0, 1, 0, 0)" xlink:href="#linear-gradient-4"></linearGradient><linearGradient id="linear-gradient-10" x1="209.74" y1="150.56" x2="246.8" y2="128.12" gradientUnits="userSpaceOnUse"><stop offset="0.01" stop-color="#ff9a25"></stop><stop offset="1" stop-color="#ffe000"></stop></linearGradient><linearGradient id="linear-gradient-11" x1="205.89" y1="142.62" x2="239.33" y2="114.57" gradientUnits="userSpaceOnUse"><stop offset="0" stop-color="#ffe000"></stop><stop offset="1" stop-color="#ffe000" stop-opacity="0"></stop></linearGradient><linearGradient id="linear-gradient-12" x1="205.28" y1="155.19" x2="252.84" y2="141.08" xlink:href="#linear-gradient-10"></linearGradient><linearGradient id="linear-gradient-13" x1="235.87" y1="133.6" x2="269.05" y2="115.35" gradientTransform="translate(91.99 -109.3) rotate(29.13)" xlink:href="#linear-gradient-10"></linearGradient><linearGradient id="linear-gradient-14" x1="238.22" y1="124.06" x2="270.13" y2="124.06" xlink:href="#linear-gradient-10"></linearGradient><linearGradient id="linear-gradient-15" x1="246.76" y1="107.35" x2="282.26" y2="167.18" gradientTransform="matrix(1, 0, 0, 1, 0, 0)" xlink:href="#linear-gradient-4"></linearGradient><linearGradient id="linear-gradient-16" x1="239.26" y1="119.34" x2="275.19" y2="119.34" gradientTransform="matrix(1, 0, 0, 1, 0, 0)" xlink:href="#linear-gradient-4"></linearGradient><linearGradient id="linear-gradient-17" x1="234.41" y1="124.31" x2="276.71" y2="124.31" gradientTransform="matrix(1, 0, 0, 1, 0, 0)" xlink:href="#linear-gradient-4"></linearGradient><linearGradient id="linear-gradient-18" x1="253.95" y1="123.43" x2="243.72" y2="130.55" gradientTransform="matrix(1, 0, 0, 1, 0, 0)" xlink:href="#linear-gradient-4"></linearGradient><linearGradient id="linear-gradient-19" x1="254.15" y1="113.67" x2="241.76" y2="121.95" gradientTransform="matrix(1, 0, 0, 1, 0, 0)" xlink:href="#linear-gradient-4"></linearGradient><linearGradient id="linear-gradient-20" x1="269.02" y1="124.38" x2="249.23" y2="135.19" gradientTransform="matrix(1, 0, 0, 1, 0, 0)" xlink:href="#linear-gradient-4"></linearGradient><linearGradient id="linear-gradient-21" x1="254.19" y1="117.62" x2="267.46" y2="143.19" gradientTransform="matrix(1, 0, 0, 1, 0, 0)" xlink:href="#linear-gradient-4"></linearGradient><linearGradient id="linear-gradient-22" x1="212.54" y1="211.76" x2="212.54" y2="260.18" xlink:href="#linear-gradient"></linearGradient><linearGradient id="linear-gradient-23" x1="215.48" y1="239.12" x2="215.48" y2="199.16" gradientTransform="matrix(1, 0, 0, 1, 0, 0)" xlink:href="#linear-gradient-4"></linearGradient><linearGradient id="linear-gradient-24" x1="234.29" y1="130.34" x2="309.2" y2="93.64" xlink:href="#linear-gradient-10"></linearGradient><linearGradient id="linear-gradient-25" x1="76.29" y1="190.65" x2="76.29" y2="262.78" gradientUnits="userSpaceOnUse"><stop offset="0" stop-color="#ff6570"></stop><stop offset="1" stop-color="#ec374f"></stop></linearGradient><linearGradient id="linear-gradient-26" x1="403.9" y1="185.89" x2="354.57" y2="141.03" xlink:href="#linear-gradient"></linearGradient><linearGradient id="linear-gradient-27" x1="399.75" y1="158.59" x2="343.73" y2="158.59" xlink:href="#linear-gradient"></linearGradient><linearGradient id="linear-gradient-28" x1="351.57" y1="164.93" x2="351.57" y2="117.64" gradientTransform="translate(12.33 -33.5) rotate(4.64)" gradientUnits="userSpaceOnUse"><stop offset="0.13" stop-color="#00a373"></stop><stop offset="1" stop-color="#43ffd9"></stop></linearGradient><linearGradient id="linear-gradient-29" x1="339.34" y1="300.42" x2="339.34" y2="165.04" xlink:href="#linear-gradient-10"></linearGradient><linearGradient id="linear-gradient-30" x1="101.1" y1="189.98" x2="101.1" y2="160.67" xlink:href="#linear-gradient-10"></linearGradient><linearGradient id="linear-gradient-31" x1="91.21" y1="209.56" x2="91.21" y2="278.09" xlink:href="#linear-gradient"></linearGradient><linearGradient id="linear-gradient-32" x1="103.68" y1="222.22" x2="103.68" y2="183.11" xlink:href="#linear-gradient-10"></linearGradient><linearGradient id="linear-gradient-33" x1="286.46" y1="182.1" x2="276.44" y2="212.8" xlink:href="#linear-gradient-25"></linearGradient><linearGradient id="linear-gradient-34" x1="284.34" y1="196.35" x2="284.34" y2="248.56" xlink:href="#linear-gradient"></linearGradient><linearGradient id="linear-gradient-35" x1="280.31" y1="204.74" x2="280.31" y2="263.91" xlink:href="#linear-gradient"></linearGradient><linearGradient id="linear-gradient-36" x1="248.92" y1="182.75" x2="283.6" y2="185.14" xlink:href="#linear-gradient-25"></linearGradient><linearGradient id="linear-gradient-37" x1="274.55" y1="178.26" x2="274.55" y2="218.31" xlink:href="#linear-gradient-25"></linearGradient></defs><g class="clsdigimar-1"><g id="Layer_2" data-name="Layer 2"><g id="Layer_1-2" data-name="Layer 1"><g class="clsdigimar-2"><path class="clsdigimar-3" d="M302.84,82.12a.42.42,0,0,1-.28-.1.43.43,0,0,1-.06-.62,15.2,15.2,0,0,0,1.22-1.75.45.45,0,0,1,.61-.15.44.44,0,0,1,.14.61A16.59,16.59,0,0,1,303.18,82,.43.43,0,0,1,302.84,82.12Z"></path><path class="clsdigimar-3" d="M131.09,105.87h0l-4.36-.05a.44.44,0,0,1-.44-.44.49.49,0,0,1,.45-.44l4.36,0a.45.45,0,0,1,.44.45A.44.44,0,0,1,131.09,105.87Zm-8.73-.1h0l-4.37,0a.44.44,0,0,1,0-.88h0l4.37,0a.44.44,0,0,1,0,.88Zm-8.72-.1h0l-4.36,0a.44.44,0,0,1-.44-.44.46.46,0,0,1,.45-.44l4.36.05a.44.44,0,1,1,0,.88Zm-8.73-.1h0l-4.36,0a.43.43,0,0,1-.43-.44.46.46,0,0,1,.44-.44l4.36,0a.44.44,0,1,1,0,.88Zm-8.73-.1h0l-4.36,0a.44.44,0,0,1,0-.88h0l4.36,0a.44.44,0,0,1,0,.88Zm-8.72-.1h0l-4.36-.05a.44.44,0,0,1,0-.88h0l4.36,0a.44.44,0,1,1,0,.88Zm-8.73-.1h0l-4.37,0a.44.44,0,0,1-.43-.45.41.41,0,0,1,.44-.43l4.37,0a.44.44,0,0,1,0,.88Zm-8.72-.1h0l-4.36,0a.44.44,0,1,1,0-.88l4.36.05a.44.44,0,0,1,0,.88Zm-8.73-.1h0l-4.37,0a.43.43,0,0,1-.43-.45.42.42,0,0,1,.44-.43l4.37,0a.44.44,0,0,1,0,.88Zm-8.72-.19h0c-1.6-.08-3-.22-4.38-.4a.45.45,0,0,1-.38-.5.43.43,0,0,1,.5-.37c1.32.18,2.73.31,4.31.4a.44.44,0,0,1,0,.87Zm-8.63-1.23-.11,0a26.32,26.32,0,0,1-4.18-1.46.44.44,0,1,1,.36-.8,25.91,25.91,0,0,0,4,1.41.44.44,0,0,1-.11.87ZM36,100a.43.43,0,0,1-.25-.09,20.68,20.68,0,0,1-3.31-3,.44.44,0,0,1,0-.62.43.43,0,0,1,.62,0,20.31,20.31,0,0,0,3.16,2.85.44.44,0,0,1-.26.8Zm-5.81-6.42a.42.42,0,0,1-.37-.22,25.87,25.87,0,0,1-1.93-4,.44.44,0,0,1,.25-.57.44.44,0,0,1,.57.25A25.54,25.54,0,0,0,30.61,93a.43.43,0,0,1-.15.6A.39.39,0,0,1,30.23,93.62Zm-3.17-8.1a.44.44,0,0,1-.43-.33,39.42,39.42,0,0,1-.77-4.35.45.45,0,0,1,.39-.49.44.44,0,0,1,.49.39A35,35,0,0,0,27.49,85a.44.44,0,0,1-.33.53Zm-1-8.65a.44.44,0,0,1-.44-.43c0-.28,0-.56,0-.84,0-1.17.05-2.37.13-3.56a.45.45,0,0,1,.48-.4.43.43,0,0,1,.4.47c-.09,1.16-.13,2.34-.13,3.49,0,.28,0,.55,0,.83a.44.44,0,0,1-.43.44Zm280-.46a.51.51,0,0,1-.17,0,.44.44,0,0,1-.24-.57c.51-1.25,1-2.63,1.41-4.09a.44.44,0,1,1,.84.25c-.44,1.49-.92,2.89-1.43,4.17A.44.44,0,0,1,306,76.41ZM26.66,68.18h-.08a.44.44,0,0,1-.36-.51c.25-1.46.56-2.91.94-4.3a.43.43,0,0,1,.53-.31.44.44,0,0,1,.32.53c-.37,1.37-.68,2.79-.92,4.23A.44.44,0,0,1,26.66,68.18Zm281.85-.12h-.09a.45.45,0,0,1-.34-.53c.3-1.39.56-2.82.78-4.26a.44.44,0,0,1,.5-.37.43.43,0,0,1,.37.5c-.22,1.46-.49,2.91-.79,4.32A.45.45,0,0,1,308.51,68.06ZM28.91,59.77l-.15,0a.44.44,0,0,1-.26-.57c.5-1.36,1.08-2.72,1.71-4.05a.43.43,0,0,1,.58-.21.44.44,0,0,1,.21.59c-.61,1.3-1.18,2.64-1.68,4A.43.43,0,0,1,28.91,59.77Zm280.92-.34h0a.45.45,0,0,1-.4-.48c.13-1.47.22-2.93.26-4.33a.42.42,0,0,1,.45-.42.44.44,0,0,1,.43.45c0,1.41-.13,2.89-.26,4.38A.45.45,0,0,1,309.83,59.43ZM32.63,51.89a.46.46,0,0,1-.22-.06.44.44,0,0,1-.16-.6c.72-1.25,1.51-2.5,2.35-3.72a.44.44,0,1,1,.72.5c-.82,1.2-1.6,2.43-2.31,3.66A.44.44,0,0,1,32.63,51.89ZM310,50.71a.43.43,0,0,1-.44-.41q-.06-1-.18-1.95c-.09-.77-.2-1.56-.34-2.33a.43.43,0,0,1,.35-.51.45.45,0,0,1,.51.35c.15.79.27,1.59.36,2.38s.13,1.31.18,2a.44.44,0,0,1-.42.46Zm-272.46-6a.42.42,0,0,1-.28-.1.44.44,0,0,1-.07-.62c.89-1.11,1.85-2.24,2.85-3.34a.44.44,0,0,1,.65.59c-1,1.09-1.93,2.2-2.81,3.3A.42.42,0,0,1,37.56,44.7Zm270.9-2.55a.44.44,0,0,1-.42-.32,35.92,35.92,0,0,0-1.51-4,.44.44,0,1,1,.8-.36,37.9,37.9,0,0,1,1.55,4.14.44.44,0,0,1-.29.55Zm-265-3.92a.44.44,0,0,1-.32-.13.43.43,0,0,1,0-.62l.87-.85c.77-.74,1.54-1.45,2.32-2.15a.44.44,0,0,1,.59.65c-.77.7-1.54,1.41-2.3,2.13l-.87.85A.42.42,0,0,1,43.41,38.23Zm261.49-4a.46.46,0,0,1-.38-.2A27.56,27.56,0,0,0,302,30.53a.44.44,0,0,1,.05-.63.45.45,0,0,1,.62.05,28.31,28.31,0,0,1,2.6,3.58.44.44,0,0,1-.14.61A.46.46,0,0,1,304.9,34.2Zm-255-1.79a.44.44,0,0,1-.34-.16.43.43,0,0,1,.06-.62c1.12-.92,2.29-1.83,3.46-2.7a.44.44,0,0,1,.61.1.42.42,0,0,1-.09.61c-1.16.86-2.31,1.76-3.42,2.67A.44.44,0,0,1,49.9,32.41Zm194-3a.44.44,0,0,1-.44-.44.43.43,0,0,1,.43-.44c1.45,0,2.91-.06,4.35-.12a.43.43,0,0,1,.46.42.44.44,0,0,1-.42.46c-1.45.06-2.92.1-4.38.12Zm-4.37,0h0c-1.45,0-2.91-.08-4.37-.15a.44.44,0,0,1-.42-.46.44.44,0,0,1,.46-.42q2.17.11,4.35.15a.44.44,0,0,1,0,.88ZM252.66,29a.45.45,0,0,1-.44-.41.45.45,0,0,1,.41-.47c1.44-.11,2.9-.26,4.33-.42a.42.42,0,0,1,.48.39.44.44,0,0,1-.38.49c-1.44.16-2.91.3-4.36.42Zm-21.79,0h0c-1.46-.11-2.91-.23-4.36-.37a.44.44,0,1,1,.08-.88c1.45.14,2.9.27,4.34.37a.45.45,0,0,1,.41.47A.45.45,0,0,1,230.87,28.94Zm-8.69-.84h-.05c-1.44-.18-2.89-.36-4.33-.56a.45.45,0,0,1-.38-.5.43.43,0,0,1,.5-.37c1.44.19,2.88.38,4.32.55a.44.44,0,0,1-.06.88ZM261.33,28a.46.46,0,0,1-.44-.38.45.45,0,0,1,.37-.5c1.44-.22,2.88-.47,4.28-.74a.44.44,0,1,1,.17.86c-1.42.28-2.87.53-4.31.75Zm37.88-.34a.42.42,0,0,1-.28-.1,18,18,0,0,0-2.11-1.45,16.47,16.47,0,0,0-1.5-.79.44.44,0,0,1,.38-.8c.53.25,1.06.53,1.57.83a19.34,19.34,0,0,1,2.21,1.52.44.44,0,0,1,.07.62A.44.44,0,0,1,299.21,27.65ZM56.9,27.21a.44.44,0,0,1-.36-.19.43.43,0,0,1,.12-.61c1.2-.81,2.45-1.61,3.69-2.36a.44.44,0,0,1,.46.76c-1.24.74-2.47,1.53-3.66,2.33A.45.45,0,0,1,56.9,27.21Zm156.64-.31h-.07c-1.43-.23-2.87-.46-4.31-.71a.44.44,0,0,1,.15-.87c1.43.25,2.87.49,4.3.71a.44.44,0,0,1-.07.87Zm56.35-.58a.45.45,0,0,1-.43-.34.44.44,0,0,1,.33-.53l2.37-.57,1.87-.45a.44.44,0,0,1,.21.85l-1.87.45L270,26.3Zm-64.95-.89h-.08l-4.29-.82a.45.45,0,0,1-.35-.52.44.44,0,0,1,.52-.35c1.43.28,2.85.56,4.28.82a.44.44,0,0,1,.35.52A.43.43,0,0,1,204.94,25.43Zm73.45-1.08A.44.44,0,0,1,278,24a.45.45,0,0,1,.35-.52c1.59-.31,3-.54,4.34-.69a.45.45,0,0,1,.49.39.45.45,0,0,1-.39.49c-1.31.14-2.7.37-4.27.68Zm13-.39h-.09a22,22,0,0,0-4.24-.49.44.44,0,0,1,0-.88h0a23,23,0,0,1,4.41.51.42.42,0,0,1,.33.52A.43.43,0,0,1,291.38,24Zm-95-.22h-.09L192.71,23l-.69-.14a.45.45,0,0,1-.34-.53.44.44,0,0,1,.52-.34l.7.15,3.57.76a.44.44,0,0,1-.09.87Zm-132-1a.44.44,0,0,1-.21-.83c1.27-.69,2.59-1.36,3.9-2a.42.42,0,0,1,.58.2.44.44,0,0,1-.2.59c-1.3.63-2.6,1.29-3.87,2A.46.46,0,0,1,64.37,22.7Zm123.48-.79h-.1L183.49,21a.44.44,0,1,1,.2-.86l4.25.95a.44.44,0,0,1,.34.52A.45.45,0,0,1,187.85,21.91ZM179.33,20h-.09L175,19a.44.44,0,0,1-.33-.53.43.43,0,0,1,.52-.33l4.26.95a.44.44,0,0,1-.1.87ZM72.22,18.91a.44.44,0,0,1-.41-.27.45.45,0,0,1,.23-.58c1.34-.57,2.71-1.11,4.07-1.63a.44.44,0,0,1,.31.83c-1.35.51-2.71,1-4,1.61A.35.35,0,0,1,72.22,18.91Zm98.6-.81h-.1q-2.13-.48-4.26-.93a.45.45,0,0,1-.34-.53.44.44,0,0,1,.53-.33l4.26.93a.44.44,0,0,1,.34.52A.45.45,0,0,1,170.82,18.1Zm-8.53-1.84h-.1c-1.42-.3-2.84-.59-4.27-.87a.44.44,0,0,1-.34-.52.45.45,0,0,1,.52-.35l4.27.88a.44.44,0,0,1-.08.87Zm-81.91-.41a.45.45,0,0,1-.42-.31.43.43,0,0,1,.29-.55c1.37-.45,2.78-.88,4.19-1.27a.44.44,0,0,1,.23.85c-1.39.39-2.79.81-4.15,1.25A.35.35,0,0,1,80.38,15.85Zm73.35-1.29h-.09c-1.42-.27-2.85-.53-4.28-.78a.44.44,0,1,1,.15-.87c1.43.25,2.87.51,4.3.78a.44.44,0,0,1-.08.88ZM88.78,13.5a.43.43,0,0,1-.1-.86c1.41-.33,2.85-.64,4.29-.92a.44.44,0,0,1,.16.87c-1.42.27-2.85.58-4.25.9Zm56.35-.44h-.07c-1.44-.23-2.87-.45-4.31-.65a.43.43,0,0,1-.37-.5.43.43,0,0,1,.5-.37c1.44.2,2.88.42,4.32.65a.43.43,0,0,1,.36.5A.44.44,0,0,1,145.13,13.06Zm-47.78-1.2a.44.44,0,0,1-.44-.38.45.45,0,0,1,.37-.5c1.43-.22,2.89-.41,4.34-.57a.43.43,0,0,1,.49.38.44.44,0,0,1-.39.49c-1.44.16-2.88.36-4.31.57Zm39.14,0h-.05c-1.45-.17-2.89-.34-4.33-.48a.45.45,0,0,1-.4-.48.46.46,0,0,1,.49-.4c1.45.15,2.89.31,4.34.49a.44.44,0,0,1,0,.87ZM127.81,11h0c-1.44-.11-2.89-.21-4.34-.28a.44.44,0,0,1-.42-.46.44.44,0,0,1,.46-.42c1.46.07,2.92.17,4.37.28a.44.44,0,0,1,0,.88Zm-21.8-.1a.44.44,0,0,1,0-.88c1.43-.11,2.9-.2,4.37-.26a.44.44,0,1,1,0,.88c-1.46.06-2.92.15-4.34.26Zm13.08-.34h0l-2.1,0h-2.25a.44.44,0,0,1,0-.88H117c.71,0,1.42,0,2.12,0a.44.44,0,0,1,0,.88Z"></path><path class="clsdigimar-3" d="M137.75,106h0l-2.2,0a.44.44,0,0,1-.44-.44.45.45,0,0,1,.45-.44l2.2,0a.44.44,0,0,1,.43.44A.44.44,0,0,1,137.75,106Z"></path></g><g class="clsdigimar-2"><path class="clsdigimar-3" d="M175.64,247.38h-2.21a.43.43,0,0,1-.43-.44.44.44,0,0,1,.44-.44h2.2a.44.44,0,1,1,0,.88Z"></path><path class="clsdigimar-3" d="M246.39,247.5H242a.44.44,0,1,1,0-.88h4.42a.44.44,0,1,1,0,.88Zm4.42,0a.44.44,0,0,1,0-.88h4.42a.44.44,0,0,1,.44.44.44.44,0,0,1-.44.44Zm-13.27,0h-4.42a.44.44,0,0,1,0-.88h4.42a.44.44,0,1,1,0,.88Zm-8.84,0h-4.42a.44.44,0,0,1-.44-.44.44.44,0,0,1,.44-.44h4.42a.44.44,0,0,1,.44.44A.44.44,0,0,1,228.7,247.5Zm30.95,0a.44.44,0,0,1-.44-.44.44.44,0,0,1,.44-.44h4.42v.88Zm-39.79,0h-4.43a.44.44,0,0,1,0-.88h4.43a.44.44,0,0,1,.44.44A.44.44,0,0,1,219.86,247.49Zm48.64,0a.43.43,0,0,1-.44-.44.44.44,0,0,1,.44-.44h4.42a.44.44,0,0,1,.44.44.44.44,0,0,1-.44.44Zm-57.49,0h-4.42a.44.44,0,0,1-.44-.44.44.44,0,0,1,.44-.44H211a.44.44,0,0,1,0,.88Zm66.33,0a.44.44,0,0,1,0-.88h4.42a.44.44,0,0,1,0,.88Zm-75.17,0h-4.43a.45.45,0,0,1,0-.89h4.42a.45.45,0,0,1,.44.45A.44.44,0,0,1,202.17,247.45Zm84,0a.44.44,0,1,1,0-.88h4.41l0,.88Zm-92.87,0H188.9a.44.44,0,0,1,0-.88h4.42a.44.44,0,0,1,.44.44A.43.43,0,0,1,193.32,247.43Zm101.71,0a.44.44,0,0,1-.44-.44.44.44,0,0,1,.44-.44h4.42a.44.44,0,0,1,.44.43.45.45,0,0,1-.44.45Zm-110.55,0h0l-4.42,0a.44.44,0,0,1-.44-.44.44.44,0,0,1,.44-.44h0l4.42,0a.44.44,0,0,1,0,.88Zm119.39,0a.44.44,0,0,1-.44-.44.44.44,0,0,1,.44-.44h4.43a.44.44,0,0,1,0,.88h-4.43Zm8.85,0a.44.44,0,0,1,0-.88l4.42,0h0a.44.44,0,0,1,.44.44.44.44,0,0,1-.44.44l-4.42,0Zm8.84,0a.44.44,0,0,1,0-.88l4.4,0,0,.88-4.42,0Zm8.84,0a.44.44,0,0,1,0-.88l4.42,0h0a.45.45,0,0,1,0,.89l-4.42,0Zm8.85-.05a.44.44,0,1,1,0-.88l4.42,0h0a.44.44,0,0,1,0,.88l-4.42,0Zm8.84-.05a.44.44,0,0,1-.44-.43.45.45,0,0,1,.44-.45l4.42,0h0a.44.44,0,0,1,0,.88l-4.42,0Zm8.85,0a.44.44,0,0,1,0-.88l4.43,0h0a.44.44,0,1,1,0,.88l-4.42,0Zm8.84-.05a.44.44,0,0,1-.44-.44.44.44,0,0,1,.44-.44l4.42,0a.48.48,0,0,1,.44.43.45.45,0,0,1-.44.45l-4.42,0Zm8.84-.06a.45.45,0,0,1-.44-.44.44.44,0,0,1,.44-.44l4.42,0h0a.45.45,0,0,1,.44.44.44.44,0,0,1-.44.44l-4.42,0Zm8.85-.07a.44.44,0,0,1,0-.88l4.39,0,0,.88-4.42,0Zm8.84-.07a.44.44,0,1,1,0-.88l4.42,0h0a.44.44,0,0,1,0,.88l-4.43,0Zm8.84-.07a.45.45,0,0,1-.44-.44.46.46,0,0,1,.44-.45q2.21,0,4.41-.09a.41.41,0,0,1,.46.42.45.45,0,0,1-.43.46c-1.48.05-2.95.08-4.43.1Zm8.84-.33a.45.45,0,0,1-.44-.41.45.45,0,0,1,.41-.47c1.56-.12,3-.26,4.37-.45a.44.44,0,0,1,.12.88c-1.4.18-2.84.33-4.42.45Zm8.76-1.2a.44.44,0,0,1-.09-.87,39.34,39.34,0,0,0,4.22-1.13.46.46,0,0,1,.56.29.43.43,0,0,1-.29.55,43.64,43.64,0,0,1-4.31,1.15Zm8.38-2.75a.47.47,0,0,1-.4-.25.45.45,0,0,1,.21-.59,29.83,29.83,0,0,0,3.78-2.16.43.43,0,0,1,.61.11.44.44,0,0,1-.12.62,28.57,28.57,0,0,1-3.89,2.22A.45.45,0,0,1,427.13,242.55Zm7.29-5a.43.43,0,0,1-.32-.14.44.44,0,0,1,0-.62,22,22,0,0,0,2.85-3.26.44.44,0,0,1,.61-.11.45.45,0,0,1,.11.62,23.26,23.26,0,0,1-3,3.39A.44.44,0,0,1,434.42,237.59Zm5-7.2a.51.51,0,0,1-.17,0,.44.44,0,0,1-.24-.57,15,15,0,0,0,1-4.16.45.45,0,0,1,.47-.4.44.44,0,0,1,.41.47,15.75,15.75,0,0,1-1.05,4.41A.42.42,0,0,1,439.44,230.39Zm.71-8.67a.43.43,0,0,1-.43-.35,15.92,15.92,0,0,0-1.51-4A.44.44,0,0,1,439,217a16,16,0,0,1,1.59,4.23.43.43,0,0,1-.33.53ZM436.08,214a.43.43,0,0,1-.33-.15,26.42,26.42,0,0,0-3.11-3,.44.44,0,0,1,.57-.68,28.05,28.05,0,0,1,3.2,3.14.45.45,0,0,1,0,.63A.46.46,0,0,1,436.08,214Zm-6.71-5.71a.4.4,0,0,1-.24-.07c-1.18-.76-2.46-1.5-3.79-2.2a.43.43,0,0,1-.19-.59.44.44,0,0,1,.59-.19q2.06,1.06,3.87,2.24a.44.44,0,0,1,.12.61A.42.42,0,0,1,429.37,208.26Zm-7.84-4.09-.17,0c-1.34-.56-2.72-1.08-4.11-1.55a.44.44,0,1,1,.28-.83c1.41.47,2.81,1,4.17,1.57a.43.43,0,0,1,.24.57A.44.44,0,0,1,421.53,204.17Zm-8.36-2.86a.25.25,0,0,1-.12,0c-1.4-.4-2.83-.78-4.26-1.14a.43.43,0,0,1-.32-.53.43.43,0,0,1,.53-.32c1.44.36,2.88.74,4.29,1.15a.44.44,0,0,1-.12.86Zm-8.58-2.14h-.09c-1.44-.3-2.88-.58-4.33-.85a.44.44,0,1,1,.16-.86c1.45.26,2.9.55,4.35.85a.44.44,0,0,1-.09.87Zm-8.7-1.57h-.07c-1.45-.22-2.91-.42-4.37-.6a.44.44,0,0,1-.38-.49.43.43,0,0,1,.49-.38c1.47.18,2.93.38,4.39.6a.44.44,0,0,1-.06.88Zm-8.78-1.1h0c-1.46-.14-2.93-.28-4.4-.39a.45.45,0,0,1-.4-.48.46.46,0,0,1,.47-.4c1.48.12,2.95.25,4.42.4a.43.43,0,0,1,.39.48A.44.44,0,0,1,387.11,196.5Zm-8.81-.72h0l-4.41-.24a.44.44,0,0,1-.42-.46.43.43,0,0,1,.46-.42c1.48.07,3,.15,4.43.24a.45.45,0,0,1,.41.47A.45.45,0,0,1,378.3,195.78Zm-8.84-.41h0l-4.42-.12a.44.44,0,0,1-.43-.45.46.46,0,0,1,.45-.43l4.43.13a.43.43,0,0,1,.42.45A.44.44,0,0,1,369.46,195.37Zm-8.84-.21h0l-4.42,0a.44.44,0,1,1,0-.88h0l4.43,0a.44.44,0,0,1,.43.45A.44.44,0,0,1,360.62,195.16Zm-8.84-.07h-4.41v-.88h4.42a.44.44,0,0,1,.44.44A.44.44,0,0,1,351.78,195.09Zm-8.85,0h-4.42a.45.45,0,0,1-.44-.45.44.44,0,0,1,.44-.44h4.43a.44.44,0,0,1,0,.88Zm-8.84,0h-4.42a.44.44,0,0,1-.44-.44.44.44,0,0,1,.44-.44h4.42a.44.44,0,0,1,.44.44A.44.44,0,0,1,334.09,195.06Zm-8.84,0h-4.43a.44.44,0,0,1-.44-.44.44.44,0,0,1,.44-.44h4.43a.44.44,0,0,1,.44.44A.44.44,0,0,1,325.25,195Zm-8.85,0H312a.44.44,0,0,1-.44-.44.44.44,0,0,1,.44-.44h4.42a.45.45,0,0,1,0,.89Zm-8.84,0h-4.42a.44.44,0,1,1,0-.88h4.42a.44.44,0,0,1,0,.88Zm-8.85,0h-4.42a.45.45,0,0,1-.44-.45.44.44,0,0,1,.44-.44h4.43a.44.44,0,0,1,0,.88Zm-8.84,0h-4.42a.44.44,0,0,1-.44-.44.44.44,0,0,1,.44-.44h4.42a.44.44,0,0,1,.44.44A.44.44,0,0,1,289.87,195ZM281,195H276.6a.44.44,0,0,1-.44-.44.44.44,0,0,1,.44-.44H281a.44.44,0,0,1,.44.44A.44.44,0,0,1,281,195Zm-8.85,0h-4.42a.44.44,0,0,1-.44-.44.44.44,0,0,1,.44-.44h4.42a.45.45,0,0,1,.44.45A.44.44,0,0,1,272.18,195Zm-8.84,0h-4.42a.44.44,0,0,1,0-.88h4.42a.44.44,0,0,1,0,.88Zm-8.85,0h-4.42a.45.45,0,0,1-.44-.45.44.44,0,0,1,.44-.43h4.43a.44.44,0,1,1,0,.88Zm-8.84,0h-4.42a.44.44,0,0,1-.44-.44.44.44,0,0,1,.44-.44h4.42a.44.44,0,0,1,.44.44A.44.44,0,0,1,245.65,194.9Zm-8.84,0h-4.43a.44.44,0,0,1-.44-.44.44.44,0,0,1,.44-.44h4.43a.44.44,0,0,1,0,.88Zm-8.85,0h-4.42a.44.44,0,0,1-.44-.44.44.44,0,0,1,.44-.44H228a.45.45,0,0,1,.44.45A.44.44,0,0,1,228,194.87Zm-8.84,0H214.7a.44.44,0,0,1,0-.88h4.42a.44.44,0,0,1,0,.88Zm-8.84,0h-4.43a.44.44,0,0,1-.44-.44.44.44,0,0,1,.44-.44h4.43a.43.43,0,0,1,.43.45A.43.43,0,0,1,210.28,194.83Zm-8.85,0H197a.44.44,0,0,1,0-.88h4.42a.44.44,0,0,1,.44.44A.44.44,0,0,1,201.43,194.82Z"></path><path class="clsdigimar-3" d="M192.55,194.8h-2.2a.44.44,0,0,1,0-.88h2.2a.44.44,0,0,1,.44.44A.44.44,0,0,1,192.55,194.8Z"></path></g><rect class="clsdigimar-4" x="188.5" y="242.23" width="47.44" height="18.33"></rect><rect class="clsdigimar-5" x="188.5" y="242.23" width="47.44" height="6.9"></rect><rect class="clsdigimar-6" x="85.8" y="102.71" width="252.85" height="143.15" rx="8.99"></rect><rect class="clsdigimar-7" x="92.47" y="109.2" width="239.5" height="130.16" rx="5.66"></rect><rect class="clsdigimar-8" x="92.47" y="117.6" width="239.5" height="113.36"></rect><rect class="clsdigimar-9" x="141.24" y="260.56" width="141.98" height="5.33" rx="2.46"></rect><path class="clsdigimar-10" d="M102.5,163.39a20.61,20.61,0,1,0-1.4-7.47A20.41,20.41,0,0,0,102.5,163.39Zm8.75-13.53A12.1,12.1,0,1,1,122,168l-.31,0a12.07,12.07,0,0,1-11.25-7.66,11.79,11.79,0,0,1-.85-4.45A12,12,0,0,1,111.25,149.86Z"></path><path class="clsdigimar-11" d="M121.72,176.54V168l.31,0a12.09,12.09,0,0,0,7.84-21l5.67-6.35a20.62,20.62,0,0,1-13.82,35.91Z"></path><path class="clsdigimar-12" d="M101.1,155.92a20.45,20.45,0,0,1,2.83-10.42l7.32,4.36a12.13,12.13,0,0,0-.79,10.51l-8,3A20.62,20.62,0,0,1,101.1,155.92Z"></path><path class="clsdigimar-13" d="M103.93,145.5a20.6,20.6,0,0,1,31.61-4.87L129.87,147a12.09,12.09,0,0,0-18.62,2.88Z"></path><path class="clsdigimar-7" d="M160.42,136.7a20.61,20.61,0,1,0,7.47-1.4A20.41,20.41,0,0,0,160.42,136.7Zm13.52,8.75a12.1,12.1,0,1,1-18.15,10.78c0-.1,0-.2,0-.31a12.07,12.07,0,0,1,7.66-11.25,12.06,12.06,0,0,1,10.5.78Z"></path><path class="clsdigimar-14" d="M147.27,155.92h8.51c0,.11,0,.21,0,.31a12.09,12.09,0,0,0,21,7.85l6.36,5.66a20.61,20.61,0,0,1-35.91-13.82Z"></path><path class="clsdigimar-15" d="M167.89,135.3a20.58,20.58,0,0,1,10.42,2.83l-4.37,7.32a11.9,11.9,0,0,0-6.05-1.63,12.18,12.18,0,0,0-4.45.84l-3-8A20.58,20.58,0,0,1,167.89,135.3Z"></path><path class="clsdigimar-16" d="M178.31,138.13a20.62,20.62,0,0,1,4.87,31.61l-6.35-5.67a12.09,12.09,0,0,0-2.89-18.62Z"></path><path class="clsdigimar-7" d="M180.69,189.05H108.18a2.48,2.48,0,0,1-2.48-2.47v-.41a2.48,2.48,0,0,1,2.48-2.48h72.51a2.48,2.48,0,0,1,2.48,2.48v.41A2.48,2.48,0,0,1,180.69,189.05Zm0,3.81H108.18a2.48,2.48,0,0,0-2.48,2.48v.41a2.48,2.48,0,0,0,2.48,2.48h72.51a2.48,2.48,0,0,0,2.48-2.48v-.41A2.48,2.48,0,0,0,180.69,192.86Zm0,9.17H108.18a2.48,2.48,0,0,0-2.48,2.48v.41a2.48,2.48,0,0,0,2.48,2.48h72.51a2.48,2.48,0,0,0,2.48-2.48v-.41A2.48,2.48,0,0,0,180.69,202Zm0,9.17H108.18a2.48,2.48,0,0,0-2.48,2.48v.41a2.48,2.48,0,0,0,2.48,2.48h72.51a2.48,2.48,0,0,0,2.48-2.48v-.41A2.48,2.48,0,0,0,180.69,211.2Z"></path><rect class="clsdigimar-7" x="239.95" y="144.76" width="82.51" height="79.48" rx="7"></rect><path class="clsdigimar-8" d="M271.32,180.23H250.26a4.1,4.1,0,0,1-4.1-4.1V155.06a4.09,4.09,0,0,1,4.1-4.1h21.06a4.1,4.1,0,0,1,4.11,4.1v21.07A4.11,4.11,0,0,1,271.32,180.23Zm44.93-26.12v-.21a1.24,1.24,0,0,0-1.24-1.24H280.79a1.25,1.25,0,0,0-1.24,1.24v.21a1.25,1.25,0,0,0,1.24,1.24H315A1.24,1.24,0,0,0,316.25,154.11Zm0,7.52v.2a1.23,1.23,0,0,1-1.24,1.24H280.79a1.24,1.24,0,0,1-1.24-1.24v-.2a1.24,1.24,0,0,1,1.24-1.24H315A1.23,1.23,0,0,1,316.25,161.63Zm0,7.72v.21A1.24,1.24,0,0,1,315,170.8H280.79a1.25,1.25,0,0,1-1.24-1.24v-.21a1.25,1.25,0,0,1,1.24-1.24H315A1.24,1.24,0,0,1,316.25,169.35Zm0,7.73v.2a1.23,1.23,0,0,1-1.24,1.24H280.79a1.24,1.24,0,0,1-1.24-1.24v-.2a1.24,1.24,0,0,1,1.24-1.24H315A1.23,1.23,0,0,1,316.25,177.08Z"></path><path class="clsdigimar-8" d="M271.32,217.94H250.26a4.1,4.1,0,0,1-4.1-4.11V192.77a4.09,4.09,0,0,1,4.1-4.1h21.06a4.1,4.1,0,0,1,4.11,4.1v21.06A4.11,4.11,0,0,1,271.32,217.94Zm44.93-26.12v-.21a1.24,1.24,0,0,0-1.24-1.24H280.79a1.25,1.25,0,0,0-1.24,1.24v.21a1.25,1.25,0,0,0,1.24,1.24H315A1.24,1.24,0,0,0,316.25,191.82Zm0,7.52v.2a1.23,1.23,0,0,1-1.24,1.24H280.79a1.24,1.24,0,0,1-1.24-1.24v-.2a1.24,1.24,0,0,1,1.24-1.24H315A1.23,1.23,0,0,1,316.25,199.34Zm0,7.72v.21a1.24,1.24,0,0,1-1.24,1.24H280.79a1.25,1.25,0,0,1-1.24-1.24v-.21a1.25,1.25,0,0,1,1.24-1.24H315A1.24,1.24,0,0,1,316.25,207.06Zm0,7.73v.2a1.24,1.24,0,0,1-1.24,1.24H280.79a1.25,1.25,0,0,1-1.24-1.24v-.2a1.24,1.24,0,0,1,1.24-1.24H315A1.23,1.23,0,0,1,316.25,214.79Z"></path><path class="clsdigimar-17" d="M203.38,201.29c6.48,2.79,14.71,2.93,20.16,1.86l-1.34-7.53-17.83-15.85Z"></path><path class="clsdigimar-18" d="M207.17,202.59a27.73,27.73,0,0,1-3.79-1.3l1-21.52,3.74,3.32A184.08,184.08,0,0,0,207.17,202.59Z"></path><path class="clsdigimar-19" d="M213,203.6a38.76,38.76,0,0,0,10.54-.45l-1.34-7.53-10.92-6.05A135.67,135.67,0,0,0,213,203.6Z"></path><path class="clsdigimar-19" d="M216,164.22c5.66-2.05,10.15-.72,14.5,6.74s10.37,13.93,7.51,16.24-8.48,9-17,8.38C208.32,194.62,199.48,170.2,216,164.22Z"></path><path class="clsdigimar-20" d="M231.59,190h0a5.81,5.81,0,0,1-7.89-2.25l-18.21-32.68L220,147l14.2,35.79A5.81,5.81,0,0,1,231.59,190Z"></path><rect class="clsdigimar-21" x="193.13" y="143.12" width="20.19" height="17.65" rx="8.16" transform="translate(-48.26 118.15) rotate(-29.13)"></rect><path class="clsdigimar-22" d="M197.9,150.76l6.26-3.49a6.51,6.51,0,0,1,8.85,2.51l2,3.55a6.5,6.5,0,0,0-.78-2.45l-2.26-4a6.51,6.51,0,0,0-8.85-2.52l-6.27,3.5a6.51,6.51,0,0,0-2.52,8.85l.29.51A6.5,6.5,0,0,1,197.9,150.76Z"></path><path class="clsdigimar-23" d="M213.17,149.06,210.91,145a6.59,6.59,0,0,0-1-1.39l1.18,2.12a6.5,6.5,0,0,1-2.51,8.85l-6.27,3.5a6.51,6.51,0,0,1-7.8-1.13l1.08,1.94a6.5,6.5,0,0,0,8.85,2.51l6.27-3.49A6.5,6.5,0,0,0,213.17,149.06Z"></path><rect class="clsdigimar-24" x="199.08" y="133.53" width="28.94" height="25.31" rx="10.37" transform="translate(-44.15 122.45) rotate(-29.13)"></rect><path class="clsdigimar-25" d="M204.09,143.76l11.54-6.44a7.87,7.87,0,0,1,10.7,3.05l4,7.1a8.16,8.16,0,0,0-.9-2.59l-4.66-8.36a7.87,7.87,0,0,0-10.71-3l-11.53,6.43a7.87,7.87,0,0,0-3.05,10.7l.71,1.26A7.85,7.85,0,0,1,204.09,143.76Z"></path><path class="clsdigimar-26" d="M228.53,143.33,223.86,135a7.73,7.73,0,0,0-3-3l.12.2,4.66,8.36a7.85,7.85,0,0,1-3,10.7l-11.54,6.44a7.89,7.89,0,0,1-7.71,0,7.87,7.87,0,0,0,10.58,2.84L225.48,154A7.87,7.87,0,0,0,228.53,143.33Z"></path><path class="clsdigimar-27" d="M272,150.48c-20.62,1.33-32.06-1.33-44.74,5.73-8.64,4.8-23.64-22.15-15-27,13.8-7.68,17.45-18.42,28.39-35Z"></path><path class="clsdigimar-28" d="M214.48,136c13.8-7.68,18.15-16.91,29.09-33.5l-1.32-3C231.31,116.11,227,125.34,213.16,133c-4,2.22-2,8.75,1.18,15.11C212.31,142.73,211.12,137.91,214.48,136Z"></path><path class="clsdigimar-29" d="M268.75,144.67c-19.94,1.18-31.2-1.27-43.66,5.67-4.7,2.61-11.28-4.17-14.91-11.68,2.23,9.2,11.14,20.84,17.07,17.55,12.68-7.06,24.12-4.4,44.74-5.73Z"></path><ellipse class="clsdigimar-30" cx="256.31" cy="122.36" rx="10.35" ry="32.19" transform="translate(-27.14 140.25) rotate(-29.13)"></ellipse><path class="clsdigimar-31" d="M269.75,150.91c1.55-5.7-1.73-17.72-8.67-30.18-7.53-13.51-16.88-23.08-22.48-23.51-1.55,5.7,1.73,17.71,8.67,30.18C254.8,140.91,264.15,150.48,269.75,150.91Z"></path><path class="clsdigimar-32" d="M268,115.87c-9.74-17.49-23.08-28.63-29.78-24.9s-4.23,20.94,5.51,38.42,23.08,28.63,29.78,24.9S277.7,133.35,268,115.87Zm4,34.61c-5,2.78-16.06-7.55-24.72-23.08S235.65,97,240.64,94.24s16.06,7.55,24.72,23.08S277,147.69,272,150.48Z"></path><g class="clsdigimar-33"><path class="clsdigimar-34" d="M266.14,115.22c-8.65-15.53-19.72-25.86-24.71-23.08a4.92,4.92,0,0,0-2.17,3.48,3.8,3.8,0,0,1,1.38-1.38c5-2.78,16.06,7.55,24.72,23.08,6.74,12.1,10,23.79,8.79,29.67C277,142.24,273.83,129,266.14,115.22Z"></path><path class="clsdigimar-35" d="M274.26,152.19c-6.7,3.73-20-7.41-29.78-24.9C237,114,233.85,100.77,235.73,93.62c-3.31,6.41-.28,21,8,35.77,9.75,17.49,23.08,28.63,29.78,24.9a7.22,7.22,0,0,0,3.24-4.75A6.19,6.19,0,0,1,274.26,152.19Z"></path></g><path class="clsdigimar-36" d="M247.27,127.4a98.67,98.67,0,0,0,5.94,9.36l8.75-4.88-10.77-19.34-8.76,4.88A97.42,97.42,0,0,0,247.27,127.4Z"></path><path class="clsdigimar-37" d="M244.8,122.66s-1.66-3.53-2.37-5.24l8.76-4.88,2.92,5.24Z"></path><path class="clsdigimar-38" d="M258.11,126.6l-8.52,4.74q1.78,2.88,3.62,5.42l8.75-4.88Z"></path><path class="clsdigimar-39" d="M259.68,120.48c3,5.34,4,10.44,2.28,11.4s-5.52-2.6-8.49-7.94-4-10.44-2.28-11.4S256.71,115.14,259.68,120.48Z"></path><path class="clsdigimar-18" d="M236.45,181.16c2.7-.69,5.49,4.31,2,6.39a23.76,23.76,0,0,1-8.47,3.14c-2.72.4-3.91-3.26-1.19-5.39A22,22,0,0,1,236.45,181.16Z"></path><path class="clsdigimar-17" d="M230,190.69a23.76,23.76,0,0,0,8.47-3.14,3.12,3.12,0,0,0,1.53-3.5,3.24,3.24,0,0,1-.64.48,23.76,23.76,0,0,1-8.47,3.14,2.27,2.27,0,0,1-2.65-1.84C226.29,188,227.5,191.06,230,190.69Z"></path><path class="clsdigimar-18" d="M234.79,174.69c3.19-.82,6.47,5.09,2.39,7.54a28.26,28.26,0,0,1-10,3.71c-3.21.47-4.62-3.85-1.4-6.36A25.87,25.87,0,0,1,234.79,174.69Z"></path><path class="clsdigimar-17" d="M227.17,185.94a28.26,28.26,0,0,0,10-3.71,3.72,3.72,0,0,0,1.75-4.36,3.77,3.77,0,0,1-1.75,2.15,28.26,28.26,0,0,1-10,3.71,2.69,2.69,0,0,1-3-1.86C223.44,184.07,224.82,186.29,227.17,185.94Z"></path><path class="clsdigimar-18" d="M230.16,167.19c3.39-1.78,8.71,4,4.74,7.91a33,33,0,0,1-10.34,6.9c-3.51,1.4-6.27-3.11-3.31-6.83A30,30,0,0,1,230.16,167.19Z"></path><path class="clsdigimar-17" d="M224.56,182a32.91,32.91,0,0,0,10.34-6.9,4.31,4.31,0,0,0,1.14-4.68,4.81,4.81,0,0,1-1.14,1.69,32.91,32.91,0,0,1-10.34,6.9,3.19,3.19,0,0,1-4.32-2C219.19,180.18,221.61,183.18,224.56,182Z"></path><path class="clsdigimar-18" d="M224.64,161.38c3.15-1.65,8.09,3.74,4.4,7.35a40.9,40.9,0,0,1-8.83,6.78c-3.43,1.74-6.51-2.2-3.76-5.65S222,162.8,224.64,161.38Z"></path><path class="clsdigimar-17" d="M220.21,175.51a40.3,40.3,0,0,0,8.83-6.78,4.09,4.09,0,0,0,.48-5.48,4.05,4.05,0,0,1-1.31,2.82,40,40,0,0,1-8.83,6.78,3.18,3.18,0,0,1-4-.6A3.21,3.21,0,0,0,220.21,175.51Z"></path><path class="clsdigimar-18" d="M221,157.69c3.23,0,5.81,6.39-4.48,11.3.2,2.73-1.74,4.52.19,6.84,2.93,3.55,4.46,5.55,3.84,9.36s-5.44,6.42-10.13,4-11.53-14.51.64-25.33c1.12-1,6.53-3.73,7-4.23C219.61,158,220.09,157.69,221,157.69Z"></path><path class="clsdigimar-17" d="M210.4,189.17c4.68,2.44,9.48,0,10.12-4s-.91-5.81-3.85-9.36c-1.92-2.32,0-4.11-.18-6.84,10.29-4.91,7.72-11.29,4.48-11.3h-.21c1.38,2.13.65,6.43-6.76,10,.2,2.72-1.74,4.51.18,6.84,2.93,3.55,4.46,5.55,3.84,9.36C217.45,187.43,216,189.09,210.4,189.17Z"></path><rect class="clsdigimar-8" x="200.77" y="195.83" width="23.56" height="35.14"></rect><rect class="clsdigimar-40" x="198.34" y="200.14" width="28.41" height="30.83"></rect><path class="clsdigimar-41" d="M226.75,231H204.22A83.26,83.26,0,0,0,217,200.14h9.79Z"></path><path class="clsdigimar-42" d="M264.3,98a2.33,2.33,0,0,1-2-3.6l20.73-32.24A2.34,2.34,0,1,1,287,64.71L266.27,97A2.35,2.35,0,0,1,264.3,98Zm14.47,14.23L313,95.09A2.34,2.34,0,1,0,311,90.91l-34.28,17.16a2.34,2.34,0,0,0,2.1,4.18Zm4.89,21.08L322,131.8a2.34,2.34,0,0,0-.19-4.67l-38.3,1.53a2.34,2.34,0,0,0,.19,4.67Z"></path><path class="clsdigimar-8" d="M100.72,113.65a1.42,1.42,0,1,1-1.42-1.42A1.43,1.43,0,0,1,100.72,113.65Zm3.21-1.42a1.42,1.42,0,1,0,1.41,1.42A1.42,1.42,0,0,0,103.93,112.23Zm4.62,0a1.42,1.42,0,1,0,1.42,1.42A1.42,1.42,0,0,0,108.55,112.23Z"></path><rect class="clsdigimar-43" x="41.33" y="212.08" width="78.41" height="53.81" rx="11.41"></rect><rect class="clsdigimar-44" x="37.09" y="212.08" width="78.41" height="53.81" rx="11.41"></rect><path class="clsdigimar-45" d="M65.09,250.22V227.76a2.32,2.32,0,0,1,3.57-2L86.41,237a2.32,2.32,0,0,1,0,3.92L68.66,252.18A2.32,2.32,0,0,1,65.09,250.22Z"></path><path class="clsdigimar-43" d="M56,143.06H78.83a3.24,3.24,0,0,1,3.24,3.24v15.48A3.24,3.24,0,0,1,78.83,165H77.17l3.58,3.64L71.42,165H56a3.25,3.25,0,0,1-3.25-3.25V146.3A3.25,3.25,0,0,1,56,143.06Z"></path><rect class="clsdigimar-45" x="50.61" y="141.35" width="29.28" height="21.97" rx="3.79" transform="translate(130.5 304.67) rotate(180)"></rect><polyline class="clsdigimar-45" points="73.91 162.22 78.57 166.96 66.42 162.22"></polyline><path class="clsdigimar-46" d="M76.71,148.72H53.79a.86.86,0,1,1,0-1.71H76.71a.86.86,0,1,1,0,1.71Zm.86,3.61a.86.86,0,0,0-.86-.85H53.79a.86.86,0,1,0,0,1.71H76.71A.86.86,0,0,0,77.57,152.33Zm0,4.47a.87.87,0,0,0-.86-.86H53.79a.86.86,0,1,0,0,1.71H76.71A.86.86,0,0,0,77.57,156.8Z"></path><path class="clsdigimar-43" d="M392.2,76.38H369.41a3.25,3.25,0,0,0-3.25,3.25V95.11a3.25,3.25,0,0,0,3.25,3.24h1.66L367.49,102l9.33-3.64H392.2a3.24,3.24,0,0,0,3.24-3.24V79.63A3.24,3.24,0,0,0,392.2,76.38Z"></path><rect class="clsdigimar-45" x="363.64" y="74.67" width="29.28" height="21.97" rx="3.79"></rect><polyline class="clsdigimar-45" points="369.62 95.54 364.96 100.28 377.1 95.54"></polyline><path class="clsdigimar-46" d="M366,81.19a.85.85,0,0,1,.86-.85h22.92a.85.85,0,0,1,.85.85.86.86,0,0,1-.85.86H366.82A.86.86,0,0,1,366,81.19Zm.86,5.32h22.92a.86.86,0,0,0,0-1.71H366.82a.86.86,0,1,0,0,1.71Zm0,4.47h22.92a.86.86,0,0,0,.85-.86.85.85,0,0,0-.85-.85H366.82a.86.86,0,1,0,0,1.71Z"></path><path class="clsdigimar-45" d="M415.52,161v-3.19h-1.35a4.7,4.7,0,0,0-.29-.7l1-1-2.25-2.25-1,1a5.42,5.42,0,0,0-.7-.29v-1.35h-3.18v1.35a4.89,4.89,0,0,0-.7.29l-1-1-2.25,2.25,1,1a6.07,6.07,0,0,0-.29.7h-1.35V161h1.35a6.07,6.07,0,0,0,.29.7l-1,1,2.25,2.25,1-1a4.89,4.89,0,0,0,.7.29v1.35h3.18v-1.35a5.42,5.42,0,0,0,.7-.29l1,1,2.25-2.25-1-1a4.7,4.7,0,0,0,.29-.7Zm-6.18,1.61a3.21,3.21,0,1,1,3.21-3.21A3.21,3.21,0,0,1,409.34,162.61Zm10.37,11.8v-1.67H419c-.05-.13-.1-.25-.16-.37l.51-.5-1.19-1.18-.5.5a2.39,2.39,0,0,0-.37-.15v-.71h-1.67V171a1.94,1.94,0,0,0-.36.15l-.51-.5-1.18,1.18.5.5a2.39,2.39,0,0,0-.15.37h-.71v1.67h.71a2.39,2.39,0,0,0,.15.37l-.5.5,1.18,1.18.51-.5a1.94,1.94,0,0,0,.36.15v.71h1.67v-.71a2.39,2.39,0,0,0,.37-.15l.5.5,1.19-1.18-.51-.5c.06-.12.11-.24.16-.37Zm-3.24.85a1.69,1.69,0,1,1,0-3.37,1.69,1.69,0,0,1,0,3.37Z"></path><path class="clsdigimar-45" d="M23.65,186.46l-1.72-2.62-1.1.73c-.2-.15-.41-.29-.62-.42l.27-1.3-3.07-.63-.26,1.3a5.88,5.88,0,0,0-.73.14l-.73-1.11-2.62,1.72.73,1.11a5.11,5.11,0,0,0-.41.62l-1.3-.27-.64,3.06,1.3.27a5.88,5.88,0,0,0,.14.73l-1.11.73,1.72,2.61,1.11-.72a5.11,5.11,0,0,0,.62.41l-.27,1.3,3.06.63.27-1.3a4.46,4.46,0,0,0,.73-.13l.73,1.1,2.62-1.72-.73-1.1a6,6,0,0,0,.41-.62l1.3.27.63-3.07-1.29-.26a6.42,6.42,0,0,0-.14-.74Zm-4.2,4.66a3.15,3.15,0,1,1,.9-4.36A3.15,3.15,0,0,1,19.45,191.12Zm-11.78-.35-1.08-1.64-.7.45-.38-.26.17-.81-1.93-.4-.17.82a2.46,2.46,0,0,0-.46.08l-.46-.69L1,189.4l.46.69a4.56,4.56,0,0,0-.27.39l-.81-.17L0,192.24l.82.17a2.46,2.46,0,0,0,.08.46l-.69.46L1.29,195l.7-.46a2.33,2.33,0,0,0,.38.26l-.17.82,1.93.4.17-.82a3.73,3.73,0,0,0,.46-.09l.46.7,1.64-1.08L6.4,194a2.33,2.33,0,0,0,.26-.38l.82.16.4-1.92-.82-.17a3.4,3.4,0,0,0-.08-.46ZM5,193.7A2,2,0,1,1,5.6,191,2,2,0,0,1,5,193.7Z"></path><path class="clsdigimar-45" d="M185.35,77.48,183,73.93l-1.5,1a7.76,7.76,0,0,0-.84-.57l.36-1.76-4.16-.86-.36,1.76a6.78,6.78,0,0,0-1,.19l-1-1.5L171,74.52l1,1.5a6.46,6.46,0,0,0-.56.84l-1.77-.37-.86,4.17,1.77.36a6.91,6.91,0,0,0,.19,1l-1.51,1,2.34,3.55,1.5-1a7.76,7.76,0,0,0,.84.57l-.36,1.76,4.16.86.36-1.76a6.78,6.78,0,0,0,1-.19l1,1.5L183.6,86l-1-1.51a5.75,5.75,0,0,0,.56-.83l1.77.36.86-4.16L184,79.46a6.91,6.91,0,0,0-.19-1Zm-5.71,6.34a4.29,4.29,0,1,1,1.22-5.93A4.28,4.28,0,0,1,179.64,83.82Zm-16-.48-1.47-2.23-.95.62a4.3,4.3,0,0,0-.52-.35l.22-1.12-2.61-.54-.23,1.12a4.62,4.62,0,0,0-.63.11l-.62-.94-2.23,1.47.62.94a6.18,6.18,0,0,0-.36.53l-1.11-.23-.54,2.62,1.11.23c0,.21.07.41.12.62l-.94.62L155,89.05l.94-.63a4.5,4.5,0,0,0,.53.36l-.23,1.11,2.62.54.23-1.11a3.39,3.39,0,0,0,.62-.12l.62,1,2.24-1.47-.63-1a4.4,4.4,0,0,0,.36-.52l1.11.22.54-2.61-1.11-.23a4.66,4.66,0,0,0-.12-.63Zm-3.59,4a2.69,2.69,0,1,1,.77-3.73A2.7,2.7,0,0,1,160.05,87.33Z"></path><circle class="clsdigimar-47" cx="89.9" cy="82" r="9.98" transform="translate(-24.43 40.36) rotate(-22.36)"></circle><path class="clsdigimar-45" d="M89.21,90.38V88.32a6,6,0,0,1-3.13-.9l.49-1.36a5.46,5.46,0,0,0,2.94.87c1.45,0,2.43-.83,2.43-2s-.79-1.81-2.31-2.43c-2.08-.81-3.36-1.75-3.36-3.53a3.34,3.34,0,0,1,3.08-3.28V73.62h1.26v2a5.51,5.51,0,0,1,2.66.72l-.51,1.35a4.89,4.89,0,0,0-2.57-.7c-1.58,0-2.17.94-2.17,1.76,0,1.06.76,1.59,2.53,2.33,2.11.85,3.17,1.91,3.17,3.73a3.55,3.55,0,0,1-3.23,3.47v2.12Z"></path><circle class="clsdigimar-47" cx="241.08" cy="69.59" r="10.96" transform="translate(133.9 296.47) rotate(-80.81)"></circle><path class="clsdigimar-45" d="M240.32,78.79V76.53a6.53,6.53,0,0,1-3.43-1l.54-1.5a6,6,0,0,0,3.23,1c1.59,0,2.66-.92,2.66-2.19s-.87-2-2.53-2.67c-2.29-.89-3.7-1.93-3.7-3.87a3.67,3.67,0,0,1,3.39-3.61V60.39h1.39v2.18a5.94,5.94,0,0,1,2.91.78l-.56,1.48a5.42,5.42,0,0,0-2.83-.76c-1.72,0-2.37,1-2.37,1.93,0,1.16.83,1.74,2.78,2.55,2.31.94,3.47,2.11,3.47,4.1a3.9,3.9,0,0,1-3.54,3.81v2.33Z"></path><circle class="clsdigimar-47" cx="400.04" cy="114.66" r="8.04" transform="translate(222.94 491.24) rotate(-80.81)"></circle><path class="clsdigimar-45" d="M399.48,121.41v-1.66A4.87,4.87,0,0,1,397,119l.4-1.1a4.34,4.34,0,0,0,2.37.71,1.73,1.73,0,0,0,1.95-1.61c0-.91-.64-1.47-1.86-2-1.67-.66-2.71-1.42-2.71-2.85a2.69,2.69,0,0,1,2.48-2.64V107.9h1v1.6a4.32,4.32,0,0,1,2.14.58l-.41,1.08a3.93,3.93,0,0,0-2.07-.56c-1.27,0-1.74.76-1.74,1.42,0,.85.6,1.28,2,1.87,1.7.69,2.55,1.55,2.55,3a2.86,2.86,0,0,1-2.59,2.8v1.71Z"></path><path class="clsdigimar-47" d="M26.14,224.24a6.1,6.1,0,1,1-6.1-6.1A6.1,6.1,0,0,1,26.14,224.24Z"></path><path class="clsdigimar-45" d="M19.61,229.36V228.1a3.59,3.59,0,0,1-1.9-.55l.29-.83a3.33,3.33,0,0,0,1.8.53c.89,0,1.48-.51,1.48-1.22s-.48-1.11-1.41-1.48c-1.27-.5-2.05-1.08-2.05-2.16a2,2,0,0,1,1.88-2v-1.26h.77v1.21a3.38,3.38,0,0,1,1.62.44l-.31.82a3,3,0,0,0-1.57-.42c-1,0-1.32.57-1.32,1.07s.46,1,1.55,1.42c1.28.53,1.93,1.17,1.93,2.28a2.17,2.17,0,0,1-2,2.12v1.3Z"></path><circle class="clsdigimar-45" cx="30.97" cy="133.33" r="8.61" transform="translate(-48.42 21.83) rotate(-22.38)"></circle><path class="clsdigimar-48" d="M31,126.8a17.61,17.61,0,0,1,.54,3.26,32.5,32.5,0,0,1,.13,3.27l-.67-.66a27.83,27.83,0,0,1,2.89.16,18.1,18.1,0,0,1,2.88.5,18.1,18.1,0,0,1-2.88.5A27.83,27.83,0,0,1,31,134h-.65v-.67q0-1.64.12-3.27A19.45,19.45,0,0,1,31,126.8Z"></path><path class="clsdigimar-45" d="M345.13,78.45a10,10,0,1,1-10-10A10,10,0,0,1,345.13,78.45Z"></path><path class="clsdigimar-48" d="M341,78.15a4.94,4.94,0,1,0-7.34,1.37l-2.82,4.84a.72.72,0,0,0,1.25.73l2.82-4.85A4.92,4.92,0,0,0,341,78.15Zm-6,.54a3.5,3.5,0,1,1,4.78-1.26A3.5,3.5,0,0,1,334.93,78.69Z"></path><path class="clsdigimar-45" d="M403.91,217.56a6.17,6.17,0,1,1-6.17-6.17A6.17,6.17,0,0,1,403.91,217.56Z"></path><path class="clsdigimar-48" d="M400,217.78a2.87,2.87,0,0,0-2.59-4.66,2.87,2.87,0,0,0-2.46,2.34,2.82,2.82,0,0,0,.6,2.31,3.33,3.33,0,0,1,.8,2.07v.33h-.07v1.38h3v-1.38h-.07v-.33A3.21,3.21,0,0,1,400,217.78Zm-4-.39a2.22,2.22,0,0,1-.47-1.83,2.29,2.29,0,0,1,1.95-1.85,2.27,2.27,0,0,1,2.05,3.69,3.8,3.8,0,0,0-.94,2.44V220h-.3a5.3,5.3,0,0,0,.35-2.55.31.31,0,0,0-.2-.17.43.43,0,0,0-.31,0,.51.51,0,0,0-.4-.2h0a.43.43,0,0,0-.37.21l0,0a.38.38,0,0,0-.4,0c-.3.25,0,1.63.32,2.64h-.29v-.12A3.92,3.92,0,0,0,396,217.39Zm1.54,2.57a6.6,6.6,0,0,1-.43-2.43s0,0,.09,0l.05,0a.4.4,0,0,0,.08.4.22.22,0,0,0,.26,0,.21.21,0,0,0,.13-.21.54.54,0,0,0-.13-.29l0-.07s.06-.06.09-.06a.2.2,0,0,1,.18.11.48.48,0,0,0-.14.22.25.25,0,0,0,.16.34.26.26,0,0,0,.25-.06.47.47,0,0,0,.07-.42.18.18,0,0,1,.11,0l0,0A5.7,5.7,0,0,1,398,220Z"></path><rect class="clsdigimar-43" x="112.73" y="227.61" width="55.28" height="38.28" rx="2.77"></rect><rect class="clsdigimar-49" x="109.62" y="227.61" width="55.28" height="38.28" rx="2.77"></rect><path class="clsdigimar-50" d="M112.32,263.41l24.55-25.59a.62.62,0,0,1,.87,0l23.85,25Z"></path><path class="clsdigimar-51" d="M112.32,263.41l23.58-21.68a2,2,0,0,1,2.72,0l23.57,21.68a1.43,1.43,0,0,1-1,2.49H113.29A1.44,1.44,0,0,1,112.32,263.41Z"></path><path class="clsdigimar-52" d="M135.08,249.86l-23.29-20.35a1.08,1.08,0,0,1,.71-1.9H162a1.09,1.09,0,0,1,.72,1.9l-23.3,20.35A3.3,3.3,0,0,1,135.08,249.86Z"></path><path class="clsdigimar-50" d="M135.8,252.42l-24-22.91h50.94l-24,22.91A2.22,2.22,0,0,1,135.8,252.42Z"></path><path class="clsdigimar-53" d="M397.48,271H28a2.56,2.56,0,0,1-2.56-2.56h0A2.56,2.56,0,0,1,28,265.87H397.48a2.56,2.56,0,0,1,2.56,2.55h0A2.56,2.56,0,0,1,397.48,271Z"></path><polygon class="clsdigimar-54" points="391.51 176.28 393.42 178.41 400.5 179.51 391 182.08 388.4 177.58 391.51 176.28"></polygon><path class="clsdigimar-55" d="M344.23,140.44c-2.89,8.25,0,10.54,5.06,12.22,2,.66,18.64-.9,23.61.67s15.5,26.07,15.5,26.07l4.57-2.74S382.57,148,381.06,147c-2.34-1.63-16.08-3-20-4s-7.07-5.1-7.07-5.1Z"></path><path class="clsdigimar-56" d="M345.6,121.56s1.12,11.63,2.46,14.05,17.15,7.74,18.54,7.84a9.69,9.69,0,0,0,3.64-1s3.49,1.26,4.06,1-3.12-2.94-4.54-3.22-3.57.84-3.57.84-12.21-5.09-13.58-7.27-2.4-13-2.4-13Z"></path><polygon class="clsdigimar-57" points="348.6 110.18 347.09 114.16 350.88 114.99 351.55 110.5 348.6 110.18"></polygon><path class="clsdigimar-57" d="M347.06,107.24a2,2,0,0,1,.1.41,6.53,6.53,0,0,0,1,2.88,3.75,3.75,0,0,0,2.72,1.66,3.67,3.67,0,0,0,2.71-1,6.25,6.25,0,0,0,1.57-2.51c.54-1.46,1.15-3.28.3-4.59-.41-.63-2.56-1.68-4.09-2.37a2.34,2.34,0,0,0-2.7.59l-1.5,1.67a2.37,2.37,0,0,0-.47,2.3Z"></path><path class="clsdigimar-58" d="M349.22,103.14a1,1,0,0,0-1.14.62,1.7,1.7,0,0,0,.08,1.36,5.16,5.16,0,0,0,.82,1.14c-.58.85-1.58,1.92-1.46,2.94-.79-.5-.74-1.15-1.36-1.85-1.16-1.31-3-6.63,1.17-8.16,4.45-5.81,10.81,3.06,11.81,2.6a3.79,3.79,0,0,1-3.55,3.36,4.85,4.85,0,0,1-3.07-.54,7.88,7.88,0,0,0-1.4-.75c-.37-.12-.75,1.47-1.06,1.33S349.59,103.24,349.22,103.14Z"></path><polygon class="clsdigimar-54" points="390.01 177.62 391.91 179.74 399 180.84 389.49 183.41 386.9 178.92 390.01 177.62"></polygon><path class="clsdigimar-59" d="M344.61,139.06c-2.89,8.26-1.87,13.25,3.17,14.93,2,.67,25.5.85,25.5.85l13.62,25.9,4.57-2.74s-11.28-28.9-12.6-30S363.92,145,360,144s-5.63-7.54-5.63-7.54Z"></path><path class="clsdigimar-60" d="M351.3,114.48c-3.77-3.21-8.34-1-9.16,9a220.45,220.45,0,0,0-.2,23c6.49,1.52,13.24-.68,18.93-3.25,0,0-5.29-6.64-6.43-13.15C353.52,124.78,354.36,117.08,351.3,114.48Z"></path><path class="clsdigimar-57" d="M348.35,122.37a2.33,2.33,0,0,0-1.9,2.56c.4,3.49,1.26,10.12,2.23,11.89,1.35,2.42,14,7.2,15.4,7.3a7.49,7.49,0,0,0,2.88-.67,2.35,2.35,0,0,1,1.59,0c1.06.35,2.84.88,3.24.67.57-.31-3.13-2.95-4.54-3.22a5.44,5.44,0,0,0-2.67.43,2.32,2.32,0,0,1-1.91-.11c-2.39-1.25-8.35-4.48-9.44-6.22-1-1.52-1.74-7.22-2.13-10.55a2.34,2.34,0,0,0-2.75-2Z"></path><path class="clsdigimar-8" d="M347.53,115c-4.72,1.29-2.53,11.16-2.53,11.16,2.18.77,4.88.47,7.85-.39C352,123.37,351.79,113.8,347.53,115Z"></path><path class="clsdigimar-61" d="M379.47,145H361a1.06,1.06,0,1,1,0-2.12h17.51l2.49-16.3a1.06,1.06,0,0,1,2.09.32l-2.62,17.2A1.06,1.06,0,0,1,379.47,145Z"></path><rect class="clsdigimar-43" x="306.97" y="152.86" width="72.48" height="113.04" rx="7.96"></rect><rect class="clsdigimar-62" x="303.11" y="152.86" width="72.48" height="113.04" rx="7.96"></rect><rect class="clsdigimar-8" x="303.11" y="160.48" width="72.48" height="97.79"></rect><g class="clsdigimar-63"><path class="clsdigimar-64" d="M369,167.78H309.74a1.4,1.4,0,0,1-1.4-1.4h0a1.4,1.4,0,0,1,1.4-1.41H369a1.41,1.41,0,0,1,1.4,1.41h0A1.4,1.4,0,0,1,369,167.78Z"></path><path class="clsdigimar-64" d="M369,173.93H309.74a1.4,1.4,0,0,1-1.4-1.41h0a1.4,1.4,0,0,1,1.4-1.4H369a1.4,1.4,0,0,1,1.4,1.4h0A1.41,1.41,0,0,1,369,173.93Z"></path><path class="clsdigimar-64" d="M369,180.07H309.74a1.39,1.39,0,0,1-1.4-1.4h0a1.39,1.39,0,0,1,1.4-1.4H369a1.4,1.4,0,0,1,1.4,1.4h0A1.4,1.4,0,0,1,369,180.07Z"></path><path class="clsdigimar-64" d="M369,186.22H309.74a1.4,1.4,0,0,1-1.4-1.4h0a1.4,1.4,0,0,1,1.4-1.41H369a1.41,1.41,0,0,1,1.4,1.41h0A1.4,1.4,0,0,1,369,186.22Z"></path><rect class="clsdigimar-65" x="308.34" y="189.35" width="62.02" height="47.25" rx="4.57"></rect></g><path class="clsdigimar-66" d="M367,253H311.72a3.38,3.38,0,0,1-3.38-3.39v-.56a3.38,3.38,0,0,1,3.38-3.38H367a3.38,3.38,0,0,1,3.39,3.38v.56A3.39,3.39,0,0,1,367,253Zm2-12.83H309.71a1.37,1.37,0,0,0-1.37,1.37h0a1.37,1.37,0,0,0,1.37,1.37H369a1.37,1.37,0,0,0,1.37-1.37h0A1.37,1.37,0,0,0,369,240.18Z"></path><path class="clsdigimar-67" d="M94.92,181a39.6,39.6,0,0,0,9.34-18.35l3-.61s-1.19,14.55-6,19.58S94.92,181,94.92,181Z"></path><path class="clsdigimar-57" d="M105,162.44a2.76,2.76,0,0,1-1-2.85c.46-1.8,1.63-2,1.45-1a2.36,2.36,0,0,0,.44,1.8,2.79,2.79,0,0,1,.2,1.84Z"></path><path class="clsdigimar-57" d="M95.63,175c.26.46-.53,4.07-.53,4.07l3.23-.87-.72-3.6Z"></path><path class="clsdigimar-57" d="M96,175.23a7.78,7.78,0,0,1-3.29-.86l-2.55-2-.25-4.53,5.2-3.58S102.6,174.21,96,175.23Z"></path><path class="clsdigimar-54" d="M91.06,169.74a9.34,9.34,0,0,0,5-9.53,8.24,8.24,0,0,1-3.24,2,12.13,12.13,0,0,0-3.41,1.81A3.62,3.62,0,0,0,88,167.48c-1.39.42-1.85,2.25-1.48,3.66a5.48,5.48,0,0,0,2.84,3.47c1.38.69,3.35.31,4.77-.29-1.35-.4-4-2-1.83-2.54A11.84,11.84,0,0,0,91.06,169.74Z"></path><path class="clsdigimar-45" d="M93.07,179.07a26.62,26.62,0,0,1,1.15-2.64l5.72-.43.33,1.61Z"></path><polygon class="clsdigimar-54" points="100.58 260.47 100.67 263 106.56 265.87 97.23 265.76 98.42 259.9 100.58 260.47"></polygon><polygon class="clsdigimar-54" points="81.84 260.47 81.75 263 75.86 265.86 85.19 265.76 84 259.9 81.84 260.47"></polygon><path class="clsdigimar-68" d="M93.06,208.75c0-.06,0-.11,0-.16l-1.93.08-1.79-.07s0,.09,0,.14l-8,.33v54.09l3.64-.28s3.85-24.69,6.25-40.87c2.4,16.18,6.25,40.88,6.25,40.88l3.64.28v-54.1Z"></path><path class="clsdigimar-57" d="M125,170.69s.52-2,1.58-2.11l-.32,1.18a7.25,7.25,0,0,0,2-1.77c.46-.81,1.77,2.25.47,3.43a3.86,3.86,0,0,1-2.33,1.19Z"></path><path class="clsdigimar-69" d="M79.16,216.32s7-33.56,14.12-37.84c2.78-1.67,10.86-.12,18.16-1.69,9.65-2.08,13.73-6.71,13.73-6.71l3,1.92s-5.89,8.16-24.52,13.38c-3.91,10.57-.51,30.94-.51,30.94S86.38,214.94,79.16,216.32Z"></path><path class="clsdigimar-70" d="M284.23,213.83c-1.23.28-8.57-1.79-11.69-4.37,0,0,4.06-15.07,3.95-18.79s1.89-11.54,4.56-5.69S284.23,213.83,284.23,213.83Z"></path><polygon class="clsdigimar-54" points="284.01 259.94 284.17 262.47 278.59 265.9 288.14 265.9 286.74 259.22 284.01 259.94"></polygon><path class="clsdigimar-71" d="M290.09,207.21c.09,4.54-2.74,54.83-2.74,54.83l-3.6.64-5.16-54.94Z"></path><polygon class="clsdigimar-54" points="279.15 259.94 279.31 262.47 273.74 265.9 283.21 265.57 281.88 259.22 279.15 259.94"></polygon><path class="clsdigimar-72" d="M285.23,207.21c.09,4.54-2.73,54.83-2.73,54.83l-3.6.64-3.52-55.35Z"></path><path class="clsdigimar-45" d="M286.92,210.17c-7.77.23-11.56-1.89-12-2.62s.17-1.26.43-2.26c1-4,3.61-14.21,3.52-17.19-.12-3.72,1.89-11.53,4.56-5.68S286.92,210.17,286.92,210.17Z"></path><polygon class="clsdigimar-73" points="246.02 192.31 265.68 208.75 270.63 199.73 253.54 187.01 246.02 192.31"></polygon><polygon class="clsdigimar-45" points="247.47 192.51 265.65 207.21 269.9 199.84 253.63 187.7 247.47 192.51"></polygon><polygon class="clsdigimar-12" points="246.91 190.88 247.72 191.45 252.56 188.04 251.92 187.59 246.91 190.88"></polygon><path class="clsdigimar-74" d="M259.26,181.68l-.34,3.43s13,13.83,24.92.65L283,178S275.4,193.74,259.26,181.68Z"></path><path class="clsdigimar-57" d="M259.26,181.68c-1.64-.55-2.31-2.27-3.21-.41-1.67,3.43,2.87,3.84,2.87,3.84Z"></path><path class="clsdigimar-54" d="M258,174.85l-2.65,10,.06,1.35.84-1.05,2.59-10C259,174.39,258.35,174.13,258,174.85Z"></path><path class="clsdigimar-57" d="M257.83,182.24s-1.95.69-2.15.29,1.52-1.15,1.89-1.75,1.11,1,1.11,1Z"></path><polygon class="clsdigimar-57" points="279.32 172.62 281.26 177.12 282.99 175.59 283.25 170.66 279.32 172.62"></polygon><path class="clsdigimar-57" d="M276.34,165.51c-.83,4.93-1.42,8.23,2.28,8.45,3.36.19,6.23-5.05,6.23-5.05C287.44,163.15,277.78,157,276.34,165.51Z"></path><path class="clsdigimar-54" d="M273,160.6c3.39,4.91,8.17,5.65,9.67,5.14.69-.24.71.51.44,2,1.88-.87,1.21,1.51-.16,2.38a10.69,10.69,0,0,0-.61,2.13s4.65-3,4.67-6.22c0-3.9-2.88-3.46-2.88-3.46s-1.71-5.26-6.42-3.61Z"></path><polygon class="clsdigimar-45" points="279.5 175.83 284.12 173.25 285.43 175.6 278.71 179.35 279.5 175.83"></polygon><path class="clsdigimar-75" d="M257.63,199.73l.53,4.14c-.12.11,14.38,5.59,20.55-10.64a172.82,172.82,0,0,1-3.91,18.84,29.57,29.57,0,0,0,16.57,1.79s1.28-28.75-5.07-37.74c-3.37-4.76-8.1,3-9.27,7.81C275.54,190,272,203.59,257.63,199.73Z"></path><path class="clsdigimar-57" d="M257.63,199.73s-2.5-.68-3.44-.06.37,2.64,1.46,3.78a2.22,2.22,0,0,0,2.51.42Z"></path><path class="clsdigimar-45" d="M384.17,246.36c1-.51,34-11.8,34-11.8l3,4.46Z"></path><polygon class="clsdigimar-46" points="421.18 239.02 420.88 254.13 384.17 246.36 421.18 239.02"></polygon><polygon class="clsdigimar-46" points="420.88 254.13 384.17 246.36 425.03 244.07 420.88 254.13"></polygon><polygon class="clsdigimar-45" points="425.03 244.07 384.17 246.36 429.77 251.97 425.03 244.07"></polygon><path class="clsdigimar-76" d="M43.59,10.35c.79.38,10.28,7.55,10.28,7.55L83.4,13.47Z"></path><polygon class="clsdigimar-77" points="53.08 30.46 53.87 17.9 83.4 13.47 53.08 30.46"></polygon><polygon class="clsdigimar-78" points="53.08 30.46 61.6 22.97 83.4 13.47 53.08 30.46"></polygon><polygon class="clsdigimar-76" points="61.6 22.97 73.55 31.52 83.4 13.47 61.6 22.97"></polygon><circle class="clsdigimar-79" cx="427.36" cy="127.13" r="1.97"></circle><circle class="clsdigimar-79" cx="395.44" cy="258.27" r="1.97"></circle><circle class="clsdigimar-79" cx="417.74" cy="61.1" r="1.97"></circle><circle class="clsdigimar-79" cx="136.95" cy="65.73" r="1.97"></circle><circle class="clsdigimar-79" cx="208.11" cy="90.98" r="1.97"></circle><circle class="clsdigimar-79" cx="296.83" cy="56.17" r="1.97"></circle><circle class="clsdigimar-79" cx="41.33" cy="94.24" r="1.97"></circle><circle class="clsdigimar-79" cx="54.91" cy="185.91" r="1.97"></circle><path class="clsdigimar-45" d="M398.26,138.27h-.9v-.9a.4.4,0,0,0-.4-.4.39.39,0,0,0-.39.4v.9h-.9a.4.4,0,1,0,0,.79h.9v.9a.39.39,0,0,0,.39.4.4.4,0,0,0,.4-.4v-.9h.9a.4.4,0,0,0,0-.79Z"></path><path class="clsdigimar-45" d="M419,211h-.9v-.9a.4.4,0,0,0-.4-.4.39.39,0,0,0-.39.4v.9h-.91a.4.4,0,0,0,0,.79h.91v.9a.39.39,0,0,0,.39.4.4.4,0,0,0,.4-.4v-.9h.9a.4.4,0,0,0,0-.79Z"></path><path class="clsdigimar-45" d="M397.44,239.78h-.9v-.9a.4.4,0,0,0-.4-.4.39.39,0,0,0-.39.4v.9h-.91a.4.4,0,0,0-.39.4.39.39,0,0,0,.39.39h.91v.9a.39.39,0,0,0,.39.4.4.4,0,0,0,.4-.4v-.9h.9a.38.38,0,0,0,.39-.39A.39.39,0,0,0,397.44,239.78Z"></path><path class="clsdigimar-45" d="M395.75,50.47h-.91v-.91a.39.39,0,0,0-.39-.39.4.4,0,0,0-.4.39v.91h-.9a.38.38,0,0,0-.39.39.39.39,0,0,0,.39.4h.9v.9a.39.39,0,0,0,.4.39.38.38,0,0,0,.39-.39v-.9h.91a.4.4,0,0,0,.39-.4A.39.39,0,0,0,395.75,50.47Z"></path><path class="clsdigimar-45" d="M332,40.78h-.9v-.9a.4.4,0,0,0-.79,0v.9h-.9a.4.4,0,0,0-.4.4.39.39,0,0,0,.4.39h.9v.9a.4.4,0,1,0,.79,0v-.9h.9a.39.39,0,0,0,.4-.39A.4.4,0,0,0,332,40.78Z"></path><path class="clsdigimar-45" d="M289.43,86.38h-.9v-.9a.39.39,0,0,0-.39-.4.4.4,0,0,0-.4.4v.9h-.9a.4.4,0,1,0,0,.79h.9v.9a.4.4,0,0,0,.4.4.39.39,0,0,0,.39-.4v-.9h.9a.4.4,0,1,0,0-.79Z"></path><path class="clsdigimar-45" d="M228.05,44.17h-.9v-.91a.4.4,0,0,0-.4-.39.39.39,0,0,0-.39.39v.91h-.91a.39.39,0,0,0-.39.39.4.4,0,0,0,.39.4h.91v.9a.38.38,0,0,0,.39.39.39.39,0,0,0,.4-.39V45h.9a.39.39,0,0,0,.39-.4A.38.38,0,0,0,228.05,44.17Z"></path><path class="clsdigimar-45" d="M126.34,88.07h-.91v-.9a.38.38,0,0,0-.39-.39.39.39,0,0,0-.4.39v.9h-.9a.39.39,0,0,0-.39.4.38.38,0,0,0,.39.39h.9v.9a.4.4,0,0,0,.4.4.39.39,0,0,0,.39-.4v-.9h.91a.39.39,0,0,0,.39-.39A.4.4,0,0,0,126.34,88.07Z"></path><path class="clsdigimar-45" d="M157.08,35.13h-.9v-.9a.4.4,0,0,0-.4-.4.39.39,0,0,0-.39.4v.9h-.91a.39.39,0,0,0-.39.39.4.4,0,0,0,.39.4h.91v.9a.38.38,0,0,0,.39.39.39.39,0,0,0,.4-.39v-.9h.9a.39.39,0,0,0,.39-.4A.38.38,0,0,0,157.08,35.13Z"></path><path class="clsdigimar-45" d="M13.29,99.12h-.9v-.9a.39.39,0,0,0-.4-.39.38.38,0,0,0-.39.39v.9h-.9a.4.4,0,0,0-.4.4.39.39,0,0,0,.4.39h.9v.91a.39.39,0,0,0,.39.39.4.4,0,0,0,.4-.39v-.91h.9a.38.38,0,0,0,.39-.39A.39.39,0,0,0,13.29,99.12Z"></path><path class="clsdigimar-45" d="M3,154.05h-.9v-.9a.4.4,0,0,0-.4-.4.39.39,0,0,0-.39.4v.9H.39a.39.39,0,0,0-.39.39.4.4,0,0,0,.39.4H1.3v.9a.38.38,0,0,0,.39.39.39.39,0,0,0,.4-.39v-.9H3a.39.39,0,0,0,.39-.4A.38.38,0,0,0,3,154.05Z"></path><path class="clsdigimar-45" d="M68.73,199.74h-.9v-.9a.4.4,0,0,0-.79,0v.9h-.9a.4.4,0,0,0-.4.4.39.39,0,0,0,.4.39H67v.91a.4.4,0,0,0,.79,0v-.91h.9a.39.39,0,0,0,.4-.39A.4.4,0,0,0,68.73,199.74Z"></path><path class="clsdigimar-45" d="M81.53,44.39h-.9v-.9a.4.4,0,0,0-.4-.4.39.39,0,0,0-.39.4v.9h-.9a.39.39,0,0,0-.4.39.4.4,0,0,0,.4.4h.9v.9a.38.38,0,0,0,.39.39.39.39,0,0,0,.4-.39v-.9h.9a.39.39,0,0,0,.39-.4A.38.38,0,0,0,81.53,44.39Z"></path><path class="clsdigimar-45" d="M70.42,114.26h-.9v-.9a.4.4,0,1,0-.79,0v.9h-.9a.4.4,0,1,0,0,.79h.9v.9a.4.4,0,1,0,.79,0v-.9h.9a.4.4,0,1,0,0-.79Z"></path><path class="clsdigimar-45" d="M426.68,99.89h-.9V99a.4.4,0,0,0-.79,0v.91h-.9a.39.39,0,0,0-.4.39.4.4,0,0,0,.4.4h.9v.9a.4.4,0,0,0,.79,0v-.9h.9a.4.4,0,0,0,.4-.4A.39.39,0,0,0,426.68,99.89Z"></path><path class="clsdigimar-80" d="M197.72,29h0a11.78,11.78,0,0,1-11.78-11.78h0A11.78,11.78,0,0,1,197.72,5.43h0A11.78,11.78,0,0,1,209.5,17.22h0A11.78,11.78,0,0,1,197.72,29Z"></path><path class="clsdigimar-8" d="M197.72,9.7a7.52,7.52,0,1,0,7.51,7.52A7.52,7.52,0,0,0,197.72,9.7Zm0,1.31a6.17,6.17,0,0,1,3.78,1.3,7.54,7.54,0,0,1-3.12,2.3,29.6,29.6,0,0,0-2.18-3.4A5.81,5.81,0,0,1,197.72,11Zm-2.8.68a28.15,28.15,0,0,1,2.21,3.36,20,20,0,0,1-5.43.7A6.2,6.2,0,0,1,194.92,11.69Zm-3.41,5.53c0-.06,0-.11,0-.16a21.12,21.12,0,0,0,6.23-.83c.15.3.29.59.42.9A9.63,9.63,0,0,0,193,21.18,6.15,6.15,0,0,1,191.51,17.22Zm6.21,6.2a6.16,6.16,0,0,1-3.81-1.31,8.42,8.42,0,0,1,4.76-3.78A25.45,25.45,0,0,1,200,23,6.18,6.18,0,0,1,197.72,23.42Zm3.44-1.05a24.83,24.83,0,0,0-1.2-4.31,12.22,12.22,0,0,1,3.88.12A6.19,6.19,0,0,1,201.16,22.37Zm-1.7-5.55q-.22-.53-.48-1.05a8.82,8.82,0,0,0,3.47-2.56,6.18,6.18,0,0,1,1.46,3.66A13.35,13.35,0,0,0,199.46,16.82Z"></path><path class="clsdigimar-80" d="M351.66,11l-3.34,1.83L335.44,6.68,331.78,0s-5.35,2.52.05,10.93,3.53,6.54,3.53,6.54S324.4,23.53,324,25c-.29,1.05,5.39,12.13,8.52,18.1a7.31,7.31,0,0,0,8.07,4,5.87,5.87,0,0,0,1.27-.49c2.74-1.5,15.51-11.4,15.51-11.4L363.16,32Z"></path><polygon class="clsdigimar-80" points="360.23 3.94 370.72 27.95 364.99 31.09 352.7 8.67 360.23 3.94"></polygon><path class="clsdigimar-81" d="M34.41,101h0A15.33,15.33,0,0,1,19.09,85.66h0A15.32,15.32,0,0,1,34.41,70.33h0A15.33,15.33,0,0,1,49.74,85.66h0A15.33,15.33,0,0,1,34.41,101Z"></path><path class="clsdigimar-82" d="M42.82,85.23a8.26,8.26,0,0,0-16.5-.15c0,.12,0,.24,0,.36a8.19,8.19,0,0,0,1.18,4.23L26,94.07l4.57-1.46a8.26,8.26,0,0,0,12.24-7.17Zm-8.25,7.1a7,7,0,0,1-3.82-1.14L28.08,92,29,89.48a6.83,6.83,0,0,1-1.32-4c0-.22,0-.45,0-.67a6.95,6.95,0,0,1,13.83.13c0,.18,0,.36,0,.54A6.93,6.93,0,0,1,34.57,92.33Z"></path><path class="clsdigimar-82" d="M38.35,87.09c-.2-.1-1.2-.58-1.38-.65s-.32-.1-.46.1-.52.65-.64.79-.24.15-.44,0a5.55,5.55,0,0,1-1.63-1A5.78,5.78,0,0,1,32.68,85c-.12-.2,0-.31.09-.41s.2-.23.3-.35l.08-.1a1.78,1.78,0,0,0,.12-.24.36.36,0,0,0,0-.35c0-.1-.46-1.09-.63-1.49s-.33-.33-.45-.33l-.39,0a.73.73,0,0,0-.54.25,2.24,2.24,0,0,0-.71,1.68,2.6,2.6,0,0,0,.1.68,4.51,4.51,0,0,0,.73,1.39,8.34,8.34,0,0,0,3.45,3c2.06.8,2.06.53,2.43.5a2.08,2.08,0,0,0,1.37-1,1.65,1.65,0,0,0,.12-1C38.69,87.24,38.55,87.19,38.35,87.09Z"></path><path class="clsdigimar-83" d="M268.06,38.74h0a10.32,10.32,0,0,1-10.33-10.32h0a10.32,10.32,0,0,1,10.33-10.33h0a10.32,10.32,0,0,1,10.32,10.33h0A10.32,10.32,0,0,1,268.06,38.74Z"></path><path class="clsdigimar-8" d="M264.75,29.38a.25.25,0,0,0,.36-.18c0-.12.1-.44.14-.57s0-.23-.1-.39a2,2,0,0,1-.47-1.38,3.33,3.33,0,0,1,3.47-3.37,2.63,2.63,0,0,1,2.93,2.7c0,2-.9,3.74-2.23,3.74a1.08,1.08,0,0,1-1.11-1.35,15.56,15.56,0,0,0,.62-2.5.94.94,0,0,0-.95-1.06c-.75,0-1.36.78-1.36,1.82a2.67,2.67,0,0,0,.23,1.12s-.78,3.26-.91,3.83a7.87,7.87,0,0,0,0,2.68.09.09,0,0,0,.16,0,7.6,7.6,0,0,0,1.28-2.3l.49-1.94a2,2,0,0,0,1.72.88c2.27,0,3.81-2.07,3.81-4.83a4.22,4.22,0,0,0-4.47-4c-3.34,0-5,2.4-5,4.41A2.72,2.72,0,0,0,264.75,29.38Z"></path><path class="clsdigimar-84" d="M384.17,69h0a17.08,17.08,0,0,1-17.08-17.08h0A17.09,17.09,0,0,1,384.17,34.8h0a17.09,17.09,0,0,1,17.09,17.09h0A17.09,17.09,0,0,1,384.17,69Z"></path><path class="clsdigimar-8" d="M384.17,44.21c2.5,0,2.8,0,3.79,0a5.41,5.41,0,0,1,1.74.32,2.9,2.9,0,0,1,1.08.71,3,3,0,0,1,.7,1.07,5.41,5.41,0,0,1,.32,1.74c0,1,.05,1.29.05,3.79s0,2.8-.05,3.78a5.34,5.34,0,0,1-.32,1.74,3,3,0,0,1-.7,1.08,2.88,2.88,0,0,1-1.08.7,5.14,5.14,0,0,1-1.74.32c-1,.05-1.29.06-3.79.06s-2.79,0-3.78-.06a5.08,5.08,0,0,1-1.74-.32,3.08,3.08,0,0,1-1.78-1.78,5.08,5.08,0,0,1-.32-1.74c-.05-1-.06-1.28-.06-3.78s0-2.8.06-3.79a5.14,5.14,0,0,1,.32-1.74,2.84,2.84,0,0,1,.7-1.07,2.9,2.9,0,0,1,1.08-.71,5.34,5.34,0,0,1,1.74-.32c1,0,1.28,0,3.78,0m0-1.69c-2.54,0-2.86,0-3.86.06A6.72,6.72,0,0,0,378,43a4.57,4.57,0,0,0-1.66,1.08,4.66,4.66,0,0,0-1.08,1.66,6.81,6.81,0,0,0-.44,2.28c0,1-.06,1.31-.06,3.86s0,2.86.06,3.86A6.69,6.69,0,0,0,375.3,58a4.57,4.57,0,0,0,1.08,1.66A4.33,4.33,0,0,0,378,60.76a6.69,6.69,0,0,0,2.27.44c1,0,1.32.06,3.86.06s2.87,0,3.87-.06a6.8,6.8,0,0,0,2.27-.44A4.33,4.33,0,0,0,392,59.68,4.57,4.57,0,0,0,393.05,58a7,7,0,0,0,.44-2.27c0-1,.05-1.32.05-3.86s0-2.87-.05-3.86a7.07,7.07,0,0,0-.44-2.28A4.66,4.66,0,0,0,392,44.09,4.57,4.57,0,0,0,390.31,43a6.83,6.83,0,0,0-2.27-.43c-1,0-1.32-.06-3.87-.06"></path><path class="clsdigimar-8" d="M384.17,47.08A4.81,4.81,0,1,0,389,51.89a4.81,4.81,0,0,0-4.81-4.81m0,7.93a3.12,3.12,0,1,1,3.13-3.12A3.12,3.12,0,0,1,384.17,55"></path><path class="clsdigimar-8" d="M390.3,46.89a1.13,1.13,0,1,1-1.13-1.13,1.12,1.12,0,0,1,1.13,1.13"></path><path class="clsdigimar-85" d="M125,45.61h0a17.26,17.26,0,0,1-17.26-17.26h0A17.26,17.26,0,0,1,125,11.09h0A17.26,17.26,0,0,1,142.3,28.35h0A17.26,17.26,0,0,1,125,45.61Z"></path><path class="clsdigimar-8" d="M122.41,38.79h4.2V28.26h2.93l.31-3.52h-3.24v-2c0-.83.17-1.16,1-1.16h2.27V17.92h-2.91c-3.12,0-4.53,1.38-4.53,4v2.81h-2.19v3.57h2.19Z"></path><path class="clsdigimar-83" d="M160.82,59.79a2.23,2.23,0,0,1-.06-.58,5.55,5.55,0,0,0-.08-.7,6.69,6.69,0,0,0-.19-.93,8.72,8.72,0,0,0-1-2.41,9.15,9.15,0,0,0-2.24-2.59,8.94,8.94,0,0,0-8.42-1.45,8.36,8.36,0,0,0-2.28,1.17,10.11,10.11,0,0,0-1,.83,9.46,9.46,0,0,0-.89,1,8.85,8.85,0,0,0-.26,10.51,10.73,10.73,0,0,0,.84,1,11.69,11.69,0,0,0,1,.89,8.66,8.66,0,0,0,2.22,1.27,8.92,8.92,0,0,0,8.48-1,9.14,9.14,0,0,0,2.37-2.47A9,9,0,0,0,160.39,62a7.36,7.36,0,0,0,.23-.93,6,6,0,0,0,.11-.69,2.3,2.3,0,0,1,.09-.58,2.41,2.41,0,0,1,0,.59,4.11,4.11,0,0,1-.07.71,6.77,6.77,0,0,1-.18.95,9.08,9.08,0,0,1-1,2.46,9.36,9.36,0,0,1-2.4,2.61,9.2,9.2,0,0,1-3.95,1.68,9.33,9.33,0,0,1-4.91-.5A9.06,9.06,0,0,1,145.94,67a10.27,10.27,0,0,1-1.05-.93,10.55,10.55,0,0,1-.89-1.11,9.3,9.3,0,0,1,.27-11.09,10.61,10.61,0,0,1,.94-1.06,11.34,11.34,0,0,1,1.09-.88,8.76,8.76,0,0,1,2.41-1.2,9.35,9.35,0,0,1,4.92-.27,9.23,9.23,0,0,1,3.87,1.88A9.06,9.06,0,0,1,159.77,55a8.43,8.43,0,0,1,.91,2.5,6.8,6.8,0,0,1,.15,1,6.29,6.29,0,0,1,0,.71A2.39,2.39,0,0,1,160.82,59.79Z"></path><path class="clsdigimar-83" d="M159,54.08s-.14.18-.46.41l-.59.42-.37.26-.45.23a10.32,10.32,0,0,1-5.37,1.36l-.82,0-.78-.12-.38-.06-.36-.1c-.24-.07-.48-.12-.7-.2a11.34,11.34,0,0,1-2.28-1.05,5.38,5.38,0,0,1-1.78-1.45c0-.06.72.5,1.95,1.14a13.09,13.09,0,0,0,2.25.92l.67.17.35.09.37,0,.74.11.78,0a11.05,11.05,0,0,0,5.2-1.16l.45-.2.39-.22.62-.34A1.71,1.71,0,0,1,159,54.08Z"></path><path class="clsdigimar-83" d="M144.38,65.19s.14-.17.46-.41l.59-.42.37-.25.45-.24a10.32,10.32,0,0,1,5.37-1.35l.82,0,.78.12.38.06.36.1c.24.07.48.12.7.19a12.56,12.56,0,0,1,2.28,1,5.07,5.07,0,0,1,1.77,1.46c0,.06-.71-.51-1.94-1.15a14,14,0,0,0-2.25-.91c-.22-.07-.44-.12-.67-.18l-.35-.08-.37-.06-.74-.11-.78,0a11.17,11.17,0,0,0-5.2,1.17l-.46.2-.38.21L145,65C144.6,65.13,144.4,65.22,144.38,65.19Z"></path><path class="clsdigimar-83" d="M160.82,60a80.72,80.72,0,0,1-9.14,0,82.45,82.45,0,0,1-9.13-.47,83.48,83.48,0,0,1,9.14,0A86,86,0,0,1,160.82,60Z"></path><path class="clsdigimar-83" d="M151.26,68.7a83.63,83.63,0,0,1,0-9.14,82.88,82.88,0,0,1,.47-9.13,80.72,80.72,0,0,1,0,9.14A82.88,82.88,0,0,1,151.26,68.7Z"></path><path class="clsdigimar-83" d="M151.26,68.68a7.29,7.29,0,0,1-2.2-2.17,12.26,12.26,0,0,1-1.64-3,11,11,0,0,1-.7-4.09,10.39,10.39,0,0,1,.92-4.05,13,13,0,0,1,1.78-2.88,8,8,0,0,1,2.28-2.09c.05.06-.87.81-2,2.31a14.29,14.29,0,0,0-1.64,2.84,10.77,10.77,0,0,0-.84,3.88,11.12,11.12,0,0,0,.64,3.92,12.4,12.4,0,0,0,1.49,2.92A28.14,28.14,0,0,0,151.26,68.68Z"></path><path class="clsdigimar-83" d="M151.91,50.44a7.29,7.29,0,0,1,2.2,2.17,11.75,11.75,0,0,1,1.63,3,10.84,10.84,0,0,1,.71,4.09,10.57,10.57,0,0,1-.92,4,12.85,12.85,0,0,1-1.79,2.88,7.83,7.83,0,0,1-2.28,2.09c0-.06.87-.81,2-2.31a13.63,13.63,0,0,0,1.64-2.84,10.61,10.61,0,0,0,.85-3.88,11.18,11.18,0,0,0-.64-3.93,13.34,13.34,0,0,0-1.49-2.91C152.76,51.26,151.86,50.49,151.91,50.44Z"></path></g></g></g></svg>