<svg xmlns="http://www.w3.org/2000/svg" viewBox="0 0 301.17 248.17"><defs><style>.clspho-1{fill:#cddff3;}.clspho-2,.clspho-5{fill:#f3f4f4;}.clspho-3{fill:#a0d9df;}.clspho-3,.clspho-4{opacity:0.5;}.clspho-4{fill:#8cd9df;}.clspho-5{opacity:0.54;}.clspho-6{fill:#fff;}.clspho-7{opacity:0.7;}.clspho-8{fill:#799fd3;}.clspho-9{fill:#9fbee3;}.clspho-10{fill:#0e2235;}.clspho-11{fill:#16496d;}.clspho-12{fill:#009ca3;}.clspho-13{fill:#f5ba90;}.clspho-14{fill:#e0ab85;}.clspho-15{fill:#131f2d;}.clspho-16{fill:#204a80;}.clspho-17{fill:#00b0e7;}.clspho-18{fill:#0f98c7;}.clspho-19{fill:#374154;}.clspho-20{fill:#474b4d;}.clspho-21{fill:#282c2d;}.clspho-22{fill:#454849;}.clspho-23{fill:#4a4b4c;}.clspho-24{fill:#393a3c;}.clspho-25{fill:#7e80a5;}.clspho-26{fill:#232728;}.clspho-27{fill:#73b46f;}.clspho-28{fill:#9ce297;}.clspho-29{fill:#789fd3;}.clspho-30{fill:#233862;}.clspho-31{fill:#d0a1ca;}.clspho-32{fill:#a070af;}.clspho-33{fill:#323433;}.clspho-34{fill:#edbe6e;}.clspho-35{fill:#fcfdff;}.clspho-36{fill:#95cc80;}.clspho-37{fill:#dd709c;}.clspho-38{fill:#f397bb;}.clspho-39{fill:#d0d2d3;}.clspho-40{fill:#992524;}.clspho-41{fill:#c24243;}.clspho-42,.clspho-46{fill:none;stroke:#231f20;stroke-linecap:round;stroke-miterlimit:10;}.clspho-42{stroke-width:1.79px;}.clspho-43{fill:#6f6f6f;}.clspho-44{fill:#999b9e;}.clspho-45{fill:#d1d3d4;}.clspho-46{stroke-width:1.51px;}</style></defs><g id="Layer_2" data-name="Layer 2"><g id="Layer_1-2" data-name="Layer 1"><path class="clspho-1" d="M290.42,205.14c-23.17-4-102,2.8-126,5.48s-51.8-3.53-66.26-12.64S.18,198.76,4,223.25s37.22,11,75.14,20.8,123.19-1.23,142.43,0,36.87-2.46,61.66-7.38S303.85,207.48,290.42,205.14Z"></path><path class="clspho-2" d="M4.58,156.57l10.51-1.19a2.33,2.33,0,0,1,2.2,1.06c.61.94,1.26,1.87,2,2.77a38.71,38.71,0,0,0,4.16,4.65A2.32,2.32,0,0,1,24,166.4l-4,10.29a2.27,2.27,0,0,0,1.12,2.88l9.05,4.49a2.26,2.26,0,0,0,2.88-.8l5.47-8.58a2.28,2.28,0,0,1,2.53-1A40.9,40.9,0,0,0,53.81,175a2.32,2.32,0,0,1,2.33,1.62L58,182.5a2.36,2.36,0,0,0,2.67,1.59l9.83-2a2.27,2.27,0,0,0,1.83-2.49l-.88-7.85-.21-1.91a41.25,41.25,0,0,0,10.36-8.33,2.25,2.25,0,0,1,2.51-.61l8.29,3.26A2.35,2.35,0,0,0,95.35,163l3.43-6.92,1-2a2.36,2.36,0,0,0-.84-3.05l-7.16-4.58a2.25,2.25,0,0,1-1-2.46,40.27,40.27,0,0,0,1.09-8.6c0-.25,0-.48,0-.73a1.94,1.94,0,0,1,0-.24,2.31,2.31,0,0,1,1.62-2l9.59-3a1.69,1.69,0,0,0,.31-.13,2.34,2.34,0,0,0,1.26-2.54l-2-9.8a2.33,2.33,0,0,0-2.54-1.86l-11,1.24a2.24,2.24,0,0,1-2.26-1.18,40.37,40.37,0,0,0-3.43-5.25q-1-1.35-2.16-2.58a2.39,2.39,0,0,1-.45-2.46L84.75,95a2.26,2.26,0,0,0-1.1-2.86l-9-4.42a2.37,2.37,0,0,0-3.06.85L67.3,95.34a2.32,2.32,0,0,1-2.71,1,41.09,41.09,0,0,0-12.37-2.22A2.3,2.3,0,0,1,50,92.46l-2.73-8.64a2.39,2.39,0,0,0-2.74-1.62l-9.77,2A2.29,2.29,0,0,0,33,86.66l0,.46,1,9.12a2.34,2.34,0,0,1-1.26,2.35h0a40.36,40.36,0,0,0-6.06,3.85c-1,.79-2,1.63-3,2.5a2.3,2.3,0,0,1-2.41.47l-8.41-3.3a2.37,2.37,0,0,0-3,1.15l-4.41,8.92a3,3,0,0,0-.23.79,2.38,2.38,0,0,0,1.06,2.21l5.73,3.64a2.35,2.35,0,0,1,1.07,2.06,2.39,2.39,0,0,1-.11.64A40.6,40.6,0,0,0,11,137.45a2.3,2.3,0,0,1-1.22,2.2l-.37.15-7.76,2.45A2.33,2.33,0,0,0,0,144.91l0,.23L2,154.7A2.36,2.36,0,0,0,4.58,156.57ZM71.8,126.73a27.15,27.15,0,0,1,1.43,4.85,21.42,21.42,0,0,1-1.52,11.54c-.16.32-.32.64-.49.95C60.94,163.16,34,159.36,29.55,137.83a22.3,22.3,0,0,1,.79-10.06,14.27,14.27,0,0,1,.81-2,25,25,0,0,1,5-6.91A21.9,21.9,0,0,1,71.8,126.73Z"></path><path class="clspho-3" d="M81.75,110.89s2.1-41.82,21.65-68a4.64,4.64,0,0,1,8.35,2.58,1.55,1.55,0,0,1,0,.22C112,53.07,90.35,85.92,81.75,110.89Z"></path><path class="clspho-4" d="M80,123s17.61-53.31,52.2-78.73A4.93,4.93,0,0,1,139,45c1.06,1.34,1.65,3.5.8,7C137.5,61.33,99.26,94.8,80,123Z"></path><path class="clspho-5" d="M246.75,61.18c-10.09-20.33-45-6.41-45-6.41S184.58,97.26,177.6,99.58s7.57-39.19,7.57-39.19C171,61.8,139,85.84,139,85.84s11,43.42,3.61,43.95-7.73-38.95-7.73-38.95c-12.63,6.7-22,24.86-22,24.86-10.6,28.63,26.71,40.76,26.71,40.76s3.47,15.13-2.46,34.45h0a52.09,52.09,0,0,0-2.55,9.56l3.66-.73c.1-1,.24-2.06.43-3v-.06c.14-.62.34-1.49.59-2.56h0c.69-2.41,1.12-4.18,1.37-5.44v0c2-7.54,5-17.45,7.88-20a7.27,7.27,0,0,1-1.12-1.52l1.12,1.52c8.94,12.19,40.72,8.2,57.46,1.15s8.16-10.46-2.83-16.59-30.26-.1-36.7-2.08,1.44-6.8,13.25-8.22S199.64,152,218.8,150s26.45-40.16,26.45-40.16c-12.18,6.61-36.88,4.07-38.66-.23S239.36,99,244.46,96.54,256.83,81.51,246.75,61.18Z"></path><path class="clspho-6" d="M225.1,196s4.38-5.11.27-8.36c0,0-3-1.82-5.45-1.67,0,0,3.47,5.82,2.34,6.4s-3.39-6.76-3.39-6.76-6.84-.67-9,.39c0,0,5.85,4.78,4.61,5.07s-7.54-4.41-7.54-4.41-6.36,1.08-6,5,2.53,5.08,3.5,5,6.59-2.26,6.72-1.47-3.27,3.37-5.65,3.49c0,0,4.49,4.95,7.47,3.52s3.23-3.69,5.09-4.54,3.44-.85,2.68,0-4.13,1.71-5.19,3.59-2,3.14,1.06,2.68,8.1-2.72,8.32-5.31Z"></path><path class="clspho-6" d="M204,191.69S221.28,191,225.1,196a12.43,12.43,0,0,0,3.44,4.83l.4,1.1s-3-3.15-4.06-3.35C224.88,198.54,226.55,192.42,204,191.69Z"></path><path class="clspho-6" d="M228.54,200.79a10.85,10.85,0,0,1,4,7.64l-.68.06s-1.18-5.06-3.32-7.05S228.54,200.79,228.54,200.79Z"></path><path class="clspho-6" d="M238.61,191.78s-6.14-3.44-3.28-8.11c0,0,2.3-2.87,4.76-3.61,0,0-1.32,7,0,7.13s.9-7.86.9-7.86,6.47-3.12,9-2.87c0,0-4,6.8-2.71,6.63s5.82-7,5.82-7,6.64-1.23,7.7,2.7-.65,5.9-1.64,6.15-7.29.16-7.12,1,4.42,2.13,6.8,1.39c0,0-2.63,6.47-6.07,6.15s-4.5-2.46-6.63-2.62-3.69.4-2.62,1,4.67.19,6.39,1.65,3.11,2.36-.09,3-8.93.24-10.07-2.21Z"></path><path class="clspho-6" d="M257.78,180s-17.2,5.57-19.17,11.8a13.1,13.1,0,0,1-1.64,6V199s1.8-4.18,2.79-4.75C239.76,194.24,235.91,188.83,257.78,180Z"></path><path class="clspho-6" d="M237,197.76a11.36,11.36,0,0,0-1.14,8.93l.68-.18s-.66-5.4.73-8.12S237,197.76,237,197.76Z"></path><path class="clspho-6" d="M229.33,184.15s9.19-5.15,4.9-12.13c0,0-3.43-4.29-7.1-5.39,0,0,2,10.41,0,10.66s-1.35-11.76-1.35-11.76-9.68-4.66-13.48-4.29c0,0,6,10.17,4,9.92s-8.69-10.53-8.69-10.53-9.93-1.84-11.52,4,1,8.82,2.45,9.19,10.9.24,10.66,1.47-6.62,3.18-10.17,2.08c0,0,3.92,9.68,9.07,9.19s6.73-3.68,9.92-3.92,5.51.61,3.92,1.47-7,.28-9.56,2.47-4.65,3.53.13,4.51,13.35.37,15.07-3.31Z"></path><path class="clspho-6" d="M200.66,166.51s25.73,8.33,28.67,17.64a19.58,19.58,0,0,0,2.45,8.94v1.84s-2.69-6.25-4.16-7.11C227.62,187.82,233.37,179.74,200.66,166.51Z"></path><path class="clspho-6" d="M231.78,193.09a17,17,0,0,1,1.71,13.36l-1-.27s1-8.08-1.09-12.14S231.78,193.09,231.78,193.09Z"></path><path class="clspho-6" d="M229.11,220.71a15.87,15.87,0,0,1-15.87-15.86H245A15.86,15.86,0,0,1,229.11,220.71Z"></path><rect class="clspho-6" x="212.88" y="204.85" width="32.61" height="0.49" transform="translate(458.38 410.18) rotate(180)"></rect><path class="clspho-6" d="M235.88,220.71H221a1.27,1.27,0,0,1,1.27-1.27h12.31a1.27,1.27,0,0,1,1.27,1.27Z"></path><g class="clspho-7"><path class="clspho-8" d="M225.1,196s4.38-5.11.27-8.36c0,0-3-1.82-5.45-1.67,0,0,3.47,5.82,2.34,6.4s-3.39-6.76-3.39-6.76-6.84-.67-9,.39c0,0,5.85,4.78,4.61,5.07s-7.54-4.41-7.54-4.41-6.36,1.08-6,5,2.53,5.08,3.5,5,6.59-2.26,6.72-1.47-3.27,3.37-5.65,3.49c0,0,4.49,4.95,7.47,3.52s3.23-3.69,5.09-4.54,3.44-.85,2.68,0-4.13,1.71-5.19,3.59-2,3.14,1.06,2.68,8.1-2.72,8.32-5.31Z"></path><path class="clspho-8" d="M204,191.69S221.28,191,225.1,196a12.43,12.43,0,0,0,3.44,4.83l.4,1.1s-3-3.15-4.06-3.35C224.88,198.54,226.55,192.42,204,191.69Z"></path><path class="clspho-8" d="M228.54,200.79a10.85,10.85,0,0,1,4,7.64l-.68.06s-1.18-5.06-3.32-7.05S228.54,200.79,228.54,200.79Z"></path><path class="clspho-8" d="M238.61,191.78s-6.14-3.44-3.28-8.11c0,0,2.3-2.87,4.76-3.61,0,0-1.32,7,0,7.13s.9-7.86.9-7.86,6.47-3.12,9-2.87c0,0-4,6.8-2.71,6.63s5.82-7,5.82-7,6.64-1.23,7.7,2.7-.65,5.9-1.64,6.15-7.29.16-7.12,1,4.42,2.13,6.8,1.39c0,0-2.63,6.47-6.07,6.15s-4.5-2.46-6.63-2.62-3.69.4-2.62,1,4.67.19,6.39,1.65,3.11,2.36-.09,3-8.93.24-10.07-2.21Z"></path><path class="clspho-8" d="M257.78,180s-17.2,5.57-19.17,11.8a13.1,13.1,0,0,1-1.64,6V199s1.8-4.18,2.79-4.75C239.76,194.24,235.91,188.83,257.78,180Z"></path><path class="clspho-8" d="M237,197.76a11.36,11.36,0,0,0-1.14,8.93l.68-.18s-.66-5.4.73-8.12S237,197.76,237,197.76Z"></path><path class="clspho-9" d="M229.33,184.15s9.19-5.15,4.9-12.13c0,0-3.43-4.29-7.1-5.39,0,0,2,10.41,0,10.66s-1.35-11.76-1.35-11.76-9.68-4.66-13.48-4.29c0,0,6,10.17,4,9.92s-8.69-10.53-8.69-10.53-9.93-1.84-11.52,4,1,8.82,2.45,9.19,10.9.24,10.66,1.47-6.62,3.18-10.17,2.08c0,0,3.92,9.68,9.07,9.19s6.73-3.68,9.92-3.92,5.51.61,3.92,1.47-7,.28-9.56,2.47-4.65,3.53.13,4.51,13.35.37,15.07-3.31Z"></path><path class="clspho-9" d="M200.66,166.51s25.73,8.33,28.67,17.64a19.58,19.58,0,0,0,2.45,8.94v1.84s-2.69-6.25-4.16-7.11C227.62,187.82,233.37,179.74,200.66,166.51Z"></path><path class="clspho-9" d="M231.78,193.09a17,17,0,0,1,1.71,13.36l-1-.27s1-8.08-1.09-12.14S231.78,193.09,231.78,193.09Z"></path><path class="clspho-9" d="M229.11,220.71a15.87,15.87,0,0,1-15.87-15.86H245A15.86,15.86,0,0,1,229.11,220.71Z"></path><rect class="clspho-8" x="212.88" y="204.85" width="32.61" height="0.49" transform="translate(458.38 410.18) rotate(180)"></rect><path class="clspho-8" d="M235.88,220.71H221a1.27,1.27,0,0,1,1.27-1.27h12.31a1.27,1.27,0,0,1,1.27,1.27Z"></path></g><rect class="clspho-10" x="67.93" y="79.64" width="3.47" height="154"></rect><rect class="clspho-10" x="83.55" y="184.36" width="1.66" height="41.85" transform="translate(-119.1 116.63) rotate(-44.11)"></rect><rect class="clspho-10" x="54.11" y="184.36" width="1.66" height="41.85" transform="translate(-48.5 390.93) rotate(-135.89)"></rect><path class="clspho-10" d="M69.18,211.6l-11.83-8.2.47-1.54,23.36-.39L81.7,203l-11.54,8.6Zm-8.72-8.1,9.18,6.37,9-6.67Z"></path><rect class="clspho-10" x="66.77" y="135.26" width="5.79" height="9.37"></rect><rect class="clspho-10" x="164.72" y="97.4" width="2.85" height="126.66" transform="translate(332.29 321.45) rotate(-180)"></rect><rect class="clspho-10" x="153.35" y="183.53" width="1.37" height="34.42" transform="translate(124.91 452.09) rotate(-135.89)"></rect><rect class="clspho-10" x="177.57" y="183.53" width="1.37" height="34.42" transform="translate(-89.46 180.68) rotate(-44.11)"></rect><path class="clspho-10" d="M165.73,205.91l-9.48-7.07.42-1.24,19.22.32.38,1.26-9.73,6.75ZM158.79,199l7.37,5.49,7.55-5.24Z"></path><rect class="clspho-10" x="163.76" y="143.14" width="4.76" height="7.71" transform="translate(332.29 293.99) rotate(-180)"></rect><path class="clspho-11" d="M166.36,96.42c-3.06,2-8.42-.64-12-6s-3.94-11.31-.88-13.34l17.55-9c2.47-1.65,6.8.51,9.66,4.82s3.18,9.12.71,10.77Z"></path><ellipse class="clspho-6" cx="159.94" cy="86.76" rx="5.99" ry="10.44" transform="translate(-21.28 103.09) rotate(-33.63)"></ellipse><polygon class="clspho-10" points="154.25 98.78 180.92 98.78 180.92 78.86 179.53 78.86 179.53 97.4 155.64 97.7 155.64 92.13 154.25 90.2 154.25 98.78"></polygon><path class="clspho-12" d="M45.42,208.85s1.93-2.26.12-3.7a5.14,5.14,0,0,0-2.41-.73s1.53,2.57,1,2.82-1.51-3-1.51-3-3-.29-4,.18c0,0,2.58,2.11,2,2.24s-3.33-1.95-3.33-1.95-2.82.48-2.67,2.19,1.12,2.25,1.55,2.2,2.92-1,3-.65S37.78,210,36.73,210c0,0,2,2.18,3.3,1.55s1.43-1.63,2.25-2,1.53-.38,1.19,0-1.83.76-2.3,1.59-.89,1.39.48,1.19,3.57-1.21,3.67-2.35Z"></path><path class="clspho-12" d="M36.1,207s7.63-.29,9.32,1.89A5.44,5.44,0,0,0,46.94,211l.18.49s-1.33-1.39-1.8-1.48C45.32,210,46.06,207.29,36.1,207Z"></path><path class="clspho-12" d="M46.94,211a4.78,4.78,0,0,1,1.75,3.38l-.3,0a7.73,7.73,0,0,0-1.47-3.12C46,210.4,46.94,211,46.94,211Z"></path><path class="clspho-12" d="M51.39,207s-2.72-1.52-1.45-3.58a5.48,5.48,0,0,1,2.1-1.6s-.58,3.08,0,3.15.4-3.47.4-3.47,2.86-1.38,4-1.27c0,0-1.77,3-1.19,2.93s2.57-3.11,2.57-3.11,2.93-.54,3.4,1.19-.29,2.61-.72,2.72-3.22.07-3.15.43,2,.94,3,.62c0,0-1.16,2.86-2.68,2.71s-2-1.08-2.93-1.15-1.63.18-1.16.43,2.07.08,2.83.73,1.37,1,0,1.33-4,.11-4.45-1Z"></path><path class="clspho-12" d="M59.86,201.79s-7.6,2.46-8.47,5.21a5.73,5.73,0,0,1-.72,2.64v.55a7.7,7.7,0,0,1,1.23-2.1S50.19,205.7,59.86,201.79Z"></path><path class="clspho-12" d="M50.67,209.64a5,5,0,0,0-.51,4l.3-.08a8.17,8.17,0,0,1,.32-3.59C51.4,208.72,50.67,209.64,50.67,209.64Z"></path><path class="clspho-9" d="M47.29,203.63s4.06-2.28,2.16-5.36a7.94,7.94,0,0,0-3.14-2.38s.87,4.6,0,4.71-.59-5.2-.59-5.2-4.28-2.06-6-1.9c0,0,2.65,4.5,1.79,4.39s-3.85-4.66-3.85-4.66-4.38-.81-5.09,1.79.44,3.9,1.09,4.06,4.82.11,4.71.65-2.93,1.41-4.5.92c0,0,1.74,4.28,4,4.06s3-1.62,4.39-1.73,2.43.27,1.73.65-3.09.12-4.22,1.09-2.06,1.56,0,2,5.9.17,6.66-1.46Z"></path><path class="clspho-9" d="M34.62,195.83s11.37,3.68,12.67,7.8a8.55,8.55,0,0,0,1.08,4v.81s-1.19-2.76-1.84-3.14C46.53,205.25,49.07,201.68,34.62,195.83Z"></path><path class="clspho-9" d="M48.37,207.58a7.51,7.51,0,0,1,.75,5.91l-.45-.13s.44-3.57-.48-5.36S48.37,207.58,48.37,207.58Z"></path><path class="clspho-9" d="M47.19,219.79a7,7,0,0,1-7-7h14A7,7,0,0,1,47.19,219.79Z"></path><rect class="clspho-8" x="40.02" y="212.78" width="14.41" height="0.22" transform="translate(94.45 425.77) rotate(180)"></rect><path class="clspho-8" d="M50.18,219.79H43.62a.56.56,0,0,1,.56-.56h5.44a.56.56,0,0,1,.56.56Z"></path><path class="clspho-13" d="M263.34,31.76s-11.79,9.12-19.87,8.38A18.31,18.31,0,0,1,247.73,35c-.59-1.47-1.07-2.74-1.42-3.84a36.71,36.71,0,0,1-1.18-4l4.22-5.06,4-4.83C255.25,28.05,263.34,31.76,263.34,31.76Z"></path><path class="clspho-14" d="M254.31,21.32s-2,6.76-8,9.79a36.71,36.71,0,0,1-1.18-4l4.22-5.06Z"></path><path class="clspho-13" d="M242.78,27.45s13-.61,12.51-8.56S256.2,5.5,247.9,5.55s-9.73,3.18-10.24,5.88S239.39,27.4,242.78,27.45Z"></path><path class="clspho-15" d="M256.63,2.73c.08-.15.32-.31.9-.47a2.44,2.44,0,0,0-1.16-.07A3,3,0,0,0,253.87,0,1.79,1.79,0,0,1,255,1.08c-2-1.32-5.7-1.79-15.14,1-12.45,3.68-6.56,10.9-4.72,11.52s5.41-2.91,8.52-3.31,4.62,3.88,5.78,4.27.53-.6,1.8-1.53,1.89,1.36,1.81,3,2.26,3.18,2.26,3.18l1.5-2.51c1.5-2.51,1.46-11.78.17-13.48C256.86,3,256.74,2.89,256.63,2.73Z"></path><path class="clspho-16" d="M296.09,215.64s3.09,4.12,1.91,6.4-4.87,3.26-5.89,6.14-3.14,4.14-4.78,3.83l-7.82-1.48s-.82-2.31,2.22-2.39,4.79-3.34,5.22-6.61a58.13,58.13,0,0,1,1.7-7.48l6.47-.27Z"></path><path class="clspho-16" d="M260.81,218.35s.2,7.92-1.52,8.64L238,225.65s.15-2.47,3.61-2.8,9.6-2,10.89-6.38S260.81,218.35,260.81,218.35Z"></path><path class="clspho-17" d="M249.6,105.88s.28,13.89.59,30.58c.41,22.68.88,50.53.78,55.79-.19,9.14.4,23.82.4,23.82s3.31,3.68,10.44,2.65a235.66,235.66,0,0,0,10.67-42.36c0-.36.11-.72.15-1.09,3-22.32,8.51-69.39,8.51-69.39Z"></path><path class="clspho-18" d="M249.6,105.88s.28,13.89.59,30.58l22.29,39.9c0-.36.11-.72.15-1.09,3-22.32,8.51-69.39,8.51-69.39Z"></path><path class="clspho-17" d="M256.36,105.37s10.63,53,19.37,78.68,11.62,32.88,11.62,32.88,8.08-1.54,9.15-3.43c0,0,3.44-45.65-3.28-58.21-3.8-7.1-6.14-26.68-5.19-33.19s1.87-19.59,1.87-19.59Z"></path><path class="clspho-13" d="M251.89,75.58s-6.58,9.86-9.06,12.42c-1.78,1.84-4.13-.83-5.6-2.45s.13-9.6,3.56-15.58C243.41,65.4,251.9,74.55,251.89,75.58Z"></path><path class="clspho-15" d="M260.62,58c-4.79,12.48-8.89,22.78-8.89,22.78a14.52,14.52,0,0,1-10.57-.92C232.47,75.77,230.74,72,230.74,72s3.89-10.35,7.75-21.4c2.59-7.42,10.55-16.11,19-13.21C264.66,39.85,264.66,47.46,260.62,58Z"></path><path class="clspho-14" d="M228.51,75.11c4.77,1.07,18.5,6.32,17.71,8.85-1.26,4-3.78,5.68-7.83,4-3.83-1.62-10-6.05-15-10.15Z"></path><path class="clspho-13" d="M221.68,76.11c-1-1.14-3.84-4.46-2.94-5.23,2.15-1.83,2.59,1.14,6,2.16,2.21.67,1.76,6.61,1.76,6.61A14.39,14.39,0,0,1,221.68,76.11Z"></path><path class="clspho-13" d="M223.15,77.58c-3.33-3.22-4.26-4.07-1.28-7.36,2.44-2.67,10.22,5,9.74,8.29S225.59,79.93,223.15,77.58Z"></path><path class="clspho-19" d="M287.89,105.19A59.86,59.86,0,0,1,271,114.76c-7.38,2.63-16.76,3.12-19.82,3.93a1.3,1.3,0,0,1-.94-.13c-.26-.09-2.64-9.19-5.3-20.71-.11-.46-.23-.93-.31-1.4l0-.16c-1-4.5-2-9.24-3-14-.74-3.7-1.42-7.37-2-10.82-.72-4.32-1.25-8.3-1.51-11.59C238,58.38,238,57,238,55.83a28.73,28.73,0,0,1,5.46-16.09l2.22-3.17a14,14,0,0,0,8.55-3.21c2.87-2.38,6-4.94,6.65-4.65,5,2.08,9.65,8.4,13.39,17a102.36,102.36,0,0,1,5.46,16.71c.46,1.88.88,3.82,1.26,5.75l.21,1.07c.95,5.29,2.11,10.23,3.28,14.62,1.56,5.93,3.15,10.86,4.27,14.33.57,1.77,1,3.14,1.28,4.12S288.62,104.61,287.89,105.19Z"></path><path class="clspho-13" d="M273.26,73.4s.4,11.85-.12,15.38c-.37,2.53-3.84,1.73-6,1.27s-5.49-7.88-6.18-14.73C260.44,70.08,272.67,72.55,273.26,73.4Z"></path><path class="clspho-15" d="M270.11,54c3.39,12.93,6.05,23.69,6.05,23.69A14.52,14.52,0,0,1,267,83.13c-9.45,1.74-13.06-.32-13.06-.32s-2.86-10.67-6.17-21.9c-2.22-7.54-.81-19.24,7.72-21.8C262.82,36.92,267.25,43.11,270.11,54Z"></path><rect class="clspho-20" x="210.88" y="67.94" width="16.04" height="13.7" rx="0.88" transform="translate(-10.16 42.49) rotate(-10.84)"></rect><rect class="clspho-21" x="210.91" y="68.26" width="12.69" height="13.7" rx="0.88" transform="translate(-10.25 42.19) rotate(-10.84)"></rect><path class="clspho-22" d="M215.38,70.06l-9.55,1.82v0c-1.68.53-2.62,3-2.09,5.79s2.32,4.75,4.09,4.61h0a1.46,1.46,0,0,0,.22,0,.79.79,0,0,0,.22-.06l8.87-1.69a1.66,1.66,0,0,0,.22,0c1.84-.35,2.89-3,2.33-5.85S217.22,69.7,215.38,70.06Z"></path><ellipse class="clspho-23" cx="207.16" cy="77.04" rx="3.48" ry="5.31" transform="translate(-10.79 40.33) rotate(-10.84)"></ellipse><ellipse class="clspho-24" cx="207.73" cy="76.93" rx="2.91" ry="4.44" transform="translate(-10.76 40.43) rotate(-10.84)"></ellipse><ellipse class="clspho-25" cx="209.15" cy="76.66" rx="1.46" ry="2.23" transform="translate(-10.68 40.69) rotate(-10.84)"></ellipse><path class="clspho-26" d="M215.32,75.5c.53,2.77-.46,5.3-2.21,5.81l-1.53.3a2.42,2.42,0,0,0,.52-.23c1.42-.82,2.16-3.11,1.68-5.59s-2-4.33-3.63-4.57a2.33,2.33,0,0,0-.79,0l1.54-.3C212.79,70.57,214.77,72.62,215.32,75.5Z"></path><path class="clspho-24" d="M218.06,66l-2.71.52a.51.51,0,0,0-.36.45l-.29,1.69,4.75-.91-.89-1.46A.52.52,0,0,0,218.06,66Z"></path><path class="clspho-13" d="M228.19,70.38c-.54-1.38-2.53-5.5-3.54-5-2.39,1.11-.12,2.83-.67,6.34-.35,2.27,4.94,4.78,4.94,4.78A14.12,14.12,0,0,0,228.19,70.38Z"></path><path class="clspho-13" d="M269.86,83.19c-9.9-5-36.58-5.91-40.91-8.92-2.81-2-2.18-7.57-8-7.06-3.32.29-2.09,11,.53,12.78,3.66,2.46,5.5.84,5.9-.66,2.94-.21,28,10.1,35.17,12.39,3.25,1,8.22,2.22,9.46-.06C273.94,88,273.53,85,269.86,83.19Z"></path><path class="clspho-27" d="M127.62,182.53c2.92,2.66,1.65,5.32-.5,10.27s-2.54,23.2-2.54,23.2l1.78-.25s-.26-18.77,2.15-23.84,3.43-7.61,5.58-6S127.62,182.53,127.62,182.53Z"></path><path class="clspho-28" d="M126,179.08c.36-1.58,2.46-3.29,5.27-4.73-.42,2.32-1.76,6.13-.37,6.91,1.87,1.05.18-4.26.91-7.18a34.47,34.47,0,0,1,8.74-2.87v0c-1.65,4.19-3.81,5.83-2.92,6.47.67.48,2.84-4.36,5.72-6.84,2.15-.11,4,.18,5.06,1,1.66,1.32,2.78,2.49,1.11,6.51a7.65,7.65,0,0,1-3.65,1.32c-3.8.38-5.58.5-2.91,1.77,1.3.62,3.49,0,5.26-.43-.58,1.06-1.28,2.26-2.14,3.62a14,14,0,0,1-1.78,2.27,5.6,5.6,0,0,1-2.86,0c-1.78-.77-6.34-3.17-7.49-2.16s8.46,1.62,7.8,4.14c-4.64,2.68-9.95,1.41-10.89-1C129.61,184.61,125,183.83,126,179.08Z"></path><path class="clspho-27" d="M135.61,197.11c-5.07-3.8-10.27-.25-12.93,3.8s-.76,13.19-.76,13.19,1,0,1-.38-2.79-10.78,3.81-15.47c4.12-2.93,7.1-1.52,7.48-.13s-1.65,3.93-1.65,3.93Z"></path><path class="clspho-28" d="M124,189.29c5.07,0,6.72,7.86,5.32,12.43S126,214.78,126,214.78l-1.27-1.27s4.82-11.92,3.68-17.25-3.94-6.21-4.44-6.21S124,189.29,124,189.29Z"></path><path class="clspho-27" d="M128.2,201.75a3.73,3.73,0,0,1,1.34-1.12,9.14,9.14,0,0,1-.27,1.09c-.63,2.08-1.37,5-2,7.51l-.28-1.6c0-.18,0-.38-.07-.59A49.1,49.1,0,0,0,128.2,201.75Z"></path><path class="clspho-28" d="M129.59,201.79c9.64-4.06,4.56-9.63,13-5.95a6.29,6.29,0,0,1,2.06,1.81,6.28,6.28,0,0,1-2.69.22c-2.54-.38-1.65,1.65,2.54,2.16a9.06,9.06,0,0,1,2,.41c2,3.83,2.89,8.87-1.33,10.62a9.6,9.6,0,0,1-3,.61c-1.3-1,.31-7-1.69-6.19s.6,5.13.26,6.22a27.34,27.34,0,0,1-6-.84,3,3,0,0,1-1.6-1.83c-.63-2.66,3.55-4.31,3.68-6.59.12-2.1-1.53,4.61-5.91,5.6C127,206.19,125.08,203.69,129.59,201.79Z"></path><path class="clspho-28" d="M122.72,194.62c1-2.16-1.65-2.67-1.52-1,.11,1.46.12,5-1.37,6a23.45,23.45,0,0,1-8.76-2.91,1.13,1.13,0,0,1,.11-.66c1.14-2.28,8.5-4.18,6.22-4.94-1.82-.61-5,3-7.57,4.77-1.55-1.17-2.58-2.57-2.58-4.12,0-2.11,2.56-4.49,5.87-5.63,1.49.15,2.88,1,5,2.19,3.19,1.81,2.45-1.12-.57-2.86a9.09,9.09,0,0,1,7.12,3.91,4.45,4.45,0,0,0,1,2.9c3.28,4.8-.51,7.6-5,7.42A30,30,0,0,1,122.72,194.62Z"></path><path class="clspho-27" d="M135.31,196.89a42.85,42.85,0,0,0,8.61,5.68c3.39,1.52,2.71,6.48,2.71,6.48s.51-4.28-2.31-5.74-4.68-3.22-6.82-3.56a30.14,30.14,0,0,1-3.33-.67s.68-1.35.29-1.86S135.31,196.89,135.31,196.89Z"></path><path class="clspho-27" d="M147.53,174.39a39.83,39.83,0,0,0-17,9.64c-1.24,1.41-1.24,1.8-1.24,1.8l1,1.81.45-.23s-.74-1.52,1.18-3.49A34.61,34.61,0,0,1,142,176.65C144.77,175.46,147.53,174.39,147.53,174.39Z"></path><path class="clspho-29" d="M122.48,212.19H126a4.46,4.46,0,0,1,4.46,4.46v8a0,0,0,0,1,0,0H118a0,0,0,0,1,0,0v-8A4.46,4.46,0,0,1,122.48,212.19Z" transform="translate(248.44 436.81) rotate(180)"></path><rect class="clspho-6" x="118.02" y="213.61" width="12.39" height="0.87"></rect><rect class="clspho-6" x="118.02" y="215.2" width="12.39" height="0.51"></rect><path class="clspho-30" d="M211.93,223.32H212a1.2,1.2,0,0,0,1.14-1.29l-1.73-82.74-5.1-.66L210.7,222A1.29,1.29,0,0,0,211.93,223.32Z"></path><path class="clspho-30" d="M104.49,223.32h-.11a1.21,1.21,0,0,1-1.14-1.29L105,139.29l5.1-.66L105.72,222A1.28,1.28,0,0,1,104.49,223.32Z"></path><rect class="clspho-30" x="95.98" y="134.56" width="119.82" height="5.92" rx="1.86"></rect><rect class="clspho-31" x="171.11" y="121.11" width="28.7" height="13.45"></rect><path class="clspho-32" d="M173.16,113.81h24.59a2.05,2.05,0,0,1,2.05,2.05v5.24a0,0,0,0,1,0,0h-28.7a0,0,0,0,1,0,0v-5.24A2.05,2.05,0,0,1,173.16,113.81Z"></path><rect class="clspho-32" x="171.11" y="122.97" width="20.56" height="9.64"></rect><path class="clspho-33" d="M139.64,124.09H160a1.76,1.76,0,0,1,1.76,1.76v1.94a0,0,0,0,1,0,0H137.88a0,0,0,0,1,0,0v-1.94A1.76,1.76,0,0,1,139.64,124.09Z"></path><rect class="clspho-34" x="137.88" y="127.79" width="23.91" height="6.77"></rect><rect class="clspho-35" x="145.83" y="128.81" width="14.35" height="4.41"></rect><rect class="clspho-33" x="130.76" y="116.03" width="5.73" height="18.53"></rect><rect class="clspho-36" x="130.76" y="128.5" width="5.73" height="1.38"></rect><polygon class="clspho-37" points="146.44 124.09 154.02 124.09 154.28 120.84 146.04 120.84 146.44 124.09"></polygon><polygon class="clspho-38" points="144.28 106.42 146.04 120.84 154.28 120.84 156.1 106.42 144.28 106.42"></polygon><path class="clspho-39" d="M119.91,86.39h1.55a.55.55,0,0,1,.55.55v3.36a0,0,0,0,1,0,0h-2.65a0,0,0,0,1,0,0V86.94A.55.55,0,0,1,119.91,86.39Z"></path><path class="clspho-39" d="M118.69,90.29h4a.41.41,0,0,1,.41.41v5.64a0,0,0,0,1,0,0h-4.79a0,0,0,0,1,0,0V90.7A.41.41,0,0,1,118.69,90.29Z"></path><path class="clspho-39" d="M117.1,96.34h7.17a.44.44,0,0,1,.44.44v5.29a0,0,0,0,1,0,0h-8a0,0,0,0,1,0,0V96.78A.44.44,0,0,1,117.1,96.34Z"></path><path class="clspho-40" d="M116.63,102.07h8.11a2.44,2.44,0,0,1,2.44,2.44v30.06a0,0,0,0,1,0,0h-13a0,0,0,0,1,0,0V104.5A2.44,2.44,0,0,1,116.63,102.07Z"></path><path class="clspho-41" d="M122.19,108.12h5a0,0,0,0,1,0,0v20a0,0,0,0,1,0,0h-5a1.51,1.51,0,0,1-1.51-1.51v-17A1.51,1.51,0,0,1,122.19,108.12Z"></path><path class="clspho-42" d="M70.66,70s5.81,4.08-.38,10.19"></path><path class="clspho-43" d="M81.63,73l-1.46-.9c.87-1.3,2.4-3.47.47-4.62l-7.79-4.81c-1.89-1.21-3.16,1.13-3.92,2.49l-1.46-.9c1.09-2.41,3.57-4.77,6.28-3L81.54,66C84.29,67.66,83.3,70.94,81.63,73Z"></path><path class="clspho-44" d="M78.33,82.67,61.15,72.07c-3.43-2,1-6.36,2-8.48a2.78,2.78,0,0,1,3.82-.9L84.12,73.3Z"></path><polygon class="clspho-45" points="91.69 110.63 77.25 84.43 85.2 71.54 115.1 72.71 91.69 110.63"></polygon><path class="clspho-46" d="M67.48,69.63s-3,6,1.82,10.87"></path></g></g></svg>