<svg xmlns="http://www.w3.org/2000/svg" viewBox="0 0 459 398.6"><defs><style>.clsprint-1{fill:#dcdcdc;}.clsprint-2{fill:#cbcad2;}.clsprint-3{fill:#f5f5f5;}.clsprint-4{fill:#fafbfb;}.clsprint-5{fill:#e7e7e7;}.clsprint-6{fill:#e1e1e1;}.clsprint-7{fill:#ff7b62;}.clsprint-8{fill:#1a2e35;}.clsprint-10,.clsprint-13,.clsprint-20,.clsprint-29,.clsprint-31,.clsprint-35,.clsprint-9{fill:#000073;}.clsprint-10,.clsprint-13,.clsprint-23,.clsprint-24,.clsprint-25,.clsprint-26,.clsprint-27,.clsprint-28,.clsprint-29,.clsprint-30,.clsprint-31,.clsprint-32,.clsprint-33,.clsprint-34,.clsprint-35,.clsprint-9{isolation:isolate;}.clsprint-24,.clsprint-9{opacity:0.8;}.clsprint-10,.clsprint-30{opacity:0.2;}.clsprint-11{fill:#4375ff;}.clsprint-12{fill:#d54d37;}.clsprint-13,.clsprint-33,.clsprint-37{opacity:0.3;}.clsprint-14{fill:#f7ec13;}.clsprint-15{fill:#6fccdd;}.clsprint-16{fill:#6abd45;}.clsprint-17{fill:#b9529f;}.clsprint-18{fill:#ed2024;}.clsprint-19{fill:#3953a4;}.clsprint-21,.clsprint-23,.clsprint-26{opacity:0.5;}.clsprint-22,.clsprint-23{fill:#f47821;}.clsprint-24,.clsprint-25,.clsprint-26,.clsprint-27,.clsprint-28,.clsprint-30,.clsprint-32,.clsprint-33,.clsprint-34,.clsprint-36{fill:#fff;}.clsprint-25{opacity:0.7;}.clsprint-27,.clsprint-35{opacity:0.6;}.clsprint-28{opacity:0.9;}.clsprint-29,.clsprint-32{opacity:0.1;}.clsprint-31,.clsprint-34{opacity:0.4;}</style></defs><g id="Layer_2" data-name="Layer 2"><g id="Layer_1-2" data-name="Layer 1"><rect class="clsprint-1" x="416.8" y="373.4" width="33.1" height="0.2"></rect><rect class="clsprint-1" x="322.5" y="376.1" width="8.7" height="0.2"></rect><rect class="clsprint-1" x="396.6" y="364.1" width="19.2" height="0.2"></rect><rect class="clsprint-1" x="52.5" y="365.8" width="43.2" height="0.2"></rect><rect class="clsprint-1" x="104.6" y="365.8" width="6.3" height="0.2"></rect><rect class="clsprint-1" x="131.5" y="370" width="93.7" height="0.2"></rect><path class="clsprint-2" d="M237,299.4H43.9a5.76,5.76,0,0,1-5.7-5.7V22.2a5.76,5.76,0,0,1,5.7-5.7H237a5.76,5.76,0,0,1,5.7,5.7V293.6A5.72,5.72,0,0,1,237,299.4ZM43.9,16.8a5.48,5.48,0,0,0-5.5,5.5V293.7a5.48,5.48,0,0,0,5.5,5.5H237a5.48,5.48,0,0,0,5.5-5.5V22.2a5.48,5.48,0,0,0-5.5-5.5H43.9Z"></path><path class="clsprint-2" d="M453.3,299.4H260.2a5.76,5.76,0,0,1-5.7-5.7V22.2a5.76,5.76,0,0,1,5.7-5.7H453.3a5.76,5.76,0,0,1,5.7,5.7V293.6A5.72,5.72,0,0,1,453.3,299.4ZM260.2,16.8a5.48,5.48,0,0,0-5.5,5.5V293.7a5.48,5.48,0,0,0,5.5,5.5H453.3a5.48,5.48,0,0,0,5.5-5.5V22.2a5.48,5.48,0,0,0-5.5-5.5H260.2Z"></path><rect class="clsprint-2" y="357.3" width="459" height="0.2"></rect><path class="clsprint-1" d="M258.4,106.5V97.7a.85.85,0,0,1,0-1.7h10.1v12.3H258.4C257.3,108.2,257.3,106.5,258.4,106.5Z"></path><rect class="clsprint-3" x="258.4" y="97.6" width="7.9" height="8.8"></rect><path class="clsprint-4" d="M264.6,107.3h27.2c1.9,0,3.4-2.4,3.4-5.3s-1.5-5.3-3.4-5.3H264.6Z"></path><path class="clsprint-5" d="M264.6,96c8.9,0,17.8-.2,26.8,0,6.1.1,6.4,11.8.4,12.2-4.2.3-8.5,0-12.7,0H264.5a.85.85,0,0,1,0-1.7h25.4c2,0,3.4,0,4.1-2.3.7-2,.4-6.1-2.2-6.5H264.6a.85.85,0,0,1,0-1.7Z"></path><polygon class="clsprint-1" points="121.4 75.2 113.5 75.2 113.1 70.1 121.8 70.1 121.4 75.2"></polygon><rect class="clsprint-1" x="112.8" y="75.6" width="9.3" height="9.4"></rect><path class="clsprint-3" d="M122,108.5c2.2,0,4.1-2.3,4.3-5.3V88.7c0-4.7-2.7-8.4-6.1-8.4h-5.3c-3.4,0-6.1,3.8-6.1,8.4v14.5c.2,3,2.1,5.3,4.3,5.3Z"></path><path class="clsprint-3" d="M123.7,75.6H111.3c-.4,0-.8-.5-.8-1.1h0c0-.6.3-1.1.8-1.1h12.4c.4,0,.8.5.8,1.1h0C124.4,75.1,124.1,75.6,123.7,75.6Z"></path><rect class="clsprint-3" x="109.2" y="108.2" width="245.1" height="7"></rect><rect class="clsprint-1" x="56.1" y="108.2" width="54.9" height="7"></rect><polygon class="clsprint-5" points="62.8 132.4 62.8 115.3 79.9 115.3 62.8 132.4"></polygon><polygon class="clsprint-3" points="71.4 132.4 88.5 115.3 79.9 115.3 62.8 132.4 71.4 132.4"></polygon><polygon class="clsprint-6" points="320.2 132.4 320.2 115.3 337.4 115.3 320.2 132.4"></polygon><polygon class="clsprint-4" points="328.8 132.4 345.9 115.3 337.4 115.3 320.2 132.4 328.8 132.4"></polygon><polygon class="clsprint-1" points="98.1 78.1 88.6 78.1 88.1 73.4 98.6 73.4 98.1 78.1"></polygon><rect class="clsprint-3" x="87.8" y="78.5" width="11.1" height="8.6"></rect><path class="clsprint-1" d="M98.7,108.5a5.2,5.2,0,0,0,5.1-4.8V90.4a7.58,7.58,0,0,0-7.4-7.7H90a7.52,7.52,0,0,0-7.4,7.7v13.2a5.2,5.2,0,0,0,5.1,4.8h11Z"></path><path class="clsprint-1" d="M100.8,78.5H85.9a.92.92,0,0,1-.9-1h0a1,1,0,0,1,.9-1h14.9a.92.92,0,0,1,.9,1h0A1,1,0,0,1,100.8,78.5Z"></path><rect class="clsprint-3" x="109.2" y="42.4" width="245.1" height="7"></rect><rect class="clsprint-1" x="56.1" y="42.4" width="54.9" height="7"></rect><polygon class="clsprint-5" points="62.8 66.6 62.8 49.4 79.9 49.4 62.8 66.6"></polygon><polygon class="clsprint-3" points="71.4 66.6 88.5 49.4 79.9 49.4 62.8 66.6 71.4 66.6"></polygon><polygon class="clsprint-6" points="320.2 66.6 320.2 49.4 337.4 49.4 320.2 66.6"></polygon><polygon class="clsprint-4" points="328.8 66.6 345.9 49.4 337.4 49.4 320.2 66.6 328.8 66.6"></polygon><path class="clsprint-1" d="M95.3,43.3H88.8A5.1,5.1,0,0,1,83.7,38l.8-24.3H99.6l.8,24.3A5,5,0,0,1,95.3,43.3Z"></path><circle class="clsprint-1" cx="132.87" cy="17.77" r="14.3"></circle><path class="clsprint-1" d="M133.9,43.1h-2V33.6h1a15.8,15.8,0,0,0,0-31.6V0a17.81,17.81,0,0,1,1,35.6Z"></path><path class="clsprint-1" d="M141.3,43.3h-17a3.8,3.8,0,0,1,3.8-3.8h9.4a3.8,3.8,0,0,1,3.8,3.8Z"></path><polygon class="clsprint-3" points="94.4 43.3 107.8 29.9 121.3 43.3 94.4 43.3"></polygon><polygon class="clsprint-5" points="107.8 29.9 94.4 43.3 107.8 43.3 107.8 29.9"></polygon><path class="clsprint-3" d="M201.6,25.7c-.1,1.3-.1,2.3-.1,3a18.84,18.84,0,0,0,6.8,14.6h23.6a19.32,19.32,0,0,0,6.8-14.6c0-.7,0-1.7-.1-3Z"></path><path class="clsprint-1" d="M204.8,30.7a2.24,2.24,0,0,0-2.3-2.2H189a2.38,2.38,0,0,0-2.3,2.2v.2a3.89,3.89,0,0,0-1.5-.2c-2.2,0-3.7,1.7-3.7,4.3s2.6,4.3,4.9,4.3a1.7,1.7,0,0,0,.7-.1,8.69,8.69,0,0,0,2.8,4.2h11.5a9.4,9.4,0,0,0,3.3-7.1A30.79,30.79,0,0,0,204.8,30.7Zm-18.2,7c-1.6,0-3.5-1.3-3.5-2.9,0-.7.2-2.9,2.3-2.9a4,4,0,0,1,1.5.3v3.9c0,.5.1,1,.1,1.5A.76.76,0,0,1,186.6,37.7Z"></path><polygon class="clsprint-1" points="311.5 43.3 309.6 21.8 337 21.8 338.9 43.3 311.5 43.3"></polygon><polygon class="clsprint-6" points="311.5 43.3 309.6 21.8 308.2 21.8 310.1 43.3 311.5 43.3"></polygon><polygon class="clsprint-4" points="314.1 41.1 312.6 24 334.4 24 335.9 41.1 314.1 41.1"></polygon><polygon class="clsprint-1" points="315.8 39.7 314.5 25.4 332.7 25.4 334 39.7 315.8 39.7"></polygon><polygon class="clsprint-1" points="280.7 43.3 308.2 43.3 305.1 8.5 277.7 8.5 280.7 43.3"></polygon><polygon class="clsprint-6" points="280.7 43.3 279.4 43.3 276.4 8.5 277.7 8.5 280.7 43.3"></polygon><polygon class="clsprint-6" points="283.2 39.8 305.1 39.8 302.6 12.1 280.8 12.1 283.2 39.8"></polygon><polygon class="clsprint-4" points="284.8 37.5 303.1 37.5 301 14.4 282.8 14.4 284.8 37.5"></polygon><path class="clsprint-1" d="M298.6,26.3l-3,3a3.26,3.26,0,0,1-4.5,0l-3-3a3.26,3.26,0,0,1,0-4.5l3-3a3.26,3.26,0,0,1,4.5,0l3,3A3.26,3.26,0,0,1,298.6,26.3Z"></path><path class="clsprint-5" d="M299.5,33l-2.1,2.1a3.26,3.26,0,0,1-4.5,0L290.8,33a3.26,3.26,0,0,1,0-4.5l2.1-2.1a3.26,3.26,0,0,1,4.5,0l2.1,2.1A3.26,3.26,0,0,1,299.5,33Z"></path><ellipse id="_Path_" data-name="&lt;Path&gt;" class="clsprint-3" cx="245.2" cy="387.3" rx="193.9" ry="11.3"></ellipse><path class="clsprint-7" d="M364.8,104.1l-14,22.4L323,141.1l-11.1,3.5a3.58,3.58,0,0,0-1.9,1.5s-6.1,8.4-6.5,11.6c-.1.8,2.8-.5,3.4-1.1,1.2-1.2,3.9-4.9,3.9-4.9s5.6,2.6,7.5,2.4c2.1-.2,6-2.5,7.6-3.9a42.87,42.87,0,0,0,3.4-4.3s25-6.8,31.4-12.3c5-4.4,13.2-23.1,13.2-23.1Z"></path><path class="clsprint-8" d="M379,84.1s-8.5,1.8-20.1,22l15.3,8.6C374.2,114.6,387.7,87.2,379,84.1Z"></path><path class="clsprint-8" d="M359.2,105.2l15.2,8.7a1.49,1.49,0,0,1,.6,2l-.6,1.2a1.53,1.53,0,0,1-2.1.7l-15.4-8.6a1.58,1.58,0,0,1-.6-2.1l.8-1.4A1.47,1.47,0,0,1,359.2,105.2Z"></path><path class="clsprint-9" d="M359.2,105.2l15.2,8.7a1.49,1.49,0,0,1,.6,2l-.6,1.2a1.53,1.53,0,0,1-2.1.7l-15.4-8.6a1.58,1.58,0,0,1-.6-2.1l.8-1.4A1.47,1.47,0,0,1,359.2,105.2Z"></path><path class="clsprint-10" d="M374.2,114.6s2.4-4.9,4.5-10.7l-.5-2.4-6.6-8.4a93.69,93.69,0,0,0-8.2,15.5Z"></path><path class="clsprint-7" d="M440.5,352.6c.7,9.6,1.2,15.9,1.2,15.9l-10.6,1.6s-1.2-6.5-3.1-16.4Z"></path><path class="clsprint-11" d="M425.9,367.2c-1.3,0-2.7-.2-3.2-.7a1.08,1.08,0,0,1,0-1.1,1.24,1.24,0,0,1,.8-.6c1.8-.6,5.6,1.5,5.7,1.5a.37.37,0,0,1,.1.3.22.22,0,0,1-.2.2A11.24,11.24,0,0,1,425.9,367.2Zm-1.8-2a.9.9,0,0,0-.5.1.66.66,0,0,0-.5.4.44.44,0,0,0,0,.6c.5.7,3.2.6,5.2.3A10.45,10.45,0,0,0,424.1,365.2Z"></path><path class="clsprint-11" d="M429.1,366.8H429c-1.3-.5-3.9-2.8-3.8-4,0-.3.2-.7.9-.7a1.79,1.79,0,0,1,1.4.4c1.4,1.1,1.8,3.9,1.8,4.1s0,.2-.1.2Zm-2.7-4.2h-.1c-.5.1-.5.2-.5.3,0,.7,1.7,2.5,3.1,3.2a6.33,6.33,0,0,0-1.5-3.2,2.24,2.24,0,0,0-1-.3Z"></path><path class="clsprint-8" d="M430.2,365.3l11.7-.4a1,1,0,0,1,.9.7l2.4,9.4a1.6,1.6,0,0,1-1.1,1.9.37.37,0,0,0-.3.1c-4.2.1-8,0-13.2.1-6.2.2-4.6.9-11.8,1.2-4.4.2-5.3-4.7-3.5-5.1,8.5-1.4,9.3-4,12.4-7.1A4.38,4.38,0,0,1,430.2,365.3Z"></path><path class="clsprint-10" d="M440.5,352.6l-12.6,1.1c.3,1.5.5,2.9.8,4.2l12.1-.8C440.7,355.6,440.6,354.2,440.5,352.6Z"></path><path class="clsprint-7" d="M386.9,350.8c-1,9.6-1.6,15.8-1.6,15.8l-10.7-.3s-.1-6.6-.2-16.7Z"></path><path class="clsprint-11" d="M369.7,364.4c-1.3,0-2.7-.2-3.2-.7a1.08,1.08,0,0,1,0-1.1,1.56,1.56,0,0,1,.8-.6c1.8-.5,5.6,1.5,5.7,1.6a.37.37,0,0,1,.1.3.22.22,0,0,1-.2.2C371.8,364.2,370.8,364.4,369.7,364.4Zm-1.8-2a.9.9,0,0,0-.5.1.66.66,0,0,0-.5.4.44.44,0,0,0,0,.6c.5.7,3.2.6,5.2.3A9.12,9.12,0,0,0,367.9,362.4Z"></path><path class="clsprint-11" d="M372.9,364h-.1c-1.3-.5-3.9-2.8-3.7-4,0-.3.2-.6.9-.7a1.79,1.79,0,0,1,1.4.4c1.4,1.1,1.8,4,1.8,4.1s0,.2-.1.2Zm-2.8-4.2H370c-.5.1-.5.2-.5.3,0,.7,1.7,2.5,3,3.2a6.33,6.33,0,0,0-1.5-3.2.76.76,0,0,0-.9-.3Z"></path><path class="clsprint-8" d="M374,362.5l11.7-.3a1,1,0,0,1,.9.7l2.4,9.4a1.6,1.6,0,0,1-1.1,1.9h-.3c-4.2,0-8-.1-13.2.1-6.2.2-4.6.9-11.9,1.2-4.4.2-5.3-4.8-3.5-5.1,8.5-1.3,9.3-3.9,12.5-7A3.66,3.66,0,0,1,374,362.5Z"></path><path class="clsprint-10" d="M374.4,354.4l12.1.5c.1-1.3.3-2.7.4-4.2l-12.6-1.1C374.3,351.3,374.4,352.9,374.4,354.4Z"></path><path class="clsprint-11" d="M368.3,175l.7,73.1,4.2,99.3,16.1,1.7a331.32,331.32,0,0,0,5.9-56.8c.2-11.9-2.6-23.8-2.6-34.7,0-8.1,2.8-14,5.6-31.7,2.7-16.8,5.4-36.8,5.8-51.3Z"></path><path class="clsprint-10" d="M400.2,213l-2.5-9.6-5.8-1.2s-1.2,28.7,1.6,47.6c1-5.5,2.9-12,4.8-23.8C398.9,221.8,399.5,217.4,400.2,213Z"></path><path class="clsprint-11" d="M386.9,175l14.7,80.8,25,97.7,14.7-1.1a445.63,445.63,0,0,0-5.8-58.9c-2.4-13.7-7.8-27.1-10.6-39.2-1.9-8.3-.7-15-1.5-33.9-.6-14.6.8-31.5-4.2-45.5H386.9Z"></path><path class="clsprint-8" d="M367.6,113.4c1.9-20.1,5.6-32.5,23.1-31.7s34.7-1.1,31.7,22.8-1.1,71.5-1.1,71.5H367.2s.5-17.1.6-36C367.8,130.2,366.9,120.4,367.6,113.4Z"></path><path class="clsprint-7" d="M385.1,82c4.9-.9,6.6-2.8,6.1-6.9-.1-1-.3-2.1-.5-3.1l7.6-6.4,5.6-4.6c-1.5,6.8-2.3,21,1.8,21.9-1.9,1.7-3.7,4.6-6.3,5.9-2.3,1.1-5.6,1.4-8.7,1.4-2.1-.3-4.3-.8-5.1-1.9C383.8,85.7,385.1,82,385.1,82Z"></path><path class="clsprint-10" d="M390.7,72c.2,1,.4,2.1.5,3.1,2.9-.6,7.2-3.1,7.5-6.3a15.46,15.46,0,0,0-.4-3.1Z"></path><path class="clsprint-7" d="M403.4,47.3c1.2,9.1,2.3,14.4-1.4,20-5.5,8.4-17.3,6.7-21.1-1.9-3.5-7.7-4.7-21.4,3.4-26.8a12.18,12.18,0,0,1,17,2.9A13.09,13.09,0,0,1,403.4,47.3Z"></path><path class="clsprint-8" d="M390.2,52.8c.1.7-.1,1.4-.6,1.5s-1-.4-1.2-1.2.1-1.4.6-1.5S390,52.1,390.2,52.8Z"></path><path class="clsprint-8" d="M381.6,54.5c.1.7-.1,1.4-.6,1.5s-1-.4-1.2-1.2.1-1.4.6-1.5S381.4,53.7,381.6,54.5Z"></path><path class="clsprint-12" d="M384.9,54.4a26.93,26.93,0,0,1-1.9,6.1,3.6,3.6,0,0,0,3.2,0Z"></path><path class="clsprint-8" d="M391.3,48.7c.1,0,.1-.1.1-.2a.48.48,0,0,0-.2-.6h0a4.46,4.46,0,0,0-3.9.3c-.2.1-.2.4-.1.6h0c.1.2.4.2.6.1a3.41,3.41,0,0,1,3.1-.3A.25.25,0,0,0,391.3,48.7Z"></path><path class="clsprint-8" d="M381.8,49.5c0-.1.1-.1.1-.2s-.1-.5-.4-.5h0a4.19,4.19,0,0,0-3.7,1.3c-.1.2-.1.5.1.6h0c.2.1.5.1.6-.1a3.12,3.12,0,0,1,2.9-1A.6.6,0,0,0,381.8,49.5Z"></path><path class="clsprint-8" d="M402,56.4s-2.3,0-2.8-4.1a23.58,23.58,0,0,0-2.1-7.2s-5.4,0-7.4-2.7c0,0-13.3,7.2-17.5,2.1-4-4.8,5.5-5.4,5.5-5.4s-4.6-5.1-1.8-7.6,9.5,1.6,9.5,1.6-1.5-5.1,3.9-4.6,6.8,4.3,6.8,4.3,7.3-2.9,10.4.9c2,2.5-1.1,5.1-1.1,5.1s4,.1,5.1,3.5c.8,2.8-2,4.8-2.9,5.4-2.5,1.8-3,10.9-3,10.9Z"></path><path class="clsprint-8" d="M377.4,41.6s-6.4,3-5.1,7.2,5.5,3.4,6.9,2.2c1.7-1.4,4.4-7.7,4.4-7.7Z"></path><path class="clsprint-7" d="M408.4,55a10,10,0,0,1-3.6,5.6c-2.3,1.7-4.1-.4-3.9-3.3.1-2.6,1.5-6.7,4-7.2S409,52.2,408.4,55Z"></path><path class="clsprint-8" d="M391.2,63.4a7.46,7.46,0,0,0,1.2-.7.37.37,0,0,0,.1-.3h0a.37.37,0,0,0-.3-.1,6.44,6.44,0,0,1-5.7,1.1c-.1,0-.3,0-.3.1s0,.3.1.3A6.42,6.42,0,0,0,391.2,63.4Z"></path><path class="clsprint-8" d="M387.1,81.3c.1,0,.3.1.2.3-1,1.5-4.5,8.1,3.8,8.2,8.9.1,13.4-6.9,14-7.8,0-.1.1-.1.2-.1l2.4.2c.2,0,.4.2.3.4-.3,1.7-2,8.5-9.5,13.7a8.89,8.89,0,0,0-7.6-5.7c-5.8-.4-10.6,4.5-10.6,4.5s-1.8-7.9,4.1-13.2c.1-.1.1-.1.2-.1Z"></path><path class="clsprint-9" d="M387.1,81.3c.1,0,.3.1.2.3-1,1.5-4.5,8.1,3.8,8.2,8.9.1,13.4-6.9,14-7.8,0-.1.1-.1.2-.1l2.4.2c.2,0,.4.2.3.4-.3,1.7-2,8.5-9.5,13.7a8.89,8.89,0,0,0-7.6-5.7c-5.8-.4-10.6,4.5-10.6,4.5s-1.8-7.9,4.1-13.2c.1-.1.1-.1.2-.1Z"></path><path class="clsprint-10" d="M411.4,95.2s-.6,25.1,9.4,34.5c.2-9.4.7-18.4,1.5-25.3a27.72,27.72,0,0,0,.3-5.6l-4.9-3.6Z"></path><path class="clsprint-8" d="M416.9,115.4s-13.7-30.1-3.7-30.8,19.9,20,19.9,20Z"></path><path class="clsprint-7" d="M419.3,112.8s6.6,17.2,7.9,27.6a218,218,0,0,1-5.6,33.1s-4.5,4.9-5.4,8.8-2.2,5.3,2.2,7,7.9.2,9.5-2,.9-13.2.9-13.2,8.8-26.3,9.3-35.7-9-32.6-9-32.6Z"></path><path class="clsprint-8" d="M415.2,113.7l.9,2.4a1.05,1.05,0,0,0,1.6.5l16.4-10.9a1.1,1.1,0,0,0,.3-1.5l-1.3-2.2a1.11,1.11,0,0,0-1.6-.3l-16,10.8A1.05,1.05,0,0,0,415.2,113.7Z"></path><path class="clsprint-9" d="M415.2,113.7l.9,2.4a1.05,1.05,0,0,0,1.6.5l16.4-10.9a1.1,1.1,0,0,0,.3-1.5l-1.3-2.2a1.11,1.11,0,0,0-1.6-.3l-16,10.8A1.05,1.05,0,0,0,415.2,113.7Z"></path><polygon class="clsprint-11" points="444.3 352.6 424.9 354.5 423.3 348.1 444.6 346 444.3 352.6"></polygon><polygon class="clsprint-13" points="444.3 352.6 424.9 354.5 423.3 348.1 444.6 346 444.3 352.6"></polygon><polygon class="clsprint-11" points="390.8 351.3 371.7 350.5 370.8 344 392.2 344.9 390.8 351.3"></polygon><polygon class="clsprint-13" points="390.8 351.3 371.7 350.5 370.8 344 392.2 344.9 390.8 351.3"></polygon><path class="clsprint-11" d="M320,107.3,311,99H298.8a5.19,5.19,0,0,1-5.1-4.7L291,63.2a4.53,4.53,0,0,1,1.1-3.4,4.31,4.31,0,0,1,3.2-1.4h31.1a5.19,5.19,0,0,1,5.1,4.7l2.7,31.1a4.53,4.53,0,0,1-1.1,3.4,4.31,4.31,0,0,1-3.2,1.4h-2.3ZM295.3,59.5a3.25,3.25,0,0,0-2.5,1.1,3.92,3.92,0,0,0-.9,2.6l2.7,31.1a4.21,4.21,0,0,0,4.1,3.8h12.6l8.6,7.9,7.2-7.9h2.8a3.25,3.25,0,0,0,2.5-1.1,3.92,3.92,0,0,0,.9-2.6l-2.7-31.1a4.21,4.21,0,0,0-4.1-3.8Z"></path><path class="clsprint-14" d="M328.4,83.7a10.84,10.84,0,0,0-5.8-8.6,8.85,8.85,0,0,1-4.3,7.3,5.07,5.07,0,0,1,.2,1.3,9,9,0,0,1-4.2,8.5,10.63,10.63,0,0,0,5,1.3A8.9,8.9,0,0,0,328.4,83.7Z"></path><path class="clsprint-15" d="M308.7,83.7V82.4a11.18,11.18,0,0,1-5.6-7.3,9.08,9.08,0,0,0-4.3,8.6,11,11,0,0,0,10.7,9.8,9.56,9.56,0,0,0,4.8-1.3A11.08,11.08,0,0,1,308.7,83.7Z"></path><path class="clsprint-16" d="M318.5,83.7a5.85,5.85,0,0,0-.2-1.3,9.47,9.47,0,0,1-4.7,1.3,10.23,10.23,0,0,1-4.9-1.3v1.3a11,11,0,0,0,5.7,8.5A8.7,8.7,0,0,0,318.5,83.7Z"></path><path class="clsprint-17" d="M312.9,75.1a9.56,9.56,0,0,1,4.8-1.3,10.23,10.23,0,0,1,4.9,1.3V73.8A11,11,0,0,0,311.9,64a8.88,8.88,0,0,0-9,9.8,5.85,5.85,0,0,0,.2,1.3,9.47,9.47,0,0,1,4.7-1.3A11,11,0,0,1,312.9,75.1Z"></path><path class="clsprint-18" d="M312.9,75.1a11.17,11.17,0,0,1,5.5,7.2,8.85,8.85,0,0,0,4.3-7.3,10.54,10.54,0,0,0-4.9-1.3A10.81,10.81,0,0,0,312.9,75.1Z"></path><path class="clsprint-19" d="M308.7,82.4a8.58,8.58,0,0,1,4.2-7.2,10.63,10.63,0,0,0-5-1.3,8.92,8.92,0,0,0-4.7,1.3A10.79,10.79,0,0,0,308.7,82.4Z"></path><path class="clsprint-20" d="M312.9,75.1a8.58,8.58,0,0,0-4.2,7.2,10.54,10.54,0,0,0,4.9,1.3,8.92,8.92,0,0,0,4.7-1.3A11,11,0,0,0,312.9,75.1Z"></path><g class="clsprint-21"><path class="clsprint-22" d="M105.2,175.7l-7.5-6.9H86.5a3.92,3.92,0,0,1-3.9-3.6l-2.4-28a3.11,3.11,0,0,1,.9-2.6,3.25,3.25,0,0,1,2.5-1.1h27.9a4,4,0,0,1,3.9,3.6l2.4,28a3.11,3.11,0,0,1-.9,2.6,3.25,3.25,0,0,1-2.5,1.1h-2.8ZM83.5,134.5a2.5,2.5,0,0,0-1.8.8,2.21,2.21,0,0,0-.6,1.9l2.4,27.9a3,3,0,0,0,2.9,2.7H98l7.1,6.5,6-6.5h3.3a2.5,2.5,0,0,0,1.8-.8,2.43,2.43,0,0,0,.6-1.9l-2.4-27.9a3,3,0,0,0-2.9-2.7Z"></path></g><path class="clsprint-22" d="M109.6,150.6h-3.7a7.86,7.86,0,0,0-7-6.4l-.3-3.7a.65.65,0,0,0-.6-.6.5.5,0,0,0-.5.6l.3,3.7a6.35,6.35,0,0,0-5.9,6.4H88.2a.5.5,0,0,0-.5.6.65.65,0,0,0,.6.6H92a7.86,7.86,0,0,0,7,6.4l.3,3.7a.65.65,0,0,0,.6.6.5.5,0,0,0,.5-.6l-.3-3.7a6.35,6.35,0,0,0,5.9-6.4h3.7a.5.5,0,0,0,.5-.6A.65.65,0,0,0,109.6,150.6Zm-4.9,0h-1.4a5.13,5.13,0,0,0-4.2-3.9l-.1-1.4A6.58,6.58,0,0,1,104.7,150.6Zm-6.4,0H95.6a2.88,2.88,0,0,1,2.5-2.7Zm.1,1.2.2,2.7a3.77,3.77,0,0,1-3-2.7Zm1.2,0h2.7a2.88,2.88,0,0,1-2.5,2.7Zm-.1-1.2-.2-2.7a3.77,3.77,0,0,1,3,2.7Zm-1.7-5.3.1,1.4a4.16,4.16,0,0,0-3.6,3.9H93A5.4,5.4,0,0,1,97.8,145.3Zm-4.7,6.5h1.4a5.13,5.13,0,0,0,4.2,3.9l.1,1.4A7.07,7.07,0,0,1,93.1,151.8ZM100,157l-.1-1.4a4.16,4.16,0,0,0,3.6-3.9h1.4A5.41,5.41,0,0,1,100,157Z"></path><path class="clsprint-23" d="M109.6,150.6h-3.7a7.86,7.86,0,0,0-7-6.4l-.3-3.7a.65.65,0,0,0-.6-.6.5.5,0,0,0-.5.6l.3,3.7a6.35,6.35,0,0,0-5.9,6.4H88.2a.5.5,0,0,0-.5.6.65.65,0,0,0,.6.6H92a7.86,7.86,0,0,0,7,6.4l.3,3.7a.65.65,0,0,0,.6.6.5.5,0,0,0,.5-.6l-.3-3.7a6.35,6.35,0,0,0,5.9-6.4h3.7a.5.5,0,0,0,.5-.6A.65.65,0,0,0,109.6,150.6Zm-4.9,0h-1.4a5.13,5.13,0,0,0-4.2-3.9l-.1-1.4A6.58,6.58,0,0,1,104.7,150.6Zm-6.4,0H95.6a2.88,2.88,0,0,1,2.5-2.7Zm.1,1.2.2,2.7a3.77,3.77,0,0,1-3-2.7Zm1.2,0h2.7a2.88,2.88,0,0,1-2.5,2.7Zm-.1-1.2-.2-2.7a3.77,3.77,0,0,1,3,2.7Zm-1.7-5.3.1,1.4a4.16,4.16,0,0,0-3.6,3.9H93A5.4,5.4,0,0,1,97.8,145.3Zm-4.7,6.5h1.4a5.13,5.13,0,0,0,4.2,3.9l.1,1.4A7.07,7.07,0,0,1,93.1,151.8ZM100,157l-.1-1.4a4.16,4.16,0,0,0,3.6-3.9h1.4A5.41,5.41,0,0,1,100,157Z"></path><path class="clsprint-22" d="M84.6,143.4h0a.68.68,0,0,1-.7-.7l-.5-6h6a.68.68,0,0,1,.7.7h0c0,.4-.2.7-.6.7H84.9l.4,4.6A.84.84,0,0,1,84.6,143.4Z"></path><path class="clsprint-22" d="M105.5,137.4h0c0-.4.2-.7.6-.7h6l.5,6c0,.4-.2.7-.6.7h0a.68.68,0,0,1-.7-.7l-.4-4.6h-4.6A.71.71,0,0,1,105.5,137.4Z"></path><path class="clsprint-22" d="M113.3,158.9h0a.68.68,0,0,1,.7.7l.5,6h-6a.68.68,0,0,1-.7-.7h0c0-.4.2-.7.6-.7H113l-.4-4.6C112.7,159.2,112.9,158.9,113.3,158.9Z"></path><path class="clsprint-22" d="M92.4,164.9h0c0,.4-.2.7-.6.7h-6l-.5-6c0-.4.2-.7.6-.7h0a.68.68,0,0,1,.7.7l.4,4.6h4.6A.77.77,0,0,1,92.4,164.9Z"></path><g class="clsprint-21"><path class="clsprint-22" d="M84.6,143.4h0a.68.68,0,0,1-.7-.7l-.5-6h6a.68.68,0,0,1,.7.7h0c0,.4-.2.7-.6.7H84.9l.4,4.6A.84.84,0,0,1,84.6,143.4Z"></path></g><g class="clsprint-21"><path class="clsprint-22" d="M105.5,137.4h0c0-.4.2-.7.6-.7h6l.5,6c0,.4-.2.7-.6.7h0a.68.68,0,0,1-.7-.7l-.4-4.6h-4.6A.71.71,0,0,1,105.5,137.4Z"></path></g><g class="clsprint-21"><path class="clsprint-22" d="M113.3,158.9h0a.68.68,0,0,1,.7.7l.5,6h-6a.68.68,0,0,1-.7-.7h0c0-.4.2-.7.6-.7H113l-.4-4.6C112.7,159.2,112.9,158.9,113.3,158.9Z"></path></g><g class="clsprint-21"><path class="clsprint-22" d="M92.4,164.9h0c0,.4-.2.7-.6.7h-6l-.5-6c0-.4.2-.7.6-.7h0a.68.68,0,0,1,.7.7l.4,4.6h4.6A.77.77,0,0,1,92.4,164.9Z"></path></g><rect class="clsprint-11" x="185.9" y="241.7" width="183.9" height="139.9"></rect><rect class="clsprint-24" x="185.9" y="241.7" width="183.9" height="139.9"></rect><rect class="clsprint-11" x="122.5" y="241.7" width="75.4" height="139.9"></rect><rect class="clsprint-25" x="122.5" y="241.7" width="75.4" height="139.9"></rect><rect class="clsprint-11" x="212.4" y="258.5" width="143.4" height="33.2"></rect><rect class="clsprint-25" x="212.4" y="258.5" width="143.4" height="33.2"></rect><rect class="clsprint-11" x="212.4" y="296.3" width="143.4" height="33.2"></rect><rect class="clsprint-25" x="212.4" y="296.3" width="143.4" height="33.2"></rect><rect class="clsprint-11" x="212.4" y="334.1" width="143.4" height="33.2"></rect><rect class="clsprint-25" x="212.4" y="334.1" width="143.4" height="33.2"></rect><path class="clsprint-11" d="M293,266.2H275.2a6.38,6.38,0,0,1-6-4.2l-1.2-3.5h32.1L299,262A6.38,6.38,0,0,1,293,266.2Z"></path><path class="clsprint-26" d="M293,266.2H275.2a6.38,6.38,0,0,1-6-4.2l-1.2-3.5h32.1L299,262A6.38,6.38,0,0,1,293,266.2Z"></path><path class="clsprint-11" d="M293.6,258.5l-1.2,3.5a6.38,6.38,0,0,1-6,4.2h6.7a6.38,6.38,0,0,0,6-4.2l1.2-3.5Z"></path><path class="clsprint-27" d="M293.6,258.5l-1.2,3.5a6.38,6.38,0,0,1-6,4.2h6.7a6.38,6.38,0,0,0,6-4.2l1.2-3.5Z"></path><path class="clsprint-11" d="M293,304H275.2a6.38,6.38,0,0,1-6-4.2l-1.2-3.5h32.1l-1.2,3.5A6.16,6.16,0,0,1,293,304Z"></path><path class="clsprint-26" d="M293,304H275.2a6.38,6.38,0,0,1-6-4.2l-1.2-3.5h32.1l-1.2,3.5A6.16,6.16,0,0,1,293,304Z"></path><path class="clsprint-11" d="M293.6,296.3l-1.2,3.5a6.38,6.38,0,0,1-6,4.2h6.7a6.38,6.38,0,0,0,6-4.2l1.2-3.5Z"></path><path class="clsprint-27" d="M293.6,296.3l-1.2,3.5a6.38,6.38,0,0,1-6,4.2h6.7a6.38,6.38,0,0,0,6-4.2l1.2-3.5Z"></path><path class="clsprint-11" d="M293,341.9H275.2a6.38,6.38,0,0,1-6-4.2l-1.2-3.5h32.1l-1.2,3.5A6.16,6.16,0,0,1,293,341.9Z"></path><path class="clsprint-26" d="M293,341.9H275.2a6.38,6.38,0,0,1-6-4.2l-1.2-3.5h32.1l-1.2,3.5A6.16,6.16,0,0,1,293,341.9Z"></path><path class="clsprint-11" d="M293.6,334.1l-1.2,3.5a6.38,6.38,0,0,1-6,4.2h6.7a6.38,6.38,0,0,0,6-4.2l1.2-3.5Z"></path><path class="clsprint-27" d="M293.6,334.1l-1.2,3.5a6.38,6.38,0,0,1-6,4.2h6.7a6.38,6.38,0,0,0,6-4.2l1.2-3.5Z"></path><rect class="clsprint-11" x="201.4" y="241.7" width="172.7" height="7.6"></rect><rect class="clsprint-28" x="201.4" y="241.7" width="172.7" height="7.6"></rect><rect class="clsprint-11" x="118.3" y="241.7" width="85.7" height="7.6"></rect><rect class="clsprint-24" x="118.3" y="241.7" width="85.7" height="7.6"></rect><path class="clsprint-29" d="M339.8,276.7H285.4A10.71,10.71,0,0,1,274.7,266V241.5h72.5v27.8A7.38,7.38,0,0,1,339.8,276.7Z"></path><path class="clsprint-8" d="M279.9,170.8h1a1.77,1.77,0,0,0,1.8-2.1l-8.4-52.9a2.55,2.55,0,0,0-2.4-2.1H142.2l9,57.1Z"></path><path class="clsprint-26" d="M279.9,170.8h1a1.77,1.77,0,0,0,1.8-2.1l-8.4-52.9a2.55,2.55,0,0,0-2.4-2.1H142.2l9,57.1Z"></path><path class="clsprint-8" d="M151.7,170.8h0a3.19,3.19,0,0,1-3-2.6l-8.2-52a2.17,2.17,0,0,1,2.2-2.6h0a3.19,3.19,0,0,1,3,2.6l8.2,52A2.22,2.22,0,0,1,151.7,170.8Z"></path><path class="clsprint-30" d="M151.7,170.8h0a3.19,3.19,0,0,1-3-2.6l-8.2-52a2.17,2.17,0,0,1,2.2-2.6h0a3.19,3.19,0,0,1,3,2.6l8.2,52A2.22,2.22,0,0,1,151.7,170.8Z"></path><path class="clsprint-11" d="M330.9,241.6H164.4l9.5-84.2H329a10.14,10.14,0,0,1,10.1,11.3Z"></path><path class="clsprint-30" d="M329,157.5H176.6V167H339.2A10.25,10.25,0,0,0,329,157.5Z"></path><path class="clsprint-11" d="M182.4,241.6H136.8V166a8.49,8.49,0,0,1,8.5-8.5h35.2a10.14,10.14,0,0,1,10.1,11.3Z"></path><path class="clsprint-31" d="M182.4,241.6H136.8V166a8.49,8.49,0,0,1,8.5-8.5h35.2a10.14,10.14,0,0,1,10.1,11.3Z"></path><polygon class="clsprint-8" points="320.3 238.7 323.4 212.1 198.3 212.1 195.3 238.7 320.3 238.7"></polygon><path class="clsprint-8" d="M372.6,238.7H246v-4.3H372.6a1.9,1.9,0,0,1,1.9,1.9v.5A2,2,0,0,1,372.6,238.7Z"></path><path class="clsprint-32" d="M372.6,238.7H246v-4.3H372.6a1.9,1.9,0,0,1,1.9,1.9v.5A2,2,0,0,1,372.6,238.7Z"></path><path class="clsprint-8" d="M320.8,234.4H355a9,9,0,0,0-9-9H321.9Z"></path><path class="clsprint-33" d="M320.8,234.4H355a9,9,0,0,0-9-9H321.9Z"></path><polygon class="clsprint-29" points="172 157.5 249.7 157.5 244.4 113.7 166.7 113.7 172 157.5"></polygon><path class="clsprint-11" d="M300.8,234.4a14.73,14.73,0,0,0,14.9-16.7A14.73,14.73,0,0,1,330.6,201H259.3a14.73,14.73,0,0,0-14.9,16.7,14.73,14.73,0,0,1-14.9,16.7Z"></path><path class="clsprint-25" d="M300.8,234.4a14.73,14.73,0,0,0,14.9-16.7A14.73,14.73,0,0,1,330.6,201H259.3a14.73,14.73,0,0,0-14.9,16.7,14.73,14.73,0,0,1-14.9,16.7Z"></path><path class="clsprint-11" d="M364.7,264.9a12.33,12.33,0,0,1-11.9-10.7L349,217.8c-1-9.2-9.2-16.7-18.4-16.7H259.3c9.2,0,17.4,7.5,18.4,16.7l3.8,36.4a12.17,12.17,0,0,0,11.9,10.7Z"></path><path class="clsprint-28" d="M364.7,264.9a12.33,12.33,0,0,1-11.9-10.7L349,217.8c-1-9.2-9.2-16.7-18.4-16.7H259.3c9.2,0,17.4,7.5,18.4,16.7l3.8,36.4a12.17,12.17,0,0,0,11.9,10.7Z"></path><path class="clsprint-11" d="M364.6,264.9a9.49,9.49,0,0,0,9.6-10.7H303a9.49,9.49,0,0,1-9.6,10.7Z"></path><path class="clsprint-27" d="M364.6,264.9a9.49,9.49,0,0,0,9.6-10.7H303a9.49,9.49,0,0,1-9.6,10.7Z"></path><path class="clsprint-8" d="M250.1,234.4h-9.6a9,9,0,0,0-9-9H196.8l-1,9-.5,4.3h54.9a1.58,1.58,0,0,0,1.6-1.6v-1A1.69,1.69,0,0,0,250.1,234.4Z"></path><path class="clsprint-33" d="M250.1,234.4h-9.6a9,9,0,0,0-9-9H196.8l-1,9-.5,4.3h54.9a1.58,1.58,0,0,0,1.6-1.6v-1A1.69,1.69,0,0,0,250.1,234.4Z"></path><rect class="clsprint-11" x="124.1" y="197.8" width="51.1" height="43.8"></rect><rect class="clsprint-11" x="124.1" y="197.8" width="7.5" height="43.8"></rect><rect class="clsprint-30" x="124.1" y="197.8" width="7.5" height="43.8"></rect><rect class="clsprint-8" x="124.1" y="226.4" width="7.5" height="15.2"></rect><rect class="clsprint-11" x="154" y="197.8" width="21.2" height="43.8"></rect><rect class="clsprint-25" x="154" y="197.8" width="21.2" height="43.8"></rect><rect class="clsprint-11" x="154" y="217.2" width="21.2" height="24.4"></rect><rect class="clsprint-11" x="146.6" y="197.8" width="7.5" height="43.8"></rect><rect class="clsprint-26" x="146.6" y="197.8" width="7.5" height="43.8"></rect><rect class="clsprint-11" x="146.6" y="217.2" width="7.5" height="24.4"></rect><rect class="clsprint-10" x="146.6" y="217.2" width="7.5" height="24.4"></rect><rect class="clsprint-11" x="139.1" y="197.8" width="7.5" height="43.8"></rect><rect class="clsprint-34" x="139.1" y="197.8" width="7.5" height="43.8"></rect><rect class="clsprint-11" x="139.1" y="222.6" width="7.5" height="19"></rect><rect class="clsprint-31" x="139.1" y="222.6" width="7.5" height="19"></rect><rect class="clsprint-11" x="131.6" y="197.8" width="7.5" height="43.8"></rect><rect class="clsprint-33" x="131.6" y="197.8" width="7.5" height="43.8"></rect><rect class="clsprint-11" x="131.6" y="219.7" width="7.5" height="21.9"></rect><rect class="clsprint-35" x="131.6" y="219.7" width="7.5" height="21.9"></rect><path class="clsprint-36" d="M152.3,237.2a1.8,1.8,0,0,1-3.6,0c0-1,1.8-3.2,1.8-3.2S152.3,236.2,152.3,237.2Z"></path><path class="clsprint-11" d="M151.6,237.5a.65.65,0,0,1-.6.6c-.3,0-.1-.3-.1-.6s-.2-.6.1-.6A.65.65,0,0,1,151.6,237.5Z"></path><path class="clsprint-36" d="M144.6,237.2a1.8,1.8,0,1,1-3.6,0c0-1,1.8-3.2,1.8-3.2S144.6,236.2,144.6,237.2Z"></path><path class="clsprint-11" d="M143.9,237.5a.65.65,0,0,1-.6.6c-.3,0-.1-.3-.1-.6s-.2-.6.1-.6A.65.65,0,0,1,143.9,237.5Z"></path><path class="clsprint-36" d="M136.5,237.2a1.8,1.8,0,0,1-3.6,0c0-1,1.8-3.2,1.8-3.2S136.5,236.2,136.5,237.2Z"></path><path class="clsprint-11" d="M135.7,237.5a.65.65,0,0,1-.6.6c-.3,0-.1-.3-.1-.6s-.2-.6.1-.6A.65.65,0,0,1,135.7,237.5Z"></path><path class="clsprint-36" d="M129.7,237.2a1.8,1.8,0,1,1-3.6,0c0-1,1.8-3.2,1.8-3.2S129.7,236.2,129.7,237.2Z"></path><path class="clsprint-11" d="M128.9,237.5a.65.65,0,0,1-.6.6c-.3,0-.1-.3-.1-.6s-.2-.6.1-.6A.65.65,0,0,1,128.9,237.5Z"></path><polygon class="clsprint-11" points="256.8 157.5 179 157.5 169.7 98.3 247.4 98.3 256.8 157.5"></polygon><polygon class="clsprint-28" points="256.8 157.5 179 157.5 169.7 98.3 247.4 98.3 256.8 157.5"></polygon><path class="clsprint-11" d="M209.6,163.5H320.7a10.13,10.13,0,0,0-9.3-6.1H200.3A10.34,10.34,0,0,1,209.6,163.5Z"></path><path class="clsprint-26" d="M209.6,163.5H320.7a10.13,10.13,0,0,0-9.3-6.1H200.3A10.34,10.34,0,0,1,209.6,163.5Z"></path><path class="clsprint-11" d="M332.9,226.9c-7-1.4-12.9-3.6-12.1-6.7s10.9,6.3,12.1,0-15.3-4.9-8.9-9.5c3.6-2.5,3.5-6.5,2.8-9.6H317c-.5,2.5.4,5.3-1.4,5.6s-2.7-2.8-3.9-5.6h-7c.9,4.3,7.6,10,3.9,12.6-4.8,3.4-14.5-16.2-19.9-7.6s17.3,12.6,15,17.3-17.7-6.1-16.6,3.6,20,5.4,20,5.4l-4.3,7.2,2.6,2,2.2-6.3c2.5-6,4.2-1.3,6.2,1.5,6.4,9.2,22.1,3.8,9.2-2.5s-8-6.9,3.3-2S339.8,228.3,332.9,226.9Z"></path><path class="clsprint-30" d="M332.9,226.9c-7-1.4-12.9-3.6-12.1-6.7s10.9,6.3,12.1,0-15.3-4.9-8.9-9.5c3.6-2.5,3.5-6.5,2.8-9.6H317c-.5,2.5.4,5.3-1.4,5.6s-2.7-2.8-3.9-5.6h-7c.9,4.3,7.6,10,3.9,12.6-4.8,3.4-14.5-16.2-19.9-7.6s17.3,12.6,15,17.3-17.7-6.1-16.6,3.6,20,5.4,20,5.4l-4.3,7.2,2.6,2,2.2-6.3c2.5-6,4.2-1.3,6.2,1.5,6.4,9.2,22.1,3.8,9.2-2.5s-8-6.9,3.3-2S339.8,228.3,332.9,226.9Z"></path><path class="clsprint-11" d="M56.6,383H36.1a7.34,7.34,0,0,1-7.3-7.3V289.4H63.9v86.3A7.34,7.34,0,0,1,56.6,383ZM33.3,293.9v81.8a2.8,2.8,0,0,0,2.8,2.8H56.7a2.8,2.8,0,0,0,2.8-2.8V293.9Z"></path><g class="clsprint-37"><path class="clsprint-11" d="M56.6,383H36.1a7.34,7.34,0,0,1-7.3-7.3V289.4H63.9v86.3A7.34,7.34,0,0,1,56.6,383ZM33.3,293.9v81.8a2.8,2.8,0,0,0,2.8,2.8H56.7a2.8,2.8,0,0,0,2.8-2.8V293.9Z"></path></g><path class="clsprint-11" d="M134.6,383H114a7.34,7.34,0,0,1-7.3-7.3V289.4h35.1v86.3A7.26,7.26,0,0,1,134.6,383Zm-23.3-89.1v81.8a2.8,2.8,0,0,0,2.8,2.8h20.6a2.8,2.8,0,0,0,2.8-2.8V293.9Z"></path><g class="clsprint-37"><path class="clsprint-11" d="M134.6,383H114a7.34,7.34,0,0,1-7.3-7.3V289.4h35.1v86.3A7.26,7.26,0,0,1,134.6,383Zm-23.3-89.1v81.8a2.8,2.8,0,0,0,2.8,2.8h20.6a2.8,2.8,0,0,0,2.8-2.8V293.9Z"></path></g><g class="clsprint-21"><path class="clsprint-36" d="M56.6,383H36.1a7.34,7.34,0,0,1-7.3-7.3V289.4H63.9v86.3A7.34,7.34,0,0,1,56.6,383ZM33.3,293.9v81.8a2.8,2.8,0,0,0,2.8,2.8H56.7a2.8,2.8,0,0,0,2.8-2.8V293.9Z"></path><g class="clsprint-37"><path class="clsprint-36" d="M56.6,383H36.1a7.34,7.34,0,0,1-7.3-7.3V289.4H63.9v86.3A7.34,7.34,0,0,1,56.6,383ZM33.3,293.9v81.8a2.8,2.8,0,0,0,2.8,2.8H56.7a2.8,2.8,0,0,0,2.8-2.8V293.9Z"></path></g></g><g class="clsprint-21"><path class="clsprint-36" d="M134.6,383H114a7.34,7.34,0,0,1-7.3-7.3V289.4h35.1v86.3A7.26,7.26,0,0,1,134.6,383Zm-23.3-89.1v81.8a2.8,2.8,0,0,0,2.8,2.8h20.6a2.8,2.8,0,0,0,2.8-2.8V293.9Z"></path><g class="clsprint-37"><path class="clsprint-36" d="M134.6,383H114a7.34,7.34,0,0,1-7.3-7.3V289.4h35.1v86.3A7.26,7.26,0,0,1,134.6,383Zm-23.3-89.1v81.8a2.8,2.8,0,0,0,2.8,2.8h20.6a2.8,2.8,0,0,0,2.8-2.8V293.9Z"></path></g></g><rect class="clsprint-11" x="57.6" y="264.2" width="85.5" height="32.1"></rect><rect class="clsprint-24" x="57.6" y="264.2" width="85.5" height="32.1"></rect><rect class="clsprint-11" x="28.1" y="264.2" width="35" height="32.1"></rect><rect class="clsprint-25" x="28.1" y="264.2" width="35" height="32.1"></rect><rect class="clsprint-11" x="63.9" y="256.8" width="83.5" height="9.4"></rect><rect class="clsprint-28" x="63.9" y="256.8" width="83.5" height="9.4"></rect><rect class="clsprint-11" x="23.8" y="256.8" width="41.4" height="9.4"></rect><rect class="clsprint-24" x="23.8" y="256.8" width="41.4" height="9.4"></rect><rect class="clsprint-11" x="70" y="271.6" width="66.2" height="18.5"></rect><rect class="clsprint-25" x="70" y="271.6" width="66.2" height="18.5"></rect><path class="clsprint-11" d="M107.6,281.1a2.6,2.6,0,0,0,0-5.2h-3.4a2.6,2.6,0,1,0,0,5.2Z"></path><path class="clsprint-33" d="M107.6,281.1a2.6,2.6,0,0,0,0-5.2h-3.4a2.6,2.6,0,1,0,0,5.2Z"></path><path class="clsprint-11" d="M110.1,278.6a2.6,2.6,0,0,1-5.2,0,2.6,2.6,0,0,1,5.2,0Z"></path><path class="clsprint-26" d="M110.1,278.6a2.6,2.6,0,0,1-5.2,0,2.6,2.6,0,0,1,5.2,0Z"></path><path class="clsprint-8" d="M99.5,252.1h1a1.6,1.6,0,0,0,1.8-1.7l-8.4-42.7a2.53,2.53,0,0,0-2.4-1.7H24.7l9,46H99.5Z"></path><path class="clsprint-24" d="M99.5,252.1h1a1.6,1.6,0,0,0,1.8-1.7l-8.4-42.7a2.53,2.53,0,0,0-2.4-1.7H24.7l9,46H99.5Z"></path><path class="clsprint-8" d="M34.2,252.1h0a3,3,0,0,1-3-2.1L23,208.2c-.2-1.1.7-2.1,2.2-2.1h0a3,3,0,0,1,3,2.1l8.2,41.9C36.6,251.2,35.6,252.1,34.2,252.1Z"></path><path class="clsprint-27" d="M34.2,252.1h0a3,3,0,0,1-3-2.1L23,208.2c-.2-1.1.7-2.1,2.2-2.1h0a3,3,0,0,1,3,2.1l8.2,41.9C36.6,251.2,35.6,252.1,34.2,252.1Z"></path><path class="clsprint-8" d="M140.1,256.9H71.9v-4.8h72.3v.7A4,4,0,0,1,140.1,256.9Z"></path><path class="clsprint-25" d="M140.1,256.9H71.9v-4.8h72.3v.7A4,4,0,0,1,140.1,256.9Z"></path><path class="clsprint-8" d="M80.4,256.9H38.1a4.06,4.06,0,0,1-4.1-4.1v-.7H84.5v.7A4,4,0,0,1,80.4,256.9Z"></path><path class="clsprint-26" d="M80.4,256.9H38.1a4.06,4.06,0,0,1-4.1-4.1v-.7H84.5v.7A4,4,0,0,1,80.4,256.9Z"></path><path class="clsprint-10" d="M116.6,252.1a1.79,1.79,0,0,0,1.9,1.5h7.8a1.79,1.79,0,0,0,1.9-1.5Z"></path><polygon class="clsprint-36" points="97 248.5 40.2 248.5 32.6 209.4 89.4 209.4 97 248.5"></polygon><path class="clsprint-11" d="M56.1,245.8l4.5-6s-16.2,3.5-15.9-4.5,11.8,1,14.3-3S43.2,225,48.8,217.9s11,9.2,15.5,6.4-5.2-10.1,0-13.4,3.7,8.2,6.7,7.6-1.1-8.5,9.3-8.3c0,0,3.2,7.7-2.8,11.5s8,2.7,6.1,7.9-8.9-2.6-10,0,3.5,4.4,9.1,5.6,2.6,8.5-6.2,4.5-12.9-3.6-3,1.7-3.9,9.8-8,2.1c-1.3-2.4-2.1-6.3-5-1.3l-2.7,5.2Z"></path><path class="clsprint-8" d="M61.6,207.5a.77.77,0,0,1-.8.7.71.71,0,0,1-.8-.7.81.81,0,0,1,1.6,0Z"></path></g></g></svg>