<svg xmlns="http://www.w3.org/2000/svg" xmlns:xlink="http://www.w3.org/1999/xlink" viewBox="0 0 87.8 78.27"><defs><style>.b0b7d344-62af-4281-b5ff-dd40312cb4ce{fill:#fad0d1;}.b04558bb-925d-4681-8882-0ca6140cf3a6{fill:#fbdcdc;}.af2385c6-6f54-4ef7-a5f4-5b113da2c521{fill:#f9c9c9;}.efc23f5e-feac-4c40-b041-37f4d709694b{fill:#f6ae22;}.b1ede903-a70e-4f4e-b3cf-af8d7cda810f{fill:url(#b47c5ff8-997f-46a7-acb3-087b56435c3a);}.a6134771-6ea7-4320-84ef-c035ea9cf1c0,.ac54aeef-7109-44ae-93a2-a6cec7616e3e,.ad56c65b-1fdd-4df7-933f-2d4164fd83f7,.aeab220a-ce0d-4b88-8107-1eb76c7422c6,.b0ef6501-095d-4e4e-b3a8-70a8561db77c,.b3e5b7d8-560e-4753-abf1-4ccbf71d7cdf,.bcd21539-73cd-4a2f-910a-dd3b5bf570ae,.e0df50a0-0c99-45a4-89b1-fe0369ab81c2{isolation:isolate;}.b0ef6501-095d-4e4e-b3a8-70a8561db77c,.b3e5b7d8-560e-4753-abf1-4ccbf71d7cdf{opacity:0.44;}.b3e5b7d8-560e-4753-abf1-4ccbf71d7cdf{fill:url(#b9dfa9b5-3499-492c-97c6-cbd049dcbfcd);}.ac54aeef-7109-44ae-93a2-a6cec7616e3e,.bcd21539-73cd-4a2f-910a-dd3b5bf570ae{opacity:0.42;}.ac54aeef-7109-44ae-93a2-a6cec7616e3e{fill:url(#ab42902c-8c77-491d-bf23-89c9c672c783);}.f47cae5c-859f-4a10-8522-e72556379aa4{fill:url(#b87381b9-95ce-4c96-bab5-960306d4f23a);}.b0ef6501-095d-4e4e-b3a8-70a8561db77c{fill:url(#f4ceabd0-f19a-4fb4-bd6e-107b15b592f8);}.bcd21539-73cd-4a2f-910a-dd3b5bf570ae{fill:url(#f3886e4e-9e56-4a7e-92e0-95d485023181);}.ab73a083-c58a-43cb-867a-f5d186e55d05{fill:url(#ef81fb5a-9a7e-4c72-9908-dac77f2463f6);}.b5696716-d0f6-4991-9cca-76eba88e61bc{fill:url(#e0563fd1-8b01-46f3-9c11-96ec73724fba);}.ad56c65b-1fdd-4df7-933f-2d4164fd83f7,.e0df50a0-0c99-45a4-89b1-fe0369ab81c2{opacity:0.3;}.ad56c65b-1fdd-4df7-933f-2d4164fd83f7{fill:url(#f26ac520-d550-4b40-877c-e2f80381319d);}.b894ba95-134c-404c-b4bd-2fbb303c14ae{fill:url(#fce597af-5d88-4a6b-af8b-ddbaf24e45ce);}.e0df50a0-0c99-45a4-89b1-fe0369ab81c2{fill:url(#aaf0224d-dbbd-402a-a669-c47b28bbf621);}.eec3151b-1157-4622-a28a-4575cf4b1156{fill:url(#b6567de8-43ef-41d0-be19-7ad5061f280b);}.a6134771-6ea7-4320-84ef-c035ea9cf1c0,.f6b292c7-bac8-48e6-9789-93e73ad73085{opacity:0.5;}.fbff7d7a-0666-4866-87c4-1269e89d8da7{fill:url(#f0678d0d-10df-4e8b-84f7-12da817e65e8);}.b9c66be0-ce27-45c6-8ab2-e8a8aba3a746{fill:url(#b39f068d-7943-4e52-9f31-e626214597ab);}.f095c88b-8057-4176-ac1f-91901ae68cd3{fill:url(#bd732113-2ae0-4814-af18-6dc106531727);}.f3f8d98c-c9c2-4211-a787-b5a39d1db1a6{fill:url(#b37d9106-fc4f-4844-aefa-73f65444968d);}.a6134771-6ea7-4320-84ef-c035ea9cf1c0{fill:url(#bc02e78b-102b-48b6-aeb2-dd0ce1c54416);}.f144d869-53db-4198-b684-dd734785b416{fill:url(#b39eb5f4-25d4-4daf-952a-46323b56fbff);}.b2320fe4-629d-49e7-bf10-7da2f06dacf1,.e8195816-8499-468f-a4a5-e30a745455b6{fill:#fff;}.ae6b355d-c9ae-42ab-8514-51a25d58a243{fill:url(#b97945ac-c00a-4184-b713-e5d7605e8936);}.aeab220a-ce0d-4b88-8107-1eb76c7422c6{opacity:0.8;fill:url(#a1a3a6fc-26ac-4f36-bffa-5a23a1cf7bfb);}.a084b855-2a48-49b1-9012-477beb673f03{fill:url(#bbbb9ef9-3d46-4eb3-b96b-29b9ef7f377a);}.b66c8266-a559-4b3e-a127-bd6384b83adb{fill:#edecec;}.ead3409b-004d-4885-95f9-15b675a67a55{fill:#42b5e8;}.f60ba792-3c1b-4c03-b916-766e03c90d06{fill:#83d0f4;}.a81f26c8-820c-4dd1-beb2-36f0c481a958{fill:#d9d8d9;}.b91c65b8-5045-45a0-8b08-3dc87d7c5d70{fill:#72bce8;}.abe8d4b8-0d34-4608-bd0d-6e93a770b490{fill:#6fcde5;}.b606915d-ba34-4825-a7ea-c974fe81f0b2{fill:none;stroke:#bcbdbf;stroke-miterlimit:10;stroke-width:0.62px;}.fca1ef79-70e6-4583-b6ab-222818139349{fill:#eaeaea;}.ae3296ed-49da-43ca-bc24-7aafb8b48086{fill:#0aaf4b;}.e8195816-8499-468f-a4a5-e30a745455b6{fill-rule:evenodd;}.fb73bc40-6244-4633-b321-51875d4ad607{fill:#f2725f;}.f1318f28-fab4-4966-a958-24ee9912069e{fill:#465b65;}.b9ee3715-1044-467d-9f81-a7a5362dec0d{fill:#4372b7;}</style><linearGradient id="b47c5ff8-997f-46a7-acb3-087b56435c3a" x1="11.55" y1="29.34" x2="17.33" y2="32.5" gradientTransform="matrix(0.87, 0.49, 0.49, -0.87, -13.23, 68.44)" gradientUnits="userSpaceOnUse"><stop offset="0" stop-color="#3cc5f2"></stop><stop offset="1" stop-color="#4067b0"></stop></linearGradient><linearGradient id="b9dfa9b5-3499-492c-97c6-cbd049dcbfcd" x1="8.95" y1="27.73" x2="15.84" y2="31.65" gradientTransform="matrix(1, 0, 0, -1, 0, 79.38)" xlink:href="#b47c5ff8-997f-46a7-acb3-087b56435c3a"></linearGradient><linearGradient id="ab42902c-8c77-491d-bf23-89c9c672c783" x1="15.83" y1="30.54" x2="10.01" y2="26.83" gradientTransform="matrix(1, 0, 0, -1, 0, 79.38)" xlink:href="#b47c5ff8-997f-46a7-acb3-087b56435c3a"></linearGradient><linearGradient id="b87381b9-95ce-4c96-bab5-960306d4f23a" x1="13.88" y1="30.58" x2="19.91" y2="33.97" gradientTransform="matrix(0.87, 0.49, 0.49, -0.87, -13.78, 66.27)" xlink:href="#b47c5ff8-997f-46a7-acb3-087b56435c3a"></linearGradient><linearGradient id="f4ceabd0-f19a-4fb4-bd6e-107b15b592f8" x1="12.88" y1="30.63" x2="20.54" y2="34.68" gradientTransform="matrix(1, 0, 0, -1, 0, 79.38)" xlink:href="#b47c5ff8-997f-46a7-acb3-087b56435c3a"></linearGradient><linearGradient id="f3886e4e-9e56-4a7e-92e0-95d485023181" x1="20.42" y1="33.37" x2="13.47" y2="29.21" gradientTransform="matrix(1, 0, 0, -1, 0, 79.38)" xlink:href="#b47c5ff8-997f-46a7-acb3-087b56435c3a"></linearGradient><linearGradient id="ef81fb5a-9a7e-4c72-9908-dac77f2463f6" x1="16.9" y1="31.45" x2="30.88" y2="39.91" gradientTransform="matrix(1, 0, 0, -1, 0, 79.38)" gradientUnits="userSpaceOnUse"><stop offset="0.01" stop-color="#f7982b"></stop><stop offset="1" stop-color="#fddf00"></stop></linearGradient><linearGradient id="e0563fd1-8b01-46f3-9c11-96ec73724fba" x1="15.45" y1="34.45" x2="28.06" y2="45.02" gradientTransform="matrix(1, 0, 0, -1, 0, 79.38)" gradientUnits="userSpaceOnUse"><stop offset="0" stop-color="#fddf00"></stop><stop offset="1" stop-color="#fddf00" stop-opacity="0"></stop></linearGradient><linearGradient id="f26ac520-d550-4b40-877c-e2f80381319d" x1="15.22" y1="29.7" x2="33.16" y2="35.02" xlink:href="#ef81fb5a-9a7e-4c72-9908-dac77f2463f6"></linearGradient><linearGradient id="fce597af-5d88-4a6b-af8b-ddbaf24e45ce" x1="26.75" y1="37.84" x2="39.27" y2="44.72" gradientTransform="matrix(0.87, 0.49, 0.49, -0.87, -16.11, 57.28)" xlink:href="#ef81fb5a-9a7e-4c72-9908-dac77f2463f6"></linearGradient><linearGradient id="aaf0224d-dbbd-402a-a669-c47b28bbf621" x1="27.65" y1="41.44" x2="39.68" y2="41.44" xlink:href="#ef81fb5a-9a7e-4c72-9908-dac77f2463f6"></linearGradient><linearGradient id="b6567de8-43ef-41d0-be19-7ad5061f280b" x1="30.88" y1="47.75" x2="44.26" y2="25.18" gradientTransform="matrix(1, 0, 0, -1, 0, 79.38)" xlink:href="#b47c5ff8-997f-46a7-acb3-087b56435c3a"></linearGradient><linearGradient id="f0678d0d-10df-4e8b-84f7-12da817e65e8" x1="28.04" y1="43.22" x2="41.58" y2="43.22" gradientTransform="matrix(1, 0, 0, -1, 0, 79.38)" xlink:href="#b47c5ff8-997f-46a7-acb3-087b56435c3a"></linearGradient><linearGradient id="b39f068d-7943-4e52-9f31-e626214597ab" x1="26.21" y1="41.34" x2="42.18" y2="41.34" gradientTransform="matrix(1, 0, 0, -1, 0, 79.38)" xlink:href="#b47c5ff8-997f-46a7-acb3-087b56435c3a"></linearGradient><linearGradient id="bd732113-2ae0-4814-af18-6dc106531727" x1="33.58" y1="41.68" x2="29.72" y2="38.99" gradientTransform="matrix(1, 0, 0, -1, 0, 79.38)" xlink:href="#b47c5ff8-997f-46a7-acb3-087b56435c3a"></linearGradient><linearGradient id="b37d9106-fc4f-4844-aefa-73f65444968d" x1="33.65" y1="45.36" x2="28.98" y2="42.24" gradientTransform="matrix(1, 0, 0, -1, 0, 79.38)" xlink:href="#b47c5ff8-997f-46a7-acb3-087b56435c3a"></linearGradient><linearGradient id="bc02e78b-102b-48b6-aeb2-dd0ce1c54416" x1="39.26" y1="41.32" x2="31.8" y2="37.24" gradientTransform="matrix(1, 0, 0, -1, 0, 79.38)" xlink:href="#b47c5ff8-997f-46a7-acb3-087b56435c3a"></linearGradient><linearGradient id="b39eb5f4-25d4-4daf-952a-46323b56fbff" x1="33.67" y1="43.87" x2="38.67" y2="34.23" gradientTransform="matrix(1, 0, 0, -1, 0, 79.38)" xlink:href="#b47c5ff8-997f-46a7-acb3-087b56435c3a"></linearGradient><linearGradient id="b97945ac-c00a-4184-b713-e5d7605e8936" x1="17.96" y1="8.37" x2="17.96" y2="-9.89" gradientTransform="matrix(1, 0, 0, -1, 0, 79.38)" gradientUnits="userSpaceOnUse"><stop offset="0" stop-color="#4065ae"></stop><stop offset="1" stop-color="#2c2d82"></stop></linearGradient><linearGradient id="a1a3a6fc-26ac-4f36-bffa-5a23a1cf7bfb" x1="19.08" y1="-1.95" x2="19.08" y2="13.12" gradientTransform="matrix(1, 0, 0, -1, 0, 79.38)" xlink:href="#b47c5ff8-997f-46a7-acb3-087b56435c3a"></linearGradient><linearGradient id="bbbb9ef9-3d46-4eb3-b96b-29b9ef7f377a" x1="26.16" y1="39.08" x2="54.41" y2="52.92" xlink:href="#ef81fb5a-9a7e-4c72-9908-dac77f2463f6"></linearGradient></defs><g id="b90a4799-5897-4dc3-aa4a-1744f98081df" data-name="Layer 2"><g id="a7258188-e297-4708-88dd-723e27675314" data-name="Layer 1"><path class="b0b7d344-62af-4281-b5ff-dd40312cb4ce" d="M14.51,67.07a14,14,0,0,0,7.6.7l-.51-2.84-6.72-6Z"></path><path class="b04558bb-925d-4681-8882-0ca6140cf3a6" d="M15.93,67.56a11.91,11.91,0,0,1-1.42-.49L14.88,59l1.41,1.25A69.62,69.62,0,0,0,15.93,67.56Z"></path><path class="af2385c6-6f54-4ef7-a5f4-5b113da2c521" d="M18.13,67.94a14.74,14.74,0,0,0,4-.17l-.51-2.84-4.12-2.28C17.61,64.42,17.83,66.19,18.13,67.94Z"></path><path class="af2385c6-6f54-4ef7-a5f4-5b113da2c521" d="M19.26,53.09c2.14-.78,3.83-.28,5.47,2.54s3.91,5.25,2.84,6.12-3.2,3.4-6.42,3.16C16.37,64.55,13,55.34,19.26,53.09Z"></path><path class="efc23f5e-feac-4c40-b041-37f4d709694b" d="M25.14,62.81h0a2.2,2.2,0,0,1-3-.85L15.3,49.64l5.47-3,5.36,13.5A2.19,2.19,0,0,1,25.14,62.81Z"></path><rect class="b1ede903-a70e-4f4e-b3cf-af8d7cda810f" x="10.64" y="45.13" width="7.61" height="6.66" rx="3.08" transform="translate(-21.76 13.16) rotate(-29.13)"></rect><path class="b3e5b7d8-560e-4753-abf1-4ccbf71d7cdf" d="M12.44,48l2.36-1.32a2.46,2.46,0,0,1,3.34,1L18.89,49a2.26,2.26,0,0,0-.29-.92l-.86-1.51a2.44,2.44,0,0,0-3.33-.95L12,46.92a2.45,2.45,0,0,0-.95,3.33l.11.2A2.46,2.46,0,0,1,12.44,48Z"></path><path class="ac54aeef-7109-44ae-93a2-a6cec7616e3e" d="M18.2,47.37l-.85-1.53a2.85,2.85,0,0,0-.38-.53l.44.8a2.46,2.46,0,0,1-.94,3.34h0L14.1,50.77a2.44,2.44,0,0,1-2.94-.43l.41.74A2.45,2.45,0,0,0,14.9,52h0l2.36-1.31A2.46,2.46,0,0,0,18.2,47.37Z"></path><rect class="f47cae5c-859f-4a10-8522-e72556379aa4" x="12.88" y="41.51" width="10.91" height="9.55" rx="3.91" transform="translate(-20.21 14.78) rotate(-29.13)"></rect><path class="b0ef6501-095d-4e4e-b3a8-70a8561db77c" d="M14.77,45.37l4.36-2.43a3,3,0,0,1,4,1.15l1.51,2.68a3.17,3.17,0,0,0-.34-1l-1.76-3.15a3,3,0,0,0-4-1.13l-4.35,2.42A3,3,0,0,0,13,48l.27.47A3,3,0,0,1,14.77,45.37Z"></path><path class="bcd21539-73cd-4a2f-910a-dd3b5bf570ae" d="M24,45.21l-1.76-3.14a2.92,2.92,0,0,0-1.13-1.13l0,.07,1.76,3.15a3,3,0,0,1-1.13,4h0l-4.35,2.43a3,3,0,0,1-2.91,0,3,3,0,0,0,4,1.07l4.34-2.47A3,3,0,0,0,24,45.21Z"></path><path class="ab73a083-c58a-43cb-867a-f5d186e55d05" d="M40.38,47.9c-7.77.51-12.09-.5-16.87,2.17-3.26,1.81-8.91-8.36-5.66-10.19,5.21-2.89,6.59-6.94,10.71-13.2Z"></path><path class="b5696716-d0f6-4991-9cca-76eba88e61bc" d="M18.69,42.44c5.21-2.89,6.85-6.37,11-12.63l-.5-1.13c-4.12,6.26-5.75,9.74-11,12.63-1.5.84-.75,3.3.45,5.7C17.87,45,17.42,43.16,18.69,42.44Z"></path><path class="ad56c65b-1fdd-4df7-933f-2d4164fd83f7" d="M39.16,45.71c-7.52.45-11.77-.48-16.47,2.14-1.77,1-4.25-1.57-5.62-4.4.84,3.47,4.2,7.86,6.44,6.62,4.78-2.67,9.09-1.66,16.87-2.17Z"></path><ellipse class="b894ba95-134c-404c-b4bd-2fbb303c14ae" cx="34.47" cy="37.3" rx="3.9" ry="12.14" transform="translate(-13.8 21.5) rotate(-29.13)"></ellipse><path class="e0df50a0-0c99-45a4-89b1-fe0369ab81c2" d="M39.54,48.07c.58-2.15-.66-6.69-3.27-11.39-2.84-5.09-6.37-8.7-8.48-8.86-.59,2.15.65,6.68,3.27,11.38C33.9,44.3,37.42,47.9,39.54,48.07Z"></path><path class="eec3151b-1157-4622-a28a-4575cf4b1156" d="M38.88,34.85c-3.68-6.59-8.71-10.8-11.24-9.39S26.05,33.36,29.72,40,38.43,50.75,41,49.34,42.53,41.44,38.88,34.85Zm1.5,13c-1.88,1.05-6.05-2.84-9.32-8.7s-4.38-11.46-2.5-12.51,6.05,2.85,9.32,8.71,4.39,11.45,2.5,12.5Z"></path><g class="f6b292c7-bac8-48e6-9789-93e73ad73085"><path class="fbff7d7a-0666-4866-87c4-1269e89d8da7" d="M38.17,34.61c-3.26-5.86-7.43-9.76-9.32-8.71A1.86,1.86,0,0,0,28,27.22a1.39,1.39,0,0,1,.52-.53c1.88-1,6.05,2.85,9.32,8.71,2.54,4.56,3.77,9,3.31,11.19C42.27,44.8,41.07,39.8,38.17,34.61Z"></path><path class="b9c66be0-ce27-45c6-8ab2-e8a8aba3a746" d="M41.24,48.55C38.71,50,33.69,45.75,30,39.16c-2.83-5-4-10-3.3-12.7-1.25,2.42-.11,7.92,3,13.49,3.68,6.6,8.71,10.8,11.23,9.39a2.75,2.75,0,0,0,1.23-1.79A2.39,2.39,0,0,1,41.24,48.55Z"></path></g><path class="f095c88b-8057-4176-ac1f-91901ae68cd3" d="M31.06,39.2a36.91,36.91,0,0,0,2.24,3.53l3.3-1.84L32.54,33.6l-3.31,1.84A38.34,38.34,0,0,0,31.06,39.2Z"></path><path class="f3f8d98c-c9c2-4211-a787-b5a39d1db1a6" d="M30.13,37.41s-.63-1.33-.9-2l3.31-1.84,1.1,2Z"></path><path class="a6134771-6ea7-4320-84ef-c035ea9cf1c0" d="M35.15,38.9l-3.22,1.79c.45.72.9,1.4,1.37,2l3.3-1.84Z"></path><path class="f144d869-53db-4198-b684-dd734785b416" d="M35.74,36.59c1.13,2,1.51,3.94.86,4.3s-2.08-1-3.2-3-1.51-3.94-.86-4.3S34.62,34.58,35.74,36.59Z"></path><path class="b04558bb-925d-4681-8882-0ca6140cf3a6" d="M27,59.47a1.31,1.31,0,0,1,.75,2.41,8.93,8.93,0,0,1-3.19,1.19c-1,.15-1.48-1.23-.45-2A8.39,8.39,0,0,1,27,59.47Z"></path><path class="b0b7d344-62af-4281-b5ff-dd40312cb4ce" d="M24.54,63.07a8.91,8.91,0,0,0,3.2-1.19,1.18,1.18,0,0,0,.58-1.32,1.5,1.5,0,0,1-.25.19,9,9,0,0,1-3.19,1.18.86.86,0,0,1-1-.69h0C23.15,62.05,23.6,63.21,24.54,63.07Z"></path><path class="b04558bb-925d-4681-8882-0ca6140cf3a6" d="M26.35,57c1.2-.3,2.44,1.92.9,2.85a10.73,10.73,0,0,1-3.77,1.4c-1.21.17-1.74-1.45-.53-2.4A9.89,9.89,0,0,1,26.35,57Z"></path><path class="b0b7d344-62af-4281-b5ff-dd40312cb4ce" d="M23.48,61.28a10.88,10.88,0,0,0,3.77-1.4,1.41,1.41,0,0,0,.66-1.65,1.4,1.4,0,0,1-.66.81,10.49,10.49,0,0,1-3.77,1.4,1,1,0,0,1-1.13-.7A1.09,1.09,0,0,0,23.48,61.28Z"></path><path class="b04558bb-925d-4681-8882-0ca6140cf3a6" d="M24.6,54.21c1.28-.68,3.29,1.5,1.79,3a12.23,12.23,0,0,1-3.9,2.6c-1.32.53-2.36-1.17-1.25-2.57A11.24,11.24,0,0,1,24.6,54.21Z"></path><path class="b0b7d344-62af-4281-b5ff-dd40312cb4ce" d="M22.49,59.79a12.23,12.23,0,0,0,3.9-2.6,1.63,1.63,0,0,0,.43-1.77,1.65,1.65,0,0,1-.43.64,12.23,12.23,0,0,1-3.9,2.6A1.19,1.19,0,0,1,20.91,58s0-.09-.05-.13C20.47,59.11,21.38,60.24,22.49,59.79Z"></path><path class="b04558bb-925d-4681-8882-0ca6140cf3a6" d="M22.52,52c1.19-.63,3.05,1.41,1.66,2.77a15.27,15.27,0,0,1-3.33,2.55c-1.29.66-2.45-.83-1.42-2.13A13.12,13.12,0,0,1,22.52,52Z"></path><path class="b0b7d344-62af-4281-b5ff-dd40312cb4ce" d="M20.85,57.34a14.8,14.8,0,0,0,3.33-2.55,1.54,1.54,0,0,0,.18-2.07,1.47,1.47,0,0,1-.49,1.06,15,15,0,0,1-3.33,2.56A1.19,1.19,0,0,1,19,56.11a1.21,1.21,0,0,0,1,1.39A1.17,1.17,0,0,0,20.85,57.34Z"></path><path class="b04558bb-925d-4681-8882-0ca6140cf3a6" d="M21.15,50.62c1.22,0,2.19,2.41-1.69,4.27.08,1-.66,1.7.07,2.57C20.64,58.8,21.21,59.56,21,61a2.54,2.54,0,0,1-3.82,1.51c-1.77-.91-4.35-5.47.24-9.55.42-.38,2.46-1.41,2.64-1.59C20.63,50.74,20.81,50.62,21.15,50.62Z"></path><path class="b0b7d344-62af-4281-b5ff-dd40312cb4ce" d="M17.15,62.5A2.51,2.51,0,0,0,21,61c.24-1.51-.34-2.19-1.45-3.53-.73-.88,0-1.55-.07-2.58,3.88-1.85,2.91-4.26,1.69-4.26h-.08c.52.8.24,2.42-2.55,3.77.08,1-.66,1.7.07,2.58,1.1,1.34,1.68,2.09,1.45,3.53S19.26,62.47,17.15,62.5Z"></path><rect class="b2320fe4-629d-49e7-bf10-7da2f06dacf1" x="13.52" y="65.01" width="8.89" height="13.25"></rect><rect class="ae6b355d-c9ae-42ab-8514-51a25d58a243" x="12.6" y="66.63" width="10.71" height="11.63"></rect><path class="aeab220a-ce0d-4b88-8107-1eb76c7422c6" d="M23.32,78.27h-8.5a31.22,31.22,0,0,0,4.82-11.64h3.69Z"></path><path class="a084b855-2a48-49b1-9012-477beb673f03" d="M37.48,28.11a.88.88,0,0,1-.9-.86.86.86,0,0,1,.15-.49L44.54,14.6a.89.89,0,1,1,1.5,1L38.22,27.74A.87.87,0,0,1,37.48,28.11Zm5.46,5.37L55.85,27a.89.89,0,0,0-.54-1.69,1.13,1.13,0,0,0-.22.11L42.16,31.91a.89.89,0,0,0,.8,1.58Zm1.84,8,14.46-.57a.88.88,0,0,0-.07-1.76l-14.45.58a.88.88,0,0,0,.08,1.76Z"></path><path class="b2320fe4-629d-49e7-bf10-7da2f06dacf1" d="M66.4,72a.54.54,0,1,1-.53-.53h0A.53.53,0,0,1,66.4,72Zm1.21-.53a.54.54,0,1,0,0,1.07.53.53,0,0,0,.53-.53h0A.53.53,0,0,0,67.61,71.5Zm1.75,0a.54.54,0,1,0,.53.53h0A.53.53,0,0,0,69.36,71.5Z"></path><path class="b66c8266-a559-4b3e-a127-bd6384b83adb" d="M50.67,70.27l-.89-1.34-.56.38a2.92,2.92,0,0,0-.32-.21l.13-.67-1.56-.32-.14.66-.38.07-.37-.56-1.32.88.37.56a2.2,2.2,0,0,0-.21.32l-.67-.14-.32,1.57.67.14a2.53,2.53,0,0,0,.07.38l-.57.37.88,1.34.57-.38.31.22-.13.66,1.57.33.13-.67a1.59,1.59,0,0,0,.38-.07l.38.57L50,73.49l-.38-.57a2.2,2.2,0,0,0,.21-.32l.67.14.32-1.57L50.16,71c0-.13,0-.25-.07-.38Zm-2.16,2.39A1.61,1.61,0,1,1,49,70.42h0a1.6,1.6,0,0,1-.46,2.23Zm-6-.18-.55-.84-.36.24-.2-.14.08-.42-1-.2-.09.42-.23,0-.24-.35-.84.55.23.36-.13.2-.42-.09-.2,1,.41.08a1,1,0,0,0,0,.24l-.35.23.56.85.36-.24.2.14-.09.41,1,.21.08-.42a1,1,0,0,0,.24,0l.23.38.85-.55-.24-.38a1.37,1.37,0,0,0,.13-.2l.42.09.21-1L42.18,73a1.69,1.69,0,0,0,0-.24ZM41.13,74a1,1,0,0,1-1.41-.29A1,1,0,0,1,40,72.3,1,1,0,1,1,41.13,74Z"></path><circle class="ead3409b-004d-4885-95f9-15b675a67a55" cx="53.84" cy="50.74" r="3.76" transform="translate(-5.31 6.31) rotate(-6.39)"></circle><path class="b66c8266-a559-4b3e-a127-bd6384b83adb" d="M53.58,53.9v-.78a2.25,2.25,0,0,1-1.18-.34l.19-.51a2.06,2.06,0,0,0,1.11.33c.54,0,.91-.31.91-.76s-.3-.68-.87-.91c-.78-.31-1.27-.66-1.27-1.33a1.27,1.27,0,0,1,1.16-1.24v-.78h.48v.75a2.17,2.17,0,0,1,1,.27l-.19.51a1.93,1.93,0,0,0-1-.26c-.59,0-.82.35-.82.66s.29.6,1,.88,1.19.72,1.19,1.41a1.33,1.33,0,0,1-1.22,1.31v.8Z"></path><circle class="ead3409b-004d-4885-95f9-15b675a67a55" cx="8.47" cy="14.47" r="4.13"></circle><path class="b66c8266-a559-4b3e-a127-bd6384b83adb" d="M8.18,17.94v-.86a2.48,2.48,0,0,1-1.3-.37l.21-.57a2.28,2.28,0,0,0,1.21.38c.6,0,1-.35,1-.83s-.33-.75-1-1C7.49,14.35,7,14,7,13.23a1.39,1.39,0,0,1,1.28-1.37V11h.52v.82a2.23,2.23,0,0,1,1.1.29l-.21.56a2.12,2.12,0,0,0-1.07-.29c-.65,0-.89.38-.89.73s.31.66,1,1,1.31.8,1.31,1.55a1.47,1.47,0,0,1-1.33,1.44v.88Z"></path><path class="f60ba792-3c1b-4c03-b916-766e03c90d06" d="M66.41,20.63a1.87,1.87,0,1,0-2.77.51L62.57,23a.27.27,0,0,0,.1.37.28.28,0,0,0,.38-.1h0l1.06-1.82A1.88,1.88,0,0,0,66.41,20.63Zm-2.27.2A1.32,1.32,0,1,1,66,20.35h0a1.33,1.33,0,0,1-1.81.49l0,0Z"></path><path class="a81f26c8-820c-4dd1-beb2-36f0c481a958" d="M61.23,42c.26.13,3.36,2.47,3.36,2.47l9.65-1.45Z"></path><polygon class="b91c65b8-5045-45a0-8b08-3dc87d7c5d70" points="64.33 48.6 64.59 44.5 74.24 43.05 64.33 48.6"></polygon><polygon class="abe8d4b8-0d34-4608-bd0d-6e93a770b490" points="64.33 48.6 67.12 46.16 74.24 43.05 64.33 48.6"></polygon><polygon class="a81f26c8-820c-4dd1-beb2-36f0c481a958" points="67.12 46.16 71.02 48.95 74.24 43.05 67.12 46.16"></polygon><circle class="b606915d-ba34-4825-a7ea-c974fe81f0b2" cx="4.65" cy="65.13" r="0.74"></circle><circle class="b606915d-ba34-4825-a7ea-c974fe81f0b2" cx="80.07" cy="53.96" r="0.74"></circle><circle class="b606915d-ba34-4825-a7ea-c974fe81f0b2" cx="16.29" cy="25.47" r="0.74"></circle><circle class="b606915d-ba34-4825-a7ea-c974fe81f0b2" cx="49.75" cy="12.34" r="0.74"></circle><circle class="b606915d-ba34-4825-a7ea-c974fe81f0b2" cx="44" cy="64.71" r="0.74"></circle><path class="b66c8266-a559-4b3e-a127-bd6384b83adb" d="M1.13,41.89H.78v-.35a.14.14,0,0,0-.14-.14h0a.15.15,0,0,0-.15.14v.35H.15A.15.15,0,0,0,0,42H0a.15.15,0,0,0,.14.16H.49v.33a.14.14,0,0,0,.14.15h0a.14.14,0,0,0,.14-.14h0v-.33h.35A.15.15,0,0,0,1.27,42a.14.14,0,0,0-.14-.14Z"></path><path class="b66c8266-a559-4b3e-a127-bd6384b83adb" d="M63,6.53h-.34V6.19a.15.15,0,0,0-.3,0v.34H62a.15.15,0,0,0-.15.15.15.15,0,0,0,.15.15h.34v.34a.16.16,0,0,0,.13.17.14.14,0,0,0,.17-.12V6.83H63a.15.15,0,0,0,.15-.14h0A.15.15,0,0,0,63,6.53Z"></path><path class="b66c8266-a559-4b3e-a127-bd6384b83adb" d="M47,23.73h-.34v-.34a.15.15,0,0,0-.15-.15h0a.15.15,0,0,0-.15.15v.34H46a.15.15,0,0,0-.17.13.14.14,0,0,0,.12.17h.39v.34a.15.15,0,0,0,.3,0h0V24H47a.15.15,0,1,0,0-.3Z"></path><path class="b66c8266-a559-4b3e-a127-bd6384b83adb" d="M23.81,7.81h-.34V7.47a.15.15,0,0,0-.3,0v.34h-.34a.15.15,0,0,0,0,.3h.34v.34a.15.15,0,0,0,.14.15h0a.15.15,0,0,0,.15-.15h0V8.13h.34A.15.15,0,0,0,24,8h0a.15.15,0,0,0-.13-.16Z"></path><path class="b66c8266-a559-4b3e-a127-bd6384b83adb" d="M76.06,62.39h-.34v-.34a.15.15,0,0,0-.14-.15h0a.15.15,0,0,0-.15.14h0v.34h-.34a.14.14,0,0,0-.14.14h0a.14.14,0,0,0,.14.15h.34V63a.16.16,0,0,0,.15.16h0a.15.15,0,0,0,.15-.15h0v-.33h.34a.15.15,0,1,0,0-.3Z"></path><path class="b66c8266-a559-4b3e-a127-bd6384b83adb" d="M87.66,42.42h-.34v-.34a.15.15,0,0,0-.3,0h0v.34h-.34a.15.15,0,0,0-.15.15.15.15,0,0,0,.15.15H87v.34a.15.15,0,0,0,.14.15h0a.15.15,0,0,0,.15-.15h0v-.34h.34a.15.15,0,0,0,.14-.15h0a.14.14,0,0,0-.14-.15Z"></path><path class="b66c8266-a559-4b3e-a127-bd6384b83adb" d="M33.43,66.55h-.34v-.33a.15.15,0,0,0-.15-.15h0a.15.15,0,0,0-.15.14h0v.33h-.34a.16.16,0,0,0-.15.16h0a.15.15,0,0,0,.15.14h.34v.35a.15.15,0,0,0,.3,0v-.35h.34a.15.15,0,0,0,.15-.14h0a.16.16,0,0,0-.15-.16Z"></path><path class="b66c8266-a559-4b3e-a127-bd6384b83adb" d="M59.17,45.91h-.34v-.33a.16.16,0,0,0-.16-.16h0a.15.15,0,0,0-.14.15h0v.33h-.34a.15.15,0,0,0-.15.15h0a.15.15,0,0,0,.15.15h.34v.34a.15.15,0,0,0,.14.15h0a.15.15,0,0,0,.16-.14h0v-.34h.34a.14.14,0,0,0,.14-.14h0a.15.15,0,0,0-.14-.15Z"></path><path class="b66c8266-a559-4b3e-a127-bd6384b83adb" d="M55,72.26h-.34v-.33a.17.17,0,0,0-.13-.18.16.16,0,0,0-.17.13v.38H54a.16.16,0,0,0-.17.13.14.14,0,0,0,.12.17h.39v.34a.14.14,0,0,0,.12.17.15.15,0,0,0,.18-.12v-.39H55a.15.15,0,0,0,.17-.12.16.16,0,0,0-.13-.18Z"></path><path class="fca1ef79-70e6-4583-b6ab-222818139349" d="M77.08,37.92h0a4.44,4.44,0,0,1-4.44-4.44h0A4.44,4.44,0,0,1,77.07,29h0a4.44,4.44,0,0,1,4.44,4.45h0a4.44,4.44,0,0,1-4.44,4.44Z"></path><path class="b2320fe4-629d-49e7-bf10-7da2f06dacf1" d="M77.08,30.65a2.84,2.84,0,1,0,2.83,2.84h0A2.83,2.83,0,0,0,77.08,30.65Zm0,.49a2.29,2.29,0,0,1,1.42.49,2.79,2.79,0,0,1-1.17.87,10.89,10.89,0,0,0-.83-1.29,2.25,2.25,0,0,1,.58-.07ZM76,31.4a10.61,10.61,0,0,1,.84,1.26,7.9,7.9,0,0,1-2,.27A2.29,2.29,0,0,1,76,31.4Zm-1.28,2.08v-.06a8.16,8.16,0,0,0,2.35-.31,3.49,3.49,0,0,1,.15.34A3.61,3.61,0,0,0,75.3,35,2.26,2.26,0,0,1,74.74,33.48Zm2.34,2.34a2.34,2.34,0,0,1-1.44-.49,3.13,3.13,0,0,1,1.8-1.43,9.81,9.81,0,0,1,.5,1.76A2.34,2.34,0,0,1,77.08,35.82Zm1.3-.4a10.29,10.29,0,0,0-.46-1.62,4.84,4.84,0,0,1,1.47,0A2.32,2.32,0,0,1,78.38,35.42Zm-.65-2.09c0-.13-.11-.26-.18-.4a3.28,3.28,0,0,0,1.31-1,2.34,2.34,0,0,1,.55,1.38A5,5,0,0,0,77.73,33.33Z"></path><path class="ae3296ed-49da-43ca-bc24-7aafb8b48086" d="M36.6,8.42h0a4.2,4.2,0,0,1-4.21-4.21h0A4.21,4.21,0,0,1,36.59,0h0a4.22,4.22,0,0,1,4.21,4.21h0A4.21,4.21,0,0,1,36.6,8.42Z"></path><path class="e8195816-8499-468f-a4a5-e30a745455b6" d="M38.91,4.09a2.27,2.27,0,0,0-4.54,0v.1a2.26,2.26,0,0,0,.33,1.16l-.41,1.21,1.25-.4a2.26,2.26,0,0,0,3.36-2ZM36.64,6a2,2,0,0,1-1-.31L34.86,6l.25-.69a1.88,1.88,0,0,1-.36-1.1V4a1.91,1.91,0,0,1,3.8,0v.15A1.91,1.91,0,0,1,36.64,6Z"></path><path class="e8195816-8499-468f-a4a5-e30a745455b6" d="M38.08,4.76l-.52-.25c-.07,0-.12,0-.17,0s-.2.24-.24.3-.09.05-.17,0a2,2,0,0,1-.61-.38,2.53,2.53,0,0,1-.43-.5c0-.08,0-.12,0-.16l.11-.13,0,0,.05-.09a.15.15,0,0,0,0-.13S36,3,35.93,2.86s-.13-.13-.17-.13h-.15a.26.26,0,0,0-.2.1.83.83,0,0,0-.27.63.78.78,0,0,0,0,.26,1.61,1.61,0,0,0,.27.52,3.09,3.09,0,0,0,1.3,1.13c.78.31.78.2.92.19a.76.76,0,0,0,.52-.37.62.62,0,0,0,0-.38Z"></path><path class="fb73bc40-6244-4633-b321-51875d4ad607" d="M60,36.65h0a3.87,3.87,0,0,1-3.89-3.88h0A3.89,3.89,0,0,1,60,28.87h0a3.9,3.9,0,0,1,3.9,3.89h0A3.9,3.9,0,0,1,60,36.65Z"></path><path class="b2320fe4-629d-49e7-bf10-7da2f06dacf1" d="M58.8,33.12a.08.08,0,0,0,.12,0s0,0,0,0a1.74,1.74,0,0,1,0-.22c0-.05,0-.08,0-.15a.71.71,0,0,1-.18-.52A1.25,1.25,0,0,1,60,30.9h.07a1,1,0,0,1,1.1.88v.14c0,.76-.34,1.41-.84,1.41a.4.4,0,0,1-.43-.38.57.57,0,0,1,0-.13,5.89,5.89,0,0,0,.24-.94.37.37,0,0,0-.31-.4H59.8c-.28,0-.51.29-.51.69a.88.88,0,0,0,.08.42L59,34a2.86,2.86,0,0,0,0,1s0,0,0,0l0,0a2.8,2.8,0,0,0,.48-.86l.19-.73a.75.75,0,0,0,.65.33c.85,0,1.43-.78,1.43-1.82a1.58,1.58,0,0,0-1.67-1.51h0a1.75,1.75,0,0,0-1.89,1.66A1,1,0,0,0,58.8,33.12Z"></path><path class="f1318f28-fab4-4966-a958-24ee9912069e" d="M74.81,16.23h0a4.17,4.17,0,0,1-4.17-4.16h0A4.17,4.17,0,0,1,74.8,7.89h0A4.17,4.17,0,0,1,79,12.06h0a4.16,4.16,0,0,1-4.16,4.17Z"></path><path class="b2320fe4-629d-49e7-bf10-7da2f06dacf1" d="M74.81,10.19h.92a1.42,1.42,0,0,1,.42.07.8.8,0,0,1,.27.18.78.78,0,0,1,.17.26,1.49,1.49,0,0,1,.08.42c0,.25,0,.32,0,.93s0,.68,0,.92a1.49,1.49,0,0,1-.08.42.72.72,0,0,1-.44.44,1.16,1.16,0,0,1-.42.07,21.17,21.17,0,0,1-1.84,0,1.25,1.25,0,0,1-.43-.07.75.75,0,0,1-.43-.44A1.2,1.2,0,0,1,73,13c0-.25,0-.31,0-.92s0-.69,0-.93A1.2,1.2,0,0,1,73,10.7a.56.56,0,0,1,.17-.26.68.68,0,0,1,.26-.18,1.25,1.25,0,0,1,.43-.07h.92m0-.42c-.62,0-.7,0-.94,0a1.56,1.56,0,0,0-.57.1,1.2,1.2,0,0,0-.4.26,1.22,1.22,0,0,0-.27.41,1.78,1.78,0,0,0-.1.56c0,.24,0,.31,0,.94s0,.69,0,.94a1.5,1.5,0,0,0,.11.55,1.09,1.09,0,0,0,.27.4,1.05,1.05,0,0,0,.39.27,1.55,1.55,0,0,0,.56.11h1.88a1.68,1.68,0,0,0,.55-.11,1.06,1.06,0,0,0,.43-.26,1.16,1.16,0,0,0,.25-.41,1.8,1.8,0,0,0,.11-.56c0-.24,0-.32,0-.94s0-.7,0-.94a1.68,1.68,0,0,0-.11-.55,1,1,0,0,0-.25-.4,1.17,1.17,0,0,0-.42-.27,1.68,1.68,0,0,0-.55-.1c-.24,0-.32,0-.94,0"></path><path class="b2320fe4-629d-49e7-bf10-7da2f06dacf1" d="M74.81,10.89A1.17,1.17,0,1,0,76,12.06a1.17,1.17,0,0,0-1.17-1.17m0,1.93a.76.76,0,0,1-.76-.76.77.77,0,0,1,.77-.76.75.75,0,0,1,.75.76.76.76,0,0,1-.76.76h0"></path><path class="b2320fe4-629d-49e7-bf10-7da2f06dacf1" d="M76.3,10.84a.28.28,0,1,1-.27-.28.27.27,0,0,1,.27.27h0"></path><path class="b9ee3715-1044-467d-9f81-a7a5362dec0d" d="M57,11.06h0a4.31,4.31,0,0,1-4.31-4.31h0A4.32,4.32,0,0,1,57,2.43h0a4.32,4.32,0,0,1,4.32,4.31h0A4.31,4.31,0,0,1,57,11.06Z"></path><path class="b2320fe4-629d-49e7-bf10-7da2f06dacf1" d="M56.36,9.36h1V6.72h.74l.07-.88H57.4V5.35c0-.21.05-.29.25-.29h.57V4.14h-.73c-.77,0-1.13.35-1.13,1v.7h-.54v.89h.54Z"></path><path class="fb73bc40-6244-4633-b321-51875d4ad607" d="M75.61,23a1.1,1.1,0,0,1,0-.18,1.64,1.64,0,0,0,0-.22,1.4,1.4,0,0,0-.06-.28,2.81,2.81,0,0,0-.3-.74,2.89,2.89,0,0,0-.69-.79,2.73,2.73,0,0,0-2.58-.44,2.49,2.49,0,0,0-.69.35,3.88,3.88,0,0,0-.31.26,2.52,2.52,0,0,0-.27.3,2.72,2.72,0,0,0-.08,3.22,2.51,2.51,0,0,0,.26.31l.3.27a3.07,3.07,0,0,0,.68.39,2.73,2.73,0,0,0,3.32-1.07,2.7,2.7,0,0,0,.33-.71,2.86,2.86,0,0,0,.07-.28.76.76,0,0,0,0-.21l0-.18a.54.54,0,0,1,0,.18,1.8,1.8,0,0,1,0,.22c0,.09,0,.19,0,.29a2.9,2.9,0,0,1-.31.75,2.93,2.93,0,0,1-.73.8,2.87,2.87,0,0,1-2.72.36,2.82,2.82,0,0,1-.72-.4c-.11-.09-.22-.18-.32-.28a2.87,2.87,0,0,1,.1-4.06,2.16,2.16,0,0,1,.33-.27,2.86,2.86,0,0,1,2.24-.45,2.92,2.92,0,0,1,1.88,1.39,2.64,2.64,0,0,1,.28.77c0,.1,0,.2.05.3v.22A1.09,1.09,0,0,1,75.61,23Z"></path><path class="fb73bc40-6244-4633-b321-51875d4ad607" d="M75.06,21.21a1.22,1.22,0,0,1-.15.12l-.18.13-.11.08-.14.07a3.14,3.14,0,0,1-1.64.42h-.25l-.24,0-.12,0-.11,0-.21-.06a3.68,3.68,0,0,1-.7-.32,1.77,1.77,0,0,1-.54-.44s.22.15.59.35a5.86,5.86,0,0,0,.69.28l.21.05.1,0h.12l.22,0h.24a3.49,3.49,0,0,0,1.59-.35l.14-.07.12-.06.19-.11A.48.48,0,0,1,75.06,21.21Z"></path><path class="fb73bc40-6244-4633-b321-51875d4ad607" d="M70.58,24.61l.14-.13.18-.13.12-.07.13-.08a3.26,3.26,0,0,1,1.65-.41h.25l.24,0,.11,0,.11,0,.22.05a4.82,4.82,0,0,1,.7.31,1.67,1.67,0,0,1,.54.45s-.22-.16-.6-.35a3.44,3.44,0,0,0-.69-.28l-.2-.06-.11,0-.11,0-.23,0h-.24a3.39,3.39,0,0,0-1.59.35l-.14.06-.11.07-.18.14C70.65,24.59,70.59,24.62,70.58,24.61Z"></path><path class="fb73bc40-6244-4633-b321-51875d4ad607" d="M75.61,23a26,26,0,0,1-2.79,0,26.12,26.12,0,0,1-2.8-.14,26.15,26.15,0,0,1,2.8,0A23.7,23.7,0,0,1,75.61,23Z"></path><path class="fb73bc40-6244-4633-b321-51875d4ad607" d="M72.69,25.68a26,26,0,0,1,0-2.79,23.76,23.76,0,0,1,.14-2.8,26.15,26.15,0,0,1,0,2.8A26.06,26.06,0,0,1,72.69,25.68Z"></path><path class="fb73bc40-6244-4633-b321-51875d4ad607" d="M72.69,25.68A2.29,2.29,0,0,1,72,25a3.9,3.9,0,0,1-.5-.92,3.32,3.32,0,0,1-.21-1.25,3.12,3.12,0,0,1,.28-1.24,4.42,4.42,0,0,1,.54-.88,2.67,2.67,0,0,1,.7-.64s-.26.25-.61.71a4.18,4.18,0,0,0-.5.87A3.2,3.2,0,0,0,71.65,24a3.79,3.79,0,0,0,.45.9C72.28,25.19,72.48,25.44,72.69,25.68Z"></path><path class="fb73bc40-6244-4633-b321-51875d4ad607" d="M72.89,20.1a2.22,2.22,0,0,1,.67.66,3.59,3.59,0,0,1,.72,2.17A3.21,3.21,0,0,1,74,24.15a3.59,3.59,0,0,1-.54.88,2.37,2.37,0,0,1-.7.64s.26-.25.61-.7a4.18,4.18,0,0,0,.5-.87,3.26,3.26,0,0,0,.26-1.19,3.47,3.47,0,0,0-.19-1.2,4,4,0,0,0-.46-.89C73.15,20.35,72.87,20.11,72.89,20.1Z"></path></g></g></svg>